<svg width="220.00002000000003" height="60.000001000000005" xmlns="http://www.w3.org/2000/svg" xmlns:xlink="http://www.w3.org/1999/xlink">
 <defs>
  <clipPath id="clip630">
   <path id="path2182" d="m402,-711.889832l41,0l0,32l-41,0l0,-32zm0,0"/>
  </clipPath>
  <clipPath id="clip631">
   <path id="path2185" d="m428.99609,-684.260922c-4.73828,-0.42969 -9.33984,-0.61719 -13.59765,-0.61719c-4.40235,0 -8.4375,0.20312 -11.8711,0.55469c-0.34765,1.26172 -0.64062,2.48047 -0.8789,3.64062l0,0.004c3.40234,-0.48828 7.89843,-0.77344 12.94922,-0.77344c5.21875,0 11.02734,0.30469 16.85546,1.01172c1.44141,-9.26953 4.75782,-22.72266 9.89454,-31.15234c-1.41016,-0.11719 -2.8125,-0.21094 -4.19922,-0.28516c-4.46485,8.32422 -7.4961,18.30469 -9.15235,27.61719"/>
  </clipPath>
  <clipPath id="clip632">
   <path id="path2365" d="m400,-715.889832l40,0l0,32l-40,0l0,-32zm0,0"/>
  </clipPath>
  <clipPath id="clip633">
   <path id="path2368" d="m432.26562,-709.370302l-0.19921,-0.01953c-0.1211,0 -0.2461,0.01563 -0.3711,0.04297l-4.70703,5.19922l-0.99219,2.61328l-0.10547,0.16016l-0.55859,0.0625l-0.70312,0.11718c-0.0586,0.08203 -0.13672,0.11328 -0.23438,0.11328c-0.0898,0 -0.19141,-0.02733 -0.30469,-0.06641l0.0899,0.20704c-0.26953,-0.11719 -0.73828,-0.44532 -1.04688,-0.52735l-0.14453,-0.0078l-0.043,0l-0.0742,0.01563l-0.0234,0.08594l-0.0547,-0.02734l-0.0156,0.13281c-0.0273,-0.06641 -0.0898,-0.10937 -0.1875,-0.125l-0.22265,0.07813l-0.0391,-0.02344l-0.0117,-0.03125l-0.20313,0.05859c-0.39844,0.14063 -0.78125,0.57032 -0.91406,0.57032l-0.008,0c-0.0391,-0.0039 -0.0899,-0.07031 -0.14063,-0.16407l-0.0273,0.0039l-0.008,0c-0.11718,-0.01172 -0.4375,-0.57031 -0.48437,-0.875c-0.17188,-0.04297 -0.35156,-0.09375 -0.37891,-0.25l-0.004,-0.01563c-0.0937,0 -0.76953,4.34375 -2.57422,5.63282c-1.85938,1.32812 -3.96875,2.33984 -4.75391,2.64062c-0.77734,0.30469 -0.32422,0.83985 -1.33594,1.67579c-1.00781,0.83984 -2.5039,2.15625 -1.98828,2.64062c0.0195,0.0156 -0.19531,0.85938 0.0391,0.95703c-2.875,0.0703 -5.53907,0.23438 -7.90625,0.47266c-0.37891,1.41015 -0.70704,2.76953 -0.96875,4.05078c0.89843,-0.12891 1.85546,-0.24609 2.86718,-0.35156c3.4336,-0.35157 7.46875,-0.55469 11.8711,-0.55469c4.25781,0 8.85937,0.1875 13.59765,0.61719c1.65625,-9.3125 4.6875,-19.29297 9.15235,-27.61719c0.57422,-1.0625 1.17187,-2.10157 1.78906,-3.10938c-1.56641,-0.1289 -3.11719,-0.23047 -4.64453,-0.30859c-1.07813,1.88281 -2.125,3.92969 -3.02735,5.92578"/>
  </clipPath>
  <clipPath id="clip634">
   <path id="path2708" d="m398,-717.889832l39,0l0,31l-39,0l0,-31zm0,0"/>
  </clipPath>
  <clipPath id="clip635">
   <path id="path2711" d="m419.70703,-717.600772c0.0508,0.05859 0.1875,0.15235 0.35547,0.34766c0.26953,0.32422 0.82031,1.08203 0.82422,1.32422c0,0.21484 -0.2461,0.14844 -0.0586,0.39844l0.0274,0.03516l0.0781,0.08984c0.36328,0.40234 1.60157,2.04687 1.78516,2.32421c0.0898,0.13672 0.17969,0.1875 0.25,0.1875l0.12891,-0.14062l0.0195,-0.02734c0.0508,0 0.20312,0.17578 0.23828,0.3125l0.004,0.02344l-0.13671,0.08594l0,0.0039l0.0234,0.06641c0.0899,0.17578 0.41797,0.55859 0.69922,1.23047c0.36328,0.86719 0.69922,1.34765 0.60938,2.1914c-0.0859,0.84375 -0.26563,2.05469 -0.98828,2.37891c-0.73047,0.32422 -1.32032,0.41016 -1.27344,1.01172c0.0508,0.60156 0.77734,0.64062 1.28125,1l0.0664,0.04297l0,-0.0078l0.23438,0.05859l-0.0156,0.05078c0.47266,0.17969 1.03907,0.15625 1.26563,0.65234c0.17187,0.3711 0.0977,0.9336 -0.0898,1.41797l0.0312,0.0039l-0.10547,0.23438l-0.0274,-0.0039c-0.10156,0.20703 -0.21875,0.38672 -0.34765,0.52343c-0.28125,0.30469 -0.46094,0.4961 -0.4961,0.63672c0.11328,0.03906 0.21485,0.06641 0.30469,0.06641c0.0977,0 0.17578,-0.03125 0.23438,-0.11328l0.70312,-0.11719l0.55859,-0.0625l0.10547,-0.16015l0.99219,-2.61328l4.70703,-5.19922c0.125,-0.02734 0.25,-0.04297 0.3711,-0.04297l0.19921,0.01953c0.90235,-1.99609 1.94922,-4.04297 3.02735,-5.92578c0.3789,-0.65625 0.76172,-1.29297 1.14453,-1.90235c-4.13281,-0.33984 -8.15234,-0.49218 -11.89063,-0.49218c-1.67578,0 -3.29296,0.03125 -4.83984,0.08984m-0.76172,15.59375c-0.33203,0.14843 0.46875,1.1875 -0.23828,1.6875c-0.70703,0.5 -1.0625,0.40625 -1.11328,0.66406c-0.0547,0.25781 -0.31641,1.62891 -2.22266,2.98828c-1.90234,1.35547 -2.97656,2.19922 -3.77343,2.50391c-0.66016,0.25781 -0.875,0.95702 -1.50782,1.67577l0.0742,-0.004c0.25391,-0.0117 0.51172,-0.0234 0.55469,-0.0234l0.004,0c0.0976,0 0.17968,0.0781 0.17968,0.17969c0.004,0.10156 -0.0781,0.18359 -0.17968,0.18359c-0.0391,0 -0.29297,0.0156 -0.54297,0.0234c-0.23828,0.0117 -0.47266,0.0234 -0.51172,0.0234c-2.98047,0.0664 -6.98438,0.3125 -9.99219,0.59375c-0.36339,1.33216 -0.67589,2.62122 -0.92589,3.83606c0.90234,-0.1289 1.86328,-0.24609 2.87891,-0.34765c2.36718,-0.23828 5.03125,-0.40235 7.90625,-0.47266c-0.23438,-0.0977 -0.0195,-0.9414 -0.0391,-0.95703c-0.51562,-0.48437 0.98047,-1.80078 1.98828,-2.64062c1.01172,-0.83594 0.5586,-1.3711 1.33594,-1.67579c0.78516,-0.30078 2.89453,-1.3125 4.75391,-2.64062c1.80469,-1.28906 2.48047,-5.63281 2.57422,-5.63281l0.004,0.01563c0.0274,0.15625 0.20703,0.20703 0.37891,0.25l-0.008,-0.07031c0,-0.26954 -0.64453,-0.14063 -0.69922,-0.46094c-0.0586,-0.32031 -0.26563,-0.25391 0.043,-0.26953l-0.1211,-0.0078c-0.45703,0 -0.44922,0.41796 -0.80078,0.57812m2.9961,0.55859c-0.38672,0.13672 -0.73829,0.5 -0.89063,0.54297c0.0508,0.09375 0.10156,0.16016 0.14063,0.16407l0.008,0c0.13281,0 0.51562,-0.42969 0.91406,-0.57032l0.20313,-0.05859l-0.0977,-0.15234c-0.0508,0 -0.13281,0.02344 -0.27734,0.07422m1.03906,-0.03516l-0.0352,0.0078l0.043,0l0.14453,0.0078l-0.12109,-0.01953l-0.03124,0.00393zm-0.3086,0.06641l-0.082,0.02344c0.0977,0.01563 0.16016,0.05859 0.1875,0.125l0.0156,-0.13281l-0.0547,-0.02734l-0.0664,0.01171zm0,0"/>
  </clipPath>
  <clipPath id="clip636">
   <path id="path2873" d="m396,-719.889832l30,0l0,29l-30,0l0,-29zm0,0"/>
  </clipPath>
  <clipPath id="clip637">
   <path id="path2876" d="m409.53906,-719.030452c-5.4375,5.3789 -10.74219,18.35937 -12.65625,27.46484c0.73438,-0.10547 1.6875,-0.21094 2.77344,-0.30859c0.36719,-1.58204 0.82422,-3.26954 1.37109,-5.01954c-0.96875,0.07422 -1.91797,0.16407 -2.84765,0.26172l0.0742,-0.25c0.92968,-0.09766 1.88281,-0.18359 2.85156,-0.26172c0.53515,-1.6914 1.14844,-3.4375 1.83594,-5.20312c-1.00391,0.08203 -1.98047,0.17187 -2.9336,0.27344l0.0937,-0.25c0.95703,-0.10157 1.9336,-0.19532 2.9375,-0.26953c0.61719,-1.56641 1.28125,-3.14063 2.01172,-4.70313c-1.03125,0.07813 -2.03516,0.17188 -3.01562,0.27734l0.11718,-0.2539c0.98047,-0.10156 1.98438,-0.19531 3.01563,-0.27344c0.69922,-1.48047 1.44922,-2.94141 2.23828,-4.36719c-1.06641,0.08984 -2.10156,0.19922 -3.10547,0.31641l0.14063,-0.25781c1.00781,-0.11719 2.03906,-0.22657 3.10546,-0.3125c0.78516,-1.39844 1.60938,-2.75782 2.47266,-4.05078c-1.04687,0.08203 -2.05859,0.17968 -3.05469,0.28906c0.0664,-0.08984 0.12891,-0.17578 0.19532,-0.26563c0.98437,-0.10937 1.99218,-0.20312 3.02734,-0.28125c0.66406,-0.98047 1.35937,-1.91797 2.07031,-2.8164c0.10938,-0.0078 0.21485,-0.01563 0.32422,-0.02344c-0.71875,0.89453 -1.41406,1.83593 -2.08594,2.82031c1.19141,-0.08984 2.41407,-0.15625 3.66016,-0.21094c0.65625,-0.99219 1.32812,-1.9375 2.00781,-2.82812c0.10938,-0.0078 0.21485,-0.01172 0.32031,-0.01953c-0.6914,0.89453 -1.37109,1.83984 -2.03515,2.83984c1.10547,-0.04297 2.23047,-0.07422 3.36719,-0.08984c0.49218,-0.80469 0.99218,-1.58594 1.5,-2.35156l0.14062,0.22265c-0.45703,0.69532 -0.91016,1.40235 -1.35547,2.125c0.27735,-0.0039 0.55078,-0.0039 0.82813,-0.0039c0.48828,0 0.98437,0.0039 1.47656,0.0078l0.16016,0.23047c-0.16797,-0.25781 -0.3711,-0.51953 -0.50391,-0.67969c-0.16797,-0.19531 -0.30469,-0.28906 -0.35547,-0.34765l0.0156,-0.08984l0.13281,-0.02734l0.0703,0.0039l0.13672,0c-0.0937,-0.35157 -0.69141,-1.42188 -0.94141,-1.71875c-0.0859,-0.10157 -0.17187,-0.16016 -0.24218,-0.19922c-3.28516,0.07813 -6.76563,0.30078 -9.33985,0.60156m11.03125,2.46484c-0.48437,-0.0039 -0.96484,-0.0039 -1.44922,-0.0039c-0.39062,0 -0.78125,0 -1.16797,0.0039c-0.78515,1.29688 -1.53515,2.64063 -2.25781,4.01172c0.71094,-0.01172 1.42188,-0.01563 2.13672,-0.01563c0.49219,0 0.98828,0.0039 1.48047,0.0078c0.48828,-1.01172 0.99609,-1.99609 1.51562,-2.96875c-0.1875,-0.25 0.0586,-0.18359 0.0586,-0.39843c-0.004,-0.1211 -0.14063,-0.375 -0.31641,-0.63672l-0.004,-0.0078c0,0.0039 0.004,0.0039 0.004,0.0078m-6.27734,0.09766c-0.83985,1.27343 -1.65235,2.62109 -2.4375,4.02734c1.17187,-0.05469 2.36328,-0.08984 3.57031,-0.10937c0.71484,-1.3711 1.46484,-2.71485 2.24609,-4.01172c-1.14453,0.01953 -2.27343,0.04687 -3.3789,0.09375m-3.96875,0.22265c-0.8711,1.29297 -1.69922,2.65625 -2.48828,4.05469c1.21484,-0.09766 2.46093,-0.17969 3.73828,-0.23828c0.77734,-1.40625 1.58984,-2.75391 2.42187,-4.02734c-1.25,0.05078 -2.48047,0.12109 -3.67187,0.21093m10.60937,0.83985l-0.0781,-0.08984l0.0781,0.08984zm0.008,0.0078c-0.004,0 -0.008,-0.0039 -0.008,-0.0078l0.008,0.0078zm0.043,0.05078l-0.043,-0.05078c0.0117,0.01562 0.0273,0.03516 0.043,0.05078m0.0117,0.01172c-0.48437,0.91015 -0.96093,1.83203 -1.41797,2.77734c1.15625,0.01563 2.32032,0.04297 3.48829,0.08203c0.0664,-0.14453 0.14062,-0.28516 0.20703,-0.43359l0.082,0.16015c-0.0352,-0.13672 -0.1875,-0.3125 -0.23828,-0.3125l-0.0195,0.02734l-0.12891,0.14063c-0.0703,0 -0.16016,-0.05078 -0.25,-0.1875c-0.17188,-0.26563 -1.29297,-1.75391 -1.72266,-2.25391l-0.0117,-0.01172c0.004,0.0039 0.008,0.0078 0.0117,0.01172m2.22657,2.69922l0,-0.0039l0,0.0039zm0.0273,0.07422c0,-0.0039 -0.004,-0.0039 -0.004,-0.0078c0,0.0039 0.004,0.0039 0.004,0.0078m0.22656,0.34766l-0.25781,-0.01563c-0.66016,1.44531 -1.27734,2.93359 -1.84375,4.43359c0.95703,0.03516 1.92187,0.08984 2.88281,0.14453l-0.0976,0.23828c-0.96094,-0.05469 -1.92188,-0.10937 -2.87891,-0.14453c-0.58594,1.56641 -1.12109,3.14453 -1.60156,4.70703l0.10547,0.0078l-0.004,0c1.12891,0.04687 2.04687,0.08594 3.19531,0.16016c0.19141,-0.62109 0.45703,-1.41797 0.66406,-2.03125l-0.0664,-0.04297c-0.50391,-0.35938 -1.23047,-0.39844 -1.28125,-1c-0.0469,-0.60156 0.54297,-0.6875 1.27344,-1.01172c0.72265,-0.32422 0.90234,-1.53516 0.98828,-2.37891c0.0898,-0.84375 -0.2461,-1.32421 -0.60938,-2.1914c-0.16015,-0.37891 -0.33203,-0.66797 -0.46875,-0.875c-0.10156,-0.15625 -0.1875,-0.27344 -0.22656,-0.34766c0.0391,0.07813 0.12109,0.19141 0.22656,0.34766m-7.90625,-0.09766c-0.7539,1.44922 -1.46875,2.92578 -2.13672,4.41406c0.64063,-0.0078 1.28125,-0.01172 1.92578,-0.01172c0.6211,0 1.24219,0.0039 1.86329,0.01172c0.62109,-1.49609 1.28125,-2.97656 1.97656,-4.42578c-0.46485,-0.0039 -0.92969,-0.0039 -1.38672,-0.0039c-0.75391,0 -1.5,0.0039 -2.24219,0.01563m1.91406,4.41797c1.20313,0.01563 2.41797,0.04297 3.63672,0.08984c0.56641,-1.50391 1.17969,-2.98828 1.83985,-4.4336c-1.17188,-0.03906 -2.33985,-0.06641 -3.4961,-0.08203c-0.69531,1.44922 -1.35937,2.92969 -1.98047,4.42579m-5.76562,-4.30079c-0.78125,1.41797 -1.52734,2.89063 -2.23438,4.40235c1.21094,-0.05078 2.4375,-0.08594 3.6836,-0.10156c0.66406,-1.49219 1.3789,-2.96485 2.13281,-4.41407c-1.21484,0.02344 -2.41016,0.05859 -3.58203,0.11328m-4.02344,0.25782c-0.79687,1.42578 -1.55078,2.88672 -2.25,4.37109c1.22656,-0.08984 2.48828,-0.16016 3.76953,-0.21875c0.70313,-1.50781 1.44532,-2.98047 2.21875,-4.39453c-1.27734,0.0625 -2.52343,0.14062 -3.73828,0.24219m5.62891,4.28125c-0.69531,1.5625 -1.33203,3.13281 -1.91016,4.69531c0.66406,-0.0078 1.33203,-0.01563 2.00781,-0.01563c0.64063,0 1.28516,0.0078 1.9336,0.01563c0.53906,-1.56641 1.1289,-3.13672 1.76953,-4.69922c-0.58984,-0.0078 -1.17578,-0.01172 -1.75781,-0.01172c-0.6875,0 -1.36719,0.0078 -2.04297,0.01563m2.28515,4.69531c1.26563,0.01953 2.53907,0.05078 3.82422,0.10157c0.47657,-1.56641 1.00782,-3.14063 1.59375,-4.70704c-1.22265,-0.04687 -2.4375,-0.07422 -3.64453,-0.08984c-0.64062,1.5586 -1.23437,3.13282 -1.77344,4.69532m-6.23438,-4.5859c-0.71484,1.53516 -1.38672,3.10156 -2.00391,4.69531c1.24219,-0.05469 2.50391,-0.08594 3.78516,-0.10547c0.57812,-1.5625 1.21094,-3.13281 1.90234,-4.69531c-1.24609,0.01953 -2.47656,0.05469 -3.68359,0.10547m-4.05078,0.23047c-0.73047,1.55859 -1.40235,3.13281 -2.01953,4.69922c1.23828,-0.09375 2.50781,-0.16797 3.80468,-0.22266c0.61329,-1.59375 1.28516,-3.16015 1.99219,-4.69922c-1.28515,0.05859 -2.54687,0.12891 -3.77734,0.22266m17.89844,4.64844c0.38671,0.02344 1.39843,0.09375 1.8125,0.125c0.1875,-0.48438 0.26171,-1.04688 0.0898,-1.41797c-0.22656,-0.4961 -0.79297,-0.47266 -1.26563,-0.65235c-0.19921,0.59766 -0.45312,1.35157 -0.63671,1.94532m-3.44532,-0.14453l0.004,-0.03125l-0.004,0.03125zm0,0zm-0.0156,0.03125l0,-0.00391l0,0.00391zm0,0.0039zm-0.0117,0.03125zm-0.28516,0.13281c0.0117,-0.09766 0.22657,-0.07031 0.28516,-0.13281c-0.0586,0.0625 -0.27344,0.03516 -0.28516,0.13281m-8.14062,-0.10547c-0.64453,1.75 -1.20703,3.48047 -1.67969,5.16797c0.99609,-0.01953 2,-0.02734 3.01172,-0.02734c0.34766,0 0.69922,0.0039 1.05078,0.0039c0.44531,-1.6836 0.97266,-3.41016 1.56641,-5.14844c-0.6211,-0.0078 -1.24219,-0.01172 -1.85547,-0.01172c-0.70313,0 -1.39844,0.0039 -2.09375,0.01563m2.6289,5.14844c0.78907,0.0039 1.59375,0.02734 2.39063,0.04688l-0.23047,0.23437c-0.74219,-0.01562 -1.48828,-0.03516 -2.22266,-0.04297c-0.18359,0.70703 -0.35156,1.40235 -0.50781,2.08985c-0.0976,0.07031 -0.19922,0.14062 -0.29297,0.20703c0.16797,-0.75782 0.34766,-1.51953 0.55469,-2.29688c-0.35547,-0.0039 -0.70703,-0.0039 -1.05859,-0.0039c-1.01172,0 -2.01563,0.0078 -3.00782,0.02734c-0.46484,1.6836 -0.83984,3.32032 -1.10546,4.8711c0.41015,-0.0156 0.80468,-0.0234 1.1875,-0.0352c0.0351,0 0.22265,-0.008 0.42968,-0.0156c0.63282,-0.71875 0.84766,-1.41796 1.50782,-1.67578c0.79687,-0.30468 1.87109,-1.14843 3.77343,-2.5039c1.90625,-1.35938 2.16797,-2.73047 2.22266,-2.98828c0.0508,-0.25782 0.40625,-0.16407 1.11328,-0.66407c0.70703,-0.5 -0.0937,-1.53906 0.23828,-1.6875c0.35156,-0.16015 0.34375,-0.57812 0.80078,-0.57812l0.1211,0.0078c-0.3086,0.01563 -0.10157,-0.05078 -0.043,0.26953c0.0547,0.32031 0.69922,0.19141 0.69922,0.46094l0.008,0.07031c0.0469,0.30469 0.36719,0.86328 0.48437,0.875l0.008,0l0.0273,-0.0039c0.15234,-0.04297 0.50391,-0.40625 0.89063,-0.54297c0.14453,-0.05078 0.22656,-0.07422 0.27734,-0.07422l0.0977,0.15234l0.0117,0.03125l0.0391,0.02344l0.22265,-0.07813l0.082,-0.02344l0.0664,-0.01172l-0.11328,-0.05469c0.0937,-0.32031 0.17969,-0.64453 0.27734,-0.96094c-1.17187,-0.07422 -2.27343,-0.12109 -3.4375,-0.16796l-0.0586,0l0.0586,0l-0.0586,0l-0.0625,0.04297l0.0156,-0.05078c-1.28515,-0.04687 -2.5625,-0.08203 -3.83203,-0.09766c-0.59765,1.73828 -1.125,3.46484 -1.57422,5.14843m-6.67578,-5.03515c-0.66015,1.71484 -1.2539,3.45312 -1.78125,5.1875c1.27735,-0.05859 2.57813,-0.10156 3.89844,-0.12891c0.46875,-1.6875 1.03125,-3.41797 1.67188,-5.17187c-1.28125,0.02344 -2.54688,0.05859 -3.78907,0.11328m-4.07031,0.23828c-0.69141,1.76562 -1.30469,3.50781 -1.84375,5.19922c1.26172,-0.09375 2.55469,-0.17578 3.875,-0.23828c0.52734,-1.73438 1.12109,-3.47266 1.78125,-5.19141c-1.30078,0.05859 -2.57422,0.13672 -3.8125,0.23047m19.66406,0.90625l0.0742,-0.01563l0.0352,-0.0078l0.0312,-0.0039l0.12109,0.01953c0.3086,0.08203 0.77735,0.41016 1.04688,0.52734l-0.0899,-0.20703c0.0352,-0.14062 0.21485,-0.33203 0.4961,-0.63672c0.1289,-0.13672 0.24609,-0.3164 0.34765,-0.52343c-0.40625,-0.03125 -1.41015,-0.09766 -1.78515,-0.1211c-0.0977,0.32031 -0.1836,0.64453 -0.27735,0.96875m-17.45312,4.28516c-0.5,1.66406 -0.9336,3.32421 -1.29297,4.95703c1.39453,-0.0898 2.80469,-0.16407 4.10156,-0.21094c0.26563,-1.55469 0.63672,-3.1875 1.09766,-4.875c-1.32031,0.02734 -2.625,0.07031 -3.90625,0.12891m-4.13281,0.25781c-0.54688,1.75 -1.00782,3.4375 -1.375,5.01562c1.21484,-0.10937 2.57812,-0.21484 3.96484,-0.30078c0.35937,-1.63281 0.78516,-3.29296 1.28516,-4.95703c-1.31641,0.0625 -2.60938,0.14453 -3.875,0.24219"/>
  </clipPath>
  <clipPath id="clip638">
   <path id="path3288" d="m423,-704.889832l2,0l0,3l-2,0l0,-3zm0,0"/>
  </clipPath>
  <clipPath id="clip639">
   <path id="path3291" d="m423.64062,-704.714052l0.21875,0.10156l0.0156,-0.05078l-0.23438,-0.05859l0.00003,0.00781zm1.29297,2.40625l0.0274,0.0039l0.10547,-0.23437l-0.0312,-0.0039l-0.10167,0.23437zm0,0"/>
  </clipPath>
  <clipPath id="clip640">
   <path id="path3295" d="m419,-704.889832l6,0l0,4l-6,0l0,-4zm0,0"/>
  </clipPath>
  <clipPath id="clip641">
   <path id="path3298" d="m422.97656,-702.682802c-1.14844,-0.07422 -2.0664,-0.11328 -3.19531,-0.16015l-0.004,0.03125l-0.0156,0.02733l0,0.0078l-0.0117,0.03125c-0.0586,0.0625 -0.27344,0.03517 -0.28516,0.13282c1.16407,0.04687 2.26563,0.09375 3.4375,0.16797c-0.0976,0.3164 -0.18359,0.64062 -0.27734,0.96093l0.11328,0.05469l0.0508,-0.01172l0.082,-0.01953c0.0937,-0.32422 0.17969,-0.64843 0.27735,-0.96875c0.375,0.02344 1.3789,0.08984 1.78515,0.1211l0.10157,-0.23438c-0.41407,-0.03125 -1.42579,-0.10156 -1.8125,-0.125c0.18359,-0.59375 0.4375,-1.34765 0.63671,-1.94531l-0.21875,-0.10156c-0.20703,0.61328 -0.47265,1.41015 -0.66406,2.03125"/>
  </clipPath>
  <clipPath id="clip642">
   <path id="path3302" d="m421,-715.889832l3,0l0,4l-3,0l0,-4zm0,0"/>
  </clipPath>
  <clipPath id="clip643">
   <path id="path3305" d="m420.85547,-715.495302l-0.0274,-0.03516l0.0274,0.03516zm2.39459,2.89063zm-2.39459,-2.88673zm0,0zm0.0234,0.06641l-0.0234,-0.06641l0.0234,0.06641zm0,0"/>
  </clipPath>
  <clipPath id="clip644">
   <path id="path3309" d="m398,-719.889832l27,0l0,28l-27,0l0,-28zm0,0"/>
  </clipPath>
  <clipPath id="clip645">
   <path id="path3312" d="m416.16406,-719.534362c-0.67969,0.89062 -1.35156,1.83594 -2.00781,2.82812c-1.24609,0.05469 -2.46875,0.1211 -3.66016,0.21094c0.67188,-0.98437 1.36719,-1.92578 2.08594,-2.82031c-0.10937,0.0078 -0.21484,0.01563 -0.32422,0.02344c-0.71094,0.89844 -1.40625,1.83594 -2.07031,2.8164c-1.03516,0.07813 -2.04297,0.17188 -3.02734,0.28125c-0.0664,0.08984 -0.12891,0.17579 -0.19532,0.26563c0.9961,-0.10938 2.00782,-0.20703 3.05469,-0.28906c-0.86328,1.29297 -1.6875,2.65234 -2.47266,4.05078c-1.0664,0.08594 -2.09765,0.19531 -3.10546,0.3125l-0.14063,0.25781c1.00391,-0.11719 2.03906,-0.22656 3.10547,-0.31641c-0.78906,1.42579 -1.53906,2.88672 -2.23828,4.36719c-1.03125,0.07813 -2.03516,0.17188 -3.01563,0.27344l-0.11718,0.25391c0.98046,-0.10547 1.98437,-0.19922 3.01562,-0.27735c-0.73047,1.5625 -1.39453,3.13672 -2.01172,4.70313c-1.0039,0.07422 -1.98047,0.16797 -2.9375,0.26953l-0.0937,0.25c0.95313,-0.10156 1.92969,-0.19141 2.9336,-0.27344c-0.6875,1.76563 -1.30079,3.51172 -1.83594,5.20313c-0.96875,0.07813 -1.92188,0.16406 -2.85156,0.26171l-0.0742,0.25c0.92968,-0.09766 1.8789,-0.1875 2.84765,-0.26171c-0.54687,1.75 -1.0039,3.43749 -1.37109,5.01953l0.25391,-0.0273c0.36718,-1.57812 0.82812,-3.26562 1.375,-5.01562c1.26562,-0.09766 2.55859,-0.17969 3.875,-0.24219c-0.5,1.66406 -0.92579,3.32422 -1.28516,4.95703l0.25,-0.0156c0.35937,-1.63282 0.79297,-3.29297 1.29297,-4.95703c1.28125,-0.05859 2.58594,-0.10157 3.90625,-0.12891c-0.46094,1.6875 -0.83203,3.32031 -1.09766,4.875l0.2461,-0.008c0.26562,-1.55078 0.64062,-3.1875 1.10546,-4.8711c0.99219,-0.01953 1.9961,-0.02734 3.00782,-0.02734c0.35156,0 0.70312,0 1.05859,0.0039c-0.20703,0.77735 -0.38672,1.53907 -0.55469,2.29688c0.0937,-0.06641 0.19532,-0.13672 0.29297,-0.20703c0.15625,-0.6875 0.32422,-1.38281 0.50781,-2.08985c0.73438,0.0078 1.48047,0.02734 2.22266,0.04297l0.23047,-0.23437c-0.79688,-0.01953 -1.60156,-0.04297 -2.39063,-0.04688c0.44922,-1.68359 0.97657,-3.41016 1.57422,-5.14844c1.26953,0.01563 2.54688,0.05078 3.83203,0.09766l-0.0156,0.05078l0.0625,-0.04297c0.11719,-0.08594 0.24219,-0.16797 0.37109,-0.23047l0.008,0l-0.10547,-0.0078c0.48047,-1.5625 1.01562,-3.14062 1.60156,-4.70703c0.95703,0.03516 1.91797,0.08984 2.87891,0.14453l0.0976,-0.23828c-0.96094,-0.05469 -1.92578,-0.10937 -2.88281,-0.14453c0.56641,-1.5 1.18359,-2.98828 1.84375,-4.43359l0.25781,0.01563c-0.10547,-0.16406 -0.1914,-0.27734 -0.23047,-0.35547l-0.0234,-0.06641l0,-0.0039l0.13671,-0.08594l-0.004,-0.02344l-0.082,-0.16016c-0.0664,0.14844 -0.14063,0.28907 -0.20703,0.4336c-1.16797,-0.03906 -2.33204,-0.06641 -3.48829,-0.08203c0.45704,-0.94532 0.9336,-1.86719 1.41797,-2.77735l-0.0625,-0.07031l-0.0781,-0.08984l-0.0274,-0.03516c-0.51953,0.97266 -1.02734,1.95703 -1.51562,2.96875c-0.49219,-0.0039 -0.98828,-0.0078 -1.48047,-0.0078c-0.71484,0 -1.42578,0.0039 -2.13672,0.01563c0.72266,-1.37109 1.47266,-2.71484 2.25781,-4.01172c0.38672,-0.0039 0.77735,-0.0039 1.16797,-0.0039c0.48438,0 0.96485,0 1.44922,0.0039l-0.16406,-0.23828c-0.49219,-0.0039 -0.98828,-0.0078 -1.47656,-0.0078c-0.27735,0 -0.55078,0 -0.82813,0.0039c0.44531,-0.72265 0.89844,-1.42968 1.35547,-2.125l-0.14062,-0.22265c-0.50782,0.76562 -1.00782,1.54687 -1.5,2.35156c-1.13672,0.01562 -2.26172,0.04687 -3.36719,0.08984c0.66406,-1 1.34375,-1.94531 2.03515,-2.83984c-0.10546,0.0078 -0.21093,0.01172 -0.32031,0.01953m-1.87109,3.0664c1.10547,-0.04687 2.23437,-0.07422 3.3789,-0.09375c-0.78125,1.29688 -1.53125,2.64063 -2.24609,4.01172c-1.20703,0.01953 -2.39844,0.05469 -3.57031,0.10938c0.78515,-1.40625 1.59765,-2.75391 2.4375,-4.02735m-3.96875,0.22266c1.1914,-0.08984 2.42187,-0.16016 3.67187,-0.21094c-0.83203,1.27344 -1.64453,2.6211 -2.42187,4.02735c-1.27735,0.05859 -2.52344,0.14062 -3.73828,0.23828c0.78906,-1.39844 1.61718,-2.76172 2.48828,-4.05469m5.24609,3.93359c0.74219,-0.01172 1.48828,-0.01563 2.24219,-0.01563c0.45703,0 0.92187,0 1.38672,0.0039c-0.69531,1.44922 -1.35547,2.92969 -1.97656,4.42578c-0.6211,-0.0078 -1.24219,-0.01172 -1.86329,-0.01172c-0.64453,0 -1.28515,0.0039 -1.92578,0.01172c0.66797,-1.48828 1.38282,-2.96484 2.13672,-4.41406m1.91406,4.41797c0.6211,-1.49609 1.28516,-2.97656 1.98047,-4.42578c1.15625,0.01563 2.32422,0.04297 3.4961,0.08203c-0.66016,1.44531 -1.27344,2.92969 -1.83985,4.43359c-1.21875,-0.04688 -2.43359,-0.07422 -3.63672,-0.08984m-5.76562,-4.30078c1.17187,-0.05469 2.36719,-0.08984 3.58203,-0.11328c-0.75391,1.44922 -1.46875,2.92188 -2.13281,4.41406c-1.2461,0.01563 -2.47266,0.05078 -3.6836,0.10157c0.70704,-1.51172 1.45313,-2.98438 2.23438,-4.40235m-4.02344,0.25781c1.21485,-0.10156 2.46094,-0.17968 3.73828,-0.24218c-0.77343,1.41406 -1.51562,2.88672 -2.21875,4.39453c-1.28125,0.05859 -2.54297,0.1289 -3.76953,0.21875c0.69922,-1.48438 1.45313,-2.94531 2.25,-4.3711m5.62891,4.28125c0.67578,-0.0078 1.35547,-0.01563 2.04297,-0.01563c0.58203,0 1.16797,0.0039 1.75781,0.01172c-0.64063,1.5625 -1.23047,3.13282 -1.76953,4.69922c-0.64844,-0.0078 -1.29297,-0.01563 -1.9336,-0.01563c-0.67578,0 -1.34375,0.0078 -2.00781,0.01563c0.57813,-1.5625 1.21485,-3.13281 1.91016,-4.69531m2.28515,4.69531c0.53907,-1.5625 1.13282,-3.13672 1.77344,-4.69531c1.20703,0.01563 2.42188,0.04297 3.64453,0.08984c-0.58593,1.56641 -1.11718,3.14062 -1.59375,4.70703c-1.28515,-0.05078 -2.55859,-0.08203 -3.82422,-0.10156m-6.23452,-4.58584c1.20703,-0.05078 2.4375,-0.08594 3.68359,-0.10547c-0.6914,1.5625 -1.32422,3.13281 -1.90234,4.69531c-1.28125,0.01953 -2.54297,0.05078 -3.78516,0.10547c0.61719,-1.59375 1.28907,-3.16015 2.00391,-4.69531m-4.05078,0.23047c1.23047,-0.09375 2.49219,-0.16406 3.77734,-0.22266c-0.70703,1.53907 -1.3789,3.10547 -1.99219,4.69922c-1.29687,0.05469 -2.5664,0.12891 -3.80468,0.22266c0.61718,-1.56641 1.28906,-3.14063 2.01953,-4.69922m6,4.59766c0.69531,-0.01172 1.39062,-0.01564 2.09375,-0.01564c0.61328,0 1.23437,0.0039 1.85547,0.01172c-0.59375,1.73829 -1.1211,3.46485 -1.56641,5.14844c-0.35156,0 -0.70312,-0.0039 -1.05078,-0.0039c-1.01172,0 -2.01563,0.0078 -3.01172,0.02734c0.47266,-1.6875 1.03516,-3.41797 1.67969,-5.16797m-4.04688,0.11328c1.24219,-0.05469 2.50782,-0.08984 3.78907,-0.11328c-0.64063,1.75391 -1.20313,3.48438 -1.67188,5.17188c-1.32031,0.02734 -2.62109,0.07031 -3.89844,0.1289c0.52735,-1.73437 1.1211,-3.47265 1.78125,-5.1875m-4.07031,0.23829c1.23828,-0.09375 2.51172,-0.17188 3.8125,-0.23047c-0.66016,1.71875 -1.25391,3.45703 -1.78125,5.1914c-1.32031,0.0625 -2.61328,0.14453 -3.875,0.23828c0.53906,-1.6914 1.15234,-3.43359 1.84375,-5.19921"/>
  </clipPath>
  <clipPath id="clip646">
   <path id="path3316" d="m399,-692.889832l10,0l0,1l-10,0l0,-1zm0,0"/>
  </clipPath>
  <clipPath id="clip647">
   <path id="path3319" d="m408.22656,-692.428892l-0.0312,0.18359l0.2461,-0.008l0.0312,-0.18359l-0.2461,0.008zm-4.35156,0.22656l-0.0391,0.18359l0.25,-0.0156l0.0391,-0.18359l-0.25,0.0156zm-4.21875,0.32813l-0.043,0.1875l0.25,-0.0234l0.0469,-0.19141l-0.2539,0.02731zm0,0"/>
  </clipPath>
 </defs>
 <metadata id="metadata12418">image/svg+xml</metadata>
 <g>
  <title>background</title>
  <rect fill="none" id="canvas_background" height="402" width="582" y="-1" x="-1"/>
 </g>
 <g>
  <title>Layer 1</title>
  <path fill="#000000" fill-rule="nonzero" id="path5938" d="m77.237698,40.771485l0,-13.564461l-2.7002,0l0,6.904299c0,0.708012 0.078125,1.357425 0.078125,1.357425l-0.039,0c0,0 -0.273438,-0.61035 -0.688475,-1.298825l-4.160163,-6.962899l-2.817375,0l0,13.564461l2.680663,0l0,-7.548837c0,-0.75195 -0.078125,-1.479487 -0.078125,-1.479487l0.034125,0c0,0 0.29785,0.708012 0.7129,1.4209l4.511713,7.607424l2.465812,0zm0,0"/>
  <path fill="#000000" fill-rule="nonzero" id="path5940" d="m85.733785,34.462885l-3.70605,0.5957c-0.097625,-2.211912 0.712887,-3.295887 1.953125,-3.295887c1.142575,0 1.752925,0.830075 1.752925,2.700187m2.880863,0.727537c0,-3.188475 -1.459963,-5.23925 -4.5166,-5.23925c-3.051763,0 -4.790038,2.148437 -4.790038,5.478512c0,3.388675 1.875,5.537112 5.12695,5.537112c1.791988,0 2.973637,-0.332037 3.823238,-0.7666l-0.712888,-1.914062c-0.5664,0.29785 -1.513675,0.571287 -2.758787,0.571287c-1.552738,0 -2.34375,-0.7666 -2.5586,-2.324225l6.362313,-0.9082c0,-0.136725 0.024375,-0.292975 0.024375,-0.434575"/>
  <path fill="#000000" fill-rule="nonzero" id="path5942" d="m104.600972,30.146486l-2.700187,0l-1.362313,6.113275c-0.175775,0.7666 -0.195313,1.557625 -0.195313,1.557625l-0.039,0c0,0 -0.083,-0.791025 -0.258787,-1.538087l-1.51855,-6.132812l-2.524412,0l-1.611337,6.132812c-0.23925,0.883787 -0.258788,1.538087 -0.258788,1.538087l-0.039,0c0,0 -0.0195,-0.673837 -0.200187,-1.538087l-1.2793,-6.132812l-3.056637,0l2.919913,10.624999l2.817387,0l1.557613,-5.756837c0.195313,-0.708012 0.239262,-1.459962 0.239262,-1.459962l0.0195,0c0,0 0.039,0.75195 0.21485,1.459962l1.51855,5.756837l2.8418,0l2.914937,-10.624999zm0,0"/>
  <path fill="#000000" fill-rule="nonzero" id="path5944" d="m118.892972,40.771485l0,-2.148437l-4.160163,0l4.082038,-11.416024l-7.749025,0l0,2.153325l3.784175,0l-4.2334,11.411137l8.276375,0zm0,0"/>
  <path fill="#000000" fill-rule="nonzero" id="path5946" d="m126.33926,34.462885l-3.706063,0.5957c-0.097625,-2.211912 0.7129,-3.295887 1.953125,-3.295887c1.142587,0 1.752938,0.830075 1.752938,2.700187m2.88085,0.727537c0,-3.188475 -1.45995,-5.23925 -4.5166,-5.23925c-3.05175,0 -4.78515,2.148437 -4.78515,5.478512c0,3.388675 1.870112,5.537112 5.122062,5.537112c1.792,0 2.973637,-0.332037 3.82325,-0.7666l-0.708013,-1.914062c-0.571288,0.29785 -1.51855,0.571287 -2.758788,0.571287c-1.557612,0 -2.348637,-0.7666 -2.563475,-2.324225l6.367188,-0.9082c0,-0.136725 0.0195,-0.292975 0.0195,-0.434575"/>
  <path fill="#000000" fill-rule="nonzero" id="path5948" d="m136.314847,39.05761c-0.273438,0.136725 -0.66895,0.21485 -1.12305,0.21485c-1.2207,0 -1.928713,-0.532225 -1.928713,-1.772462c0,-1.694337 1.201175,-2.128912 3.051762,-2.304687l0,3.8623zm2.88085,1.12305l0,-6.347649c0,-2.875987 -1.777337,-3.881837 -4.179688,-3.881837c-1.875,0 -3.25195,0.493162 -4.0039,0.805662l0.668937,1.757812c0.693362,-0.317387 1.738287,-0.6543 2.763675,-0.6543c1.12305,0 1.870125,0.317387 1.870125,1.4209l0,0.493162c-3.188487,0.292975 -5.932625,1.103512 -5.932625,3.842775c0,2.207025 1.57715,3.354487 4.653325,3.354487c1.83105,0 3.271487,-0.317375 4.16015,-0.791012"/>
  <path fill="#000000" fill-rule="nonzero" id="path5950" d="m152.481835,39.05761c-0.278325,0.136725 -0.673825,0.21485 -1.12305,0.21485c-1.225587,0 -1.933587,-0.532225 -1.933587,-1.772462c0,-1.694337 1.201163,-2.128912 3.056637,-2.304687l0,3.8623zm2.875975,1.12305l0,-6.347649c0,-2.875987 -1.772463,-3.881837 -4.179688,-3.881837c-1.870113,0 -3.25195,0.493162 -3.999025,0.805662l0.66895,1.757812c0.693362,-0.317387 1.7334,-0.6543 2.763675,-0.6543c1.118163,0 1.870113,0.317387 1.870113,1.4209l0,0.493162c-3.193363,0.292975 -5.932613,1.103512 -5.932613,3.842775c0,2.207025 1.577138,3.354487 4.648438,3.354487c1.835938,0 3.271475,-0.317375 4.16015,-0.791012"/>
  <path fill="#000000" fill-rule="nonzero" id="path5952" d="m166.715235,40.771485l0,-7.451174c0,-1.928712 -1.201175,-3.369137 -4.5752,-3.369137c-1.88965,0 -3.388675,0.3125 -4.453125,0.786125l0,10.034187l3.076175,0l0,-8.691412c0.351563,-0.117187 0.688475,-0.219725 1.298825,-0.219725c1.240238,0 1.57715,0.732425 1.57715,1.479487l0,7.431649l3.076175,0zm0,0"/>
  <path fill="#000000" fill-rule="nonzero" id="path5954" d="m80.787497,19.985349c-0.273438,0.136725 -0.66895,0.21485 -1.12305,0.21485c-1.2207,0 -1.928712,-0.532237 -1.928712,-1.772462c0,-1.694337 1.201175,-2.128912 3.051762,-2.304687l0,3.8623zm2.880863,1.118162l0,-6.342774c0,-2.875975 -1.772463,-3.881837 -4.179688,-3.881837c-1.875,0 -3.25195,0.493175 -4.003913,0.81055l0.673837,1.752937c0.688475,-0.317387 1.733388,-0.649425 2.758788,-0.649425c1.123038,0 1.870112,0.3125 1.870112,1.416025l0,0.493162c-3.188475,0.29785 -5.932612,1.103512 -5.932612,3.842775c0,2.207025 1.57715,3.344725 4.653312,3.344725c1.831063,0 3.271487,-0.3125 4.160163,-0.786137"/>
  <path fill="#000000" fill-rule="nonzero" id="path5956" d="m95.025785,21.694336l0,-7.446287c0,-1.928712 -1.206063,-3.36915 -4.5752,-3.36915c-1.894537,0 -3.388675,0.317387 -4.458012,0.786137l0,10.029299l3.076175,0l0,-8.686524c0.35645,-0.117187 0.693363,-0.219725 1.303713,-0.219725c1.240238,0 1.57715,0.732425 1.57715,1.479487l0,7.426762l3.076175,0zm0,0"/>
  <path fill="#000000" fill-rule="nonzero" id="path5958" d="m128.731835,21.694336l0,-7.446287c0,-1.928712 -1.201175,-3.36915 -4.5752,-3.36915c-1.88965,0 -3.388663,0.317387 -4.453125,0.786137l0,10.029299l3.071288,0l0,-8.686524c0.35645,-0.117187 0.693362,-0.219725 1.303712,-0.219725c1.245125,0 1.57715,0.732425 1.57715,1.479487l0,7.426762l3.076175,0zm0,0"/>
  <path fill="#000000" fill-rule="nonzero" id="path5960" d="m136.28066,13.066399l0,-1.992187l-1.635737,0l0,-1.337887c0,-1.225587 0.61035,-1.57715 1.635737,-1.538087l0,-1.953125c-2.880862,-0.317375 -4.711913,1.083987 -4.711913,3.745125l0,1.083975l-1.162112,0l0,1.992187l1.162112,0l0,8.627937l3.076175,0l0,-8.627937l1.635737,0zm0,0"/>
  <path fill="#000000" fill-rule="nonzero" id="path5962" d="m143.65371,16.337887c0,1.914062 -0.278325,3.471687 -1.635738,3.471687c-1.342775,0 -1.63575,-1.557625 -1.63575,-3.471687c0,-1.88965 0.273438,-3.544925 1.63575,-3.544925c1.357413,0 1.635738,1.655275 1.635738,3.544925m3.051762,0.039062c0,-3.173825 -1.611337,-5.49805 -4.711925,-5.49805c-3.05175,0 -4.667963,2.324225 -4.667963,5.49805c0,3.173825 1.616213,5.5127 4.692387,5.5127c3.076163,0 4.6875,-2.338875 4.6875,-5.5127"/>
  <path fill="#000000" fill-rule="nonzero" id="path5964" d="m154.351947,10.917962c-2.856437,-0.136712 -4.511713,0.175787 -5.69335,0.751962l0,10.019524l3.071288,0l0,-8.662112c0.512687,-0.23925 1.303712,-0.2539 2.050775,0.058587l0.571288,-2.167962zm0,0"/>
  <path fill="#000000" fill-rule="nonzero" id="path5966" d="m170.733785,21.694336l0,-7.446287c0,-1.870125 -1.303712,-3.36915 -3.823238,-3.36915c-1.757813,0 -2.8418,0.493175 -3.51075,1.064462c-0.61035,-0.590825 -1.6162,-1.064462 -3.369138,-1.064462c-1.855462,0 -3.115237,0.253912 -4.296875,0.786137l0,10.029299l3.071288,0l0,-8.686524c0.375975,-0.136725 0.693363,-0.195312 1.245125,-0.195312c1.06445,0 1.655275,0.551762 1.655275,1.396487l0,7.485349l3.076163,0l0,-8.369137c0.351563,-0.35645 0.805663,-0.5127 1.3379,-0.5127c1.06445,0 1.538075,0.629887 1.538075,1.43555l0,7.446287l3.076175,0zm0,0"/>
  <path fill="#000000" fill-rule="nonzero" id="path5968" d="m178.502347,19.985349c-0.278325,0.136725 -0.673837,0.21485 -1.127938,0.21485c-1.2207,0 -1.928712,-0.532237 -1.928712,-1.772462c0,-1.694337 1.201175,-2.128912 3.05665,-2.304687l0,3.8623zm2.875975,1.118162l0,-6.342774c0,-2.875975 -1.772463,-3.881837 -4.179688,-3.881837c-1.870125,0 -3.251962,0.493175 -3.999025,0.81055l0.668938,1.752937c0.688487,-0.317387 1.7334,-0.649425 2.7588,-0.649425c1.123038,0 1.875,0.3125 1.875,1.416025l0,0.493162c-3.19825,0.29785 -5.9375,1.103512 -5.9375,3.842775c0,2.207025 1.577138,3.344725 4.653312,3.344725c1.835938,0 3.271488,-0.3125 4.160163,-0.786137"/>
  <path fill="#000000" fill-rule="nonzero" id="path5970" d="m188.892972,21.557611l0,-1.88965c-0.2588,0.083012 -0.395512,0.117187 -0.6543,0.117187c-0.688475,0 -0.986325,-0.429687 -0.986325,-1.23535l0,-5.4834l1.640625,0l0,-1.992187l-1.640625,0l0,-3.05175c0,0 -0.449225,-0.083012 -1.547862,0.205075c-1.103513,0.2832 -1.523438,0.58105 -1.523438,0.58105l0,2.265625l-1.166988,0l0,1.992187l1.166988,0l0,5.717775c0,1.63575 0.961925,3.066412 3.193362,3.066412c0.708012,0 1.259763,-0.175787 1.518563,-0.292975"/>
  <path fill="#000000" fill-rule="nonzero" id="path5972" d="m193.956448,8.022462c0,-0.791012 -0.732425,-1.440437 -1.63575,-1.440437c-0.9082,0 -1.635738,0.649425 -1.635738,1.440437c0,0.805662 0.727538,1.43555 1.635738,1.43555c0.903325,0 1.63575,-0.629887 1.63575,-1.43555m-0.097625,3.05175l-3.076175,0l0,10.615237l3.076175,0l0,-10.615237zm0,0"/>
  <path fill="#000000" fill-rule="nonzero" id="path5974" d="m202.193748,16.337887c0,1.914062 -0.278325,3.471687 -1.635738,3.471687c-1.3379,0 -1.63575,-1.557625 -1.63575,-3.471687c0,-1.88965 0.278325,-3.544925 1.63575,-3.544925c1.357413,0 1.635738,1.655275 1.635738,3.544925m3.056637,0.039062c0,-3.173825 -1.616212,-5.49805 -4.711913,-5.49805c-3.056637,0 -4.67285,2.324225 -4.67285,5.49805c0,3.173825 1.616212,5.5127 4.692387,5.5127c3.076163,0 4.692375,-2.338875 4.692375,-5.5127"/>
  <path fill="#000000" fill-rule="nonzero" id="path5976" d="m215.987698,21.713861l0,-7.441399c0,-1.928712 -1.206063,-3.369137 -4.5752,-3.369137c-1.88965,0 -3.388675,0.3125 -4.453125,0.786125l0,10.024412l3.071287,0l0,-8.681637c0.35645,-0.117187 0.693363,-0.219725 1.303713,-0.219725c1.240237,0 1.57715,0.732425 1.57715,1.479487l0,7.421874l3.076175,0zm0,0"/>
  <path fill="#000000" fill-rule="nonzero" id="path5978" d="m145.894923,50.874021l-0.488288,2.62695c-0.234375,0.107375 -0.5664,0.180662 -0.898438,0.180662c-0.844725,0 -1.274413,-0.356437 -1.123038,-1.186525c0.219725,-1.1621 1.118163,-1.455075 2.509763,-1.621087m0.761712,3.149412l0.61035,-3.256837l-3.784175,0c-0.761712,0.351562 -1.303712,0.903325 -1.464837,1.77735c-0.2295,1.230462 0.502925,1.94335 2.2412,1.94335c1.000987,0 1.840825,-0.190425 2.397462,-0.463862m-1.20605,-6.162112c-1.010738,0 -1.835938,0.288087 -2.285162,0.488287l0.175787,0.825187c0.429688,-0.185537 1.059575,-0.390625 1.6748,-0.390625c0.747075,0 1.225587,0.2295 1.069337,1.054687l-0.0635,0.346687c-0.95215,0.09275 -1.835938,0.249025 -2.539063,0.576162l3.784175,0.005l0.126962,-0.698237c0.307613,-1.6504 -0.629887,-2.207037 -1.943363,-2.207037"/>
  <path fill="#000000" fill-rule="nonzero" id="path5980" d="m141.114647,50.766596l0.517575,-2.788087l-1.445313,0l-0.517575,2.788087l-0.46875,2.524412c-0.278325,0.1416 -0.585938,0.209962 -1.000975,0.209962c-0.747075,0 -0.991213,-0.473637 -0.878913,-1.074212l0.3125,-1.660162l0.517587,-2.788087l-1.445313,0l-0.522462,2.788087l-0.292975,1.57715c-0.258788,1.40625 0.3711,2.153325 2.080075,2.153325c1.113287,0 1.958012,-0.224612 2.54395,-0.507812l0.600588,-3.222662zm0,0"/>
  <path fill="#000000" fill-rule="nonzero" id="path5982" d="m134.820697,49.819334c0.195313,-1.030275 -0.263663,-1.958012 -2.167962,-1.958012c-1.0791,0 -1.928713,0.180662 -2.587888,0.463875l-0.454112,2.4414l-0.673825,3.603512l1.4502,0l0.668937,-3.603512l0.336925,-1.8164c0.292962,-0.1025 0.55175,-0.175787 1.030263,-0.175787c0.908212,0 1.044925,0.546875 0.95215,1.06445l-0.175775,0.927737l-0.66895,3.603512l1.445313,0l0.66895,-3.603512l0.175775,-0.947262zm0,0"/>
  <path fill="#000000" fill-rule="nonzero" id="path5984" d="m126.993548,50.566396l-1.34765,0.2002l-1.367188,0.2002l0.034125,-0.2002l-0.732413,0l0.732413,0c0.278325,-1.386712 0.947275,-2.0166 1.752937,-2.0166c0.805663,0 1.166988,0.532225 0.927725,1.8164m-0.703125,-2.705075c-1.5625,0 -2.7832,1.059575 -3.256825,2.905275c-0.02925,0.12695 -0.058625,0.258787 -0.083,0.390625c-0.405275,2.1582 0.527337,3.330075 2.338863,3.330075c0.971687,0 1.7041,-0.214837 2.197275,-0.449212l-0.175788,-0.913087c-0.375975,0.175775 -0.942387,0.35645 -1.6748,0.35645c-1.044925,0 -1.513675,-0.595712 -1.411137,-1.792l4.013675,-0.556637l0.039,-0.18555l0.02925,-0.180662c0.292963,-1.86035 -0.38575,-2.905275 -2.016612,-2.905275"/>
  <path fill="#000000" fill-rule="nonzero" id="path5986" d="m114.830472,50.766596l1.293937,-2.788087l-1.284175,0l-1.181638,2.788087l-0.566413,1.337887c-0.175775,0.415037 -0.292962,0.8545 -0.292962,0.8545c-0.0195,0 0.01,-0.439462 -0.0195,-0.83985l-0.097625,-1.352537l-0.209963,-2.788087l-1.210938,0l-1.274412,2.788087l-0.620125,1.352537c-0.219725,0.4834 -0.322262,0.83985 -0.322262,0.83985c-0.024375,0 0.02925,-0.35645 0.014625,-0.83985l-0.05375,-1.352537l-0.11225,-2.788087l-1.459962,0l0.258787,2.788087l0.332025,3.603512l1.303713,0l1.684575,-3.603512l0.18555,-0.405275c0.195313,-0.415037 0.292963,-0.815425 0.292963,-0.815425c0.024375,0 -0.039,0.400387 0.005,0.815425l0.034125,0.405275l0.322263,3.603512l1.303712,0l1.6747,-3.603512zm0,0"/>
  <path fill="#000000" fill-rule="nonzero" id="path5988" d="m101.515035,50.566396l-1.34765,0.2002l-1.367188,0.2002l0.034125,-0.2002l-0.727538,0l0.727538,0c0.278325,-1.386712 0.947262,-2.0166 1.752925,-2.0166c0.805675,0 1.167,0.532225 0.927737,1.8164m-0.703125,-2.705075c-1.5625,0 -2.788087,1.059575 -3.25195,2.905275c-0.034125,0.12695 -0.0635,0.258787 -0.087875,0.390625c-0.4004,2.1582 0.527338,3.330075 2.34375,3.330075c0.971675,0 1.699213,-0.214837 2.192375,-0.449212l-0.1709,-0.913087c-0.38085,0.175775 -0.947262,0.35645 -1.679688,0.35645c-1.044913,0 -1.513663,-0.595712 -1.411125,-1.792l4.01855,-0.556637l0.02925,-0.18555l0.034125,-0.180662c0.292975,-1.86035 -0.385738,-2.905275 -2.0166,-2.905275"/>
  <path fill="#000000" fill-rule="nonzero" id="path5990" d="m89.073635,50.766596l0.517575,-2.788087l-1.445313,0l-0.517575,2.788087l-0.46875,2.524412c-0.278325,0.1416 -0.585938,0.209962 -1.000975,0.209962c-0.747075,0 -0.991212,-0.473637 -0.878913,-1.074212l0.307613,-1.660162l0.517587,-2.788087l-1.440438,0l-0.522462,2.788087l-0.292963,1.57715c-0.263675,1.40625 0.371088,2.153325 2.080075,2.153325c1.1084,0 1.958013,-0.224612 2.54395,-0.507812l0.600587,-3.222662zm0,0"/>
  <path fill="#000000" fill-rule="nonzero" id="path5992" d="m79.42031,46.166984c0.07325,-0.400387 -0.209962,-0.72265 -0.659175,-0.72265c-0.439462,0 -0.8545,0.322262 -0.927738,0.72265c-0.07325,0.390625 0.224613,0.7129 0.659175,0.7129c0.449225,0 0.8545,-0.322275 0.927737,-0.7129"/>
  <path fill="#000000" fill-rule="nonzero" id="path5994" d="m79.01016,47.978509l-1.445313,0l-0.517587,2.788087l-0.668937,3.603512l1.445313,0l0.668937,-3.603512l0.517587,-2.788087zm0,0"/>
  <path fill="#000000" fill-rule="nonzero" id="path5996" d="m75.680072,50.766596c0.195313,-1.694337 -0.434562,-2.905275 -2.0996,-2.905275c-1.655275,0 -2.74415,1.210937 -3.178712,2.900387l1.425775,0.005c0.244138,-1.06445 0.678712,-1.992187 1.582038,-1.992187c0.917962,0 0.996087,0.927737 0.844725,1.992187c-0.0195,0.131837 -0.044,0.26855 -0.068375,0.400387c-0.224613,1.210937 -0.625,2.333987 -1.655275,2.333987c-0.996087,0 -1.010738,-1.12305 -0.786125,-2.333987c0.024375,-0.131837 0.05375,-0.26855 0.083,-0.400387l-1.425775,0c-0.039,0.131837 -0.068375,0.273437 -0.09275,0.415037c-0.351563,1.884762 0.249025,3.305662 2.036125,3.305662c1.792,0 2.919925,-1.4209 3.271488,-3.305662c0.024375,-0.1416 0.048875,-0.2832 0.0635,-0.415037"/>
  <path fill="#000000" fill-rule="nonzero" id="path5998" d="m66.363673,46.215822l-0.190438,1.00585l1.518563,0l-0.659188,3.544925l-0.673825,3.603512l1.503913,0l0.673825,-3.603512l0.659175,-3.544925l1.528325,0l0.18555,-1.00585l-4.5459,0zm0,0"/>
  <path fill="#000000" fill-rule="nonzero" id="path6000" d="m85.362698,47.138672l0.12695,-0.717775l3.6377,0l-0.126962,0.717775l-3.637687,0zm0,0"/>
  <path fill="#000000" fill-rule="nonzero" id="path6002" d="m117.21816,21.689449l0,-15.449211c0,0 -0.46875,-0.078125 -1.611325,0.205075c-1.142575,0.2832 -1.582037,0.58105 -1.582037,0.58105l0.005,14.663086l3.188363,0zm0,0"/>
  <path fill="#000000" fill-rule="nonzero" id="path6004" d="m73.590235,21.689449l0,-2.138675l-3.447263,0l0,-12.197262c0,0 -0.473637,-0.078125 -1.611337,0.205075c-1.127925,0.278325 -1.567375,0.5713 -1.582025,0.581062l0,13.549799l6.640625,0zm0,0"/>
  <path fill="#000000" fill-rule="nonzero" id="path6006" d="m96.49551,46.166984l-0.01,0.005c-0.034125,-0.01 -0.23925,-0.0635 -0.72265,-0.034125c-0.522463,0.039 -0.7373,0.229487 -0.7373,0.229487l-0.317387,1.616212l-0.708012,0l-0.175775,0.92285l0.712887,0l-0.346675,1.86035l-0.361337,1.943362c-0.166013,0.888675 0.175787,1.728512 1.430675,1.728512c0.346675,0 0.620113,-0.068375 0.761712,-0.12695l0.166013,-0.903325c-0.122,0.039 -0.2246,0.0635 -0.351563,0.0635c-0.498038,0 -0.63965,-0.336912 -0.546875,-0.830075l0.346688,-1.875l0.346675,-1.86035l1.044925,0l0.1709,-0.92285l-1.040038,0l0.337138,-1.8166zm0,0"/>
  <path fill="#000000" fill-rule="nonzero" id="path6008" d="m82.755272,46.166984l-0.01,0.005c-0.02925,-0.01 -0.239262,-0.0635 -0.717775,-0.034125c-0.522462,0.039 -0.742188,0.229487 -0.742188,0.229487l-0.3125,1.616212l-0.712887,0l-0.1709,0.92285l0.712888,0l-0.346675,1.86035l-0.361337,1.943362c-0.166012,0.888675 0.175787,1.728512 1.430663,1.728512c0.3418,0 0.615237,-0.068375 0.756837,-0.12695l0.1709,-0.903325c-0.12695,0.039 -0.224612,0.0635 -0.356437,0.0635c-0.49805,0 -0.634775,-0.336912 -0.542,-0.830075l0.346688,-1.875l0.346675,-1.86035l1.044925,0l0.1709,-0.92285l-1.044925,0l0.33715,-1.8166zm0,0"/>
  <path fill="#000000" fill-rule="nonzero" id="path6010" d="m120.084372,47.910147c-0.488275,0 -0.957025,0.107375 -1.489262,0.3418l0.595712,-3.188475l-0.005,0l0,-0.005c0,0 -0.2002,-0.068375 -0.72265,-0.034125c-0.522462,0.034125 -0.742188,0.131837 -0.742188,0.131837l-1.035163,5.61035l-0.673825,3.603512l1.445313,0l0.673825,-3.603512l0.317388,-1.708987c0.356437,-0.185537 0.673825,-0.258787 1.06445,-0.258787c0.864262,0 1.03515,0.507812 0.927738,1.0791l-0.166025,0.888675l-0.668937,3.603512l1.445313,0l0.668937,-3.603512l0.1709,-0.927737c0.18555,-0.981437 -0.195313,-1.928712 -1.806638,-1.928712"/>
  <path fill="#000000" fill-rule="nonzero" id="path6012" d="m103.224022,19.790036c-0.21485,0.117187 -0.532225,0.15625 -0.947262,0.15625c-1.552738,0 -2.2461,-1.318362 -2.2461,-3.627925c0,-2.1875 0.649413,-3.647462 2.348638,-3.647462c0.3125,0 0.590812,0.04395 0.844725,0.117187l0,7.001949zm3.056637,1.313475l0,-14.863274c0,0 -0.444337,-0.078125 -1.5332,0.205075c-1.083988,0.2832 -1.5332,0.5957 -1.5332,0.5957l0.01,4.0918c-0.395512,-0.097662 -0.927737,-0.175787 -1.557612,-0.175787c-2.739263,0 -4.672863,2.08985 -4.672863,5.49805c0,3.549812 2.011725,5.434575 5.224613,5.434575c1.835938,0 3.0957,-0.273437 4.0625,-0.786137"/>
  <path fill="#000000" fill-rule="nonzero" id="path6014" d="m174.898822,38.842772c-0.219725,0.117125 -0.5371,0.15625 -0.947262,0.15625c-1.557613,0 -2.246088,-1.318362 -2.246088,-3.627937c0,-2.1875 0.649413,-3.642575 2.34375,-3.642575c0.3125,0 0.590812,0.039062 0.8496,0.117187l0,6.997074zm3.051762,1.318362l0,-14.868174c0,0 -0.444337,-0.078125 -1.528325,0.205087c-1.088863,0.2832 -1.538087,0.5957 -1.538087,0.5957l0.014625,4.096675c-0.3955,-0.09765 -0.927725,-0.180662 -1.5625,-0.180662c-2.734375,0 -4.667963,2.094725 -4.667963,5.502925c0,3.544925 2.011713,5.4297 5.224612,5.4297c1.83105,0 3.0957,-0.273437 4.057613,-0.78125"/>
  <path fill="#000000" fill-rule="nonzero" id="path6016" d="m144.708397,40.771485l0,-15.454099c0,0 -0.46875,-0.078125 -1.611325,0.205075c-1.142587,0.2832 -1.582038,0.58105 -1.582038,0.58105l0,14.667974l3.193363,0zm0,0"/>
  <g transform="matrix(1.25,0,0,1.2499999,-491.81504,905.04288) " clip-rule="nonzero" id="g6018" clip-path="url(#clip630)">
   <g clip-rule="nonzero" id="g6020" clip-path="url(#clip631)">
    <path fill="#000000" fill-rule="nonzero" id="path6022" d="m429.22266,-730.553892l-41.36329,29.07031l27.91407,39.72266l41.36328,-29.07422l-27.91406,-39.71875zm0,0"/>
   </g>
  </g>
  <g transform="matrix(1.25,0,0,1.2499999,-491.81504,905.04288) " clip-rule="nonzero" id="g6024" clip-path="url(#clip632)">
   <g clip-rule="nonzero" id="g6026" clip-path="url(#clip633)">
    <path fill="#000000" fill-rule="nonzero" id="path6028" d="m426.94922,-733.772642l-41.02735,28.83594l27.72266,39.4414l41.02734,-28.83203l-27.72265,-39.44531zm0,0"/>
   </g>
  </g>
  <path fill="#ffffff" fill-rule="nonzero" id="path6030" d="m9.039447,50.302734l-0.0635,-0.449225c9.53125,-1.3623 22.7002,-1.5039 35.263675,-0.380862c2.631838,-14.633786 7.48535,-28.222648 13.671875,-38.286122l0.390625,0.23925c-6.191412,10.058599 -11.035162,23.671873 -13.647462,38.330084l-0.039,0.209962l-0.205075,-0.0195c-12.597663,-1.142575 -25.820313,-1.005862 -35.3711,0.35645"/>
  <g transform="matrix(1.25,0,0,1.2499999,-491.81504,905.04288) " clip-rule="nonzero" id="g6032" clip-path="url(#clip634)">
   <g clip-rule="nonzero" id="g6034" clip-path="url(#clip635)">
    <path fill="#000000" fill-rule="nonzero" id="path6036" d="m407.00391,-672.089052l41.84375,-22.16015l-20.66407,-39.02735l-41.84375,22.15625l20.66407,39.03125zm0,0"/>
   </g>
  </g>
  <path fill="#ffffff" fill-rule="nonzero" id="path6038" d="m48.409573,19.023436l-0.405275,-0.21485l0.3125,-0.585937c1.538087,-3.413075 3.39355,-6.899412 5.219725,-9.794912l0.385738,0.23925c-1.811525,2.88575 -3.657225,6.347662 -5.195313,9.755862l-0.317375,0.600587zm0,0"/>
  <path fill="#ffffff" fill-rule="nonzero" id="path6040" d="m6.656635,45.673822l-0.0635,-0.449212c3.320313,-0.473637 9.951175,-1.044925 15.048825,-1.054687c-1.381825,-0.351562 -1.577137,-0.429687 -1.66015,-0.542l0.371087,-0.26855l-0.043875,-0.044c0.15625,0.09275 1.34765,0.38575 2.06055,0.561525c0.717763,0.180662 1.127925,0.2832 1.25,0.332037l0.136713,0.258787l-0.229488,0.180662c-5.190437,-0.161137 -13.129887,0.493162 -16.870125,1.025387"/>
  <g transform="matrix(1.25,0,0,1.2499999,-491.81504,905.04288) " clip-rule="nonzero" id="g6042" clip-path="url(#clip636)">
   <g clip-rule="nonzero" id="g6044" clip-path="url(#clip637)">
    <path fill="#000000" fill-rule="nonzero" id="path6046" d="m418.10547,-731.987492l-33.42578,19.45704l19.39062,33.3164l33.42578,-19.45312l-19.39062,-33.32032zm0,0"/>
   </g>
  </g>
  <path fill="#ffffff" fill-rule="nonzero" id="path6048" d="m4.239647,41.049797c-0.11225,0 -0.209963,-0.083 -0.224612,-0.195312c-0.0195,-0.12695 0.068375,-0.23925 0.190437,-0.258787c3.447263,-0.493162 10.947263,-1.025387 16.054688,-1.142575c0.048875,0 0.336913,-0.014625 0.629875,-0.024375c0.317388,-0.014625 0.63965,-0.02925 0.693363,-0.02925l0.005,0c0.122,0 0.2246,0.097625 0.2246,0.224612c0.005,0.12695 -0.097625,0.229487 -0.2246,0.229487c-0.048875,0 -0.366212,0.014625 -0.678712,0.02925c-0.29785,0.014625 -0.590825,0.02925 -0.63965,0.02925c-5.092775,0.117125 -12.568363,0.649412 -15.9961,1.137687l-0.034288,0.000012zm0,0"/>
  <g transform="matrix(1.25,0,0,1.2499999,-491.81504,905.04288) " clip-rule="nonzero" id="g6050" clip-path="url(#clip638)">
   <g clip-rule="nonzero" id="g6052" clip-path="url(#clip639)">
    <use height="100%" width="100%" y="1655.948436" x="0" id="use6054" transform="matrix(0.467431,0,0,-0.479417,423.37192,91.779108) " xlink:href="#image11"/>
   </g>
  </g>
  <g transform="matrix(1.25,0,0,1.2499999,-491.81504,905.04288) " clip-rule="nonzero" id="g6056" clip-path="url(#clip640)">
   <g clip-rule="nonzero" id="g6058" clip-path="url(#clip641)">
    <use height="100%" width="100%" y="1698.410742" x="0" id="use6060" transform="matrix(0.464666,0,0,-0.467431,419.20103,92.642011) " xlink:href="#image16"/>
   </g>
  </g>
  <g transform="matrix(1.25,0,0,1.2499999,-491.81504,905.04288) " clip-rule="nonzero" id="g6062" clip-path="url(#clip642)">
   <g clip-rule="nonzero" id="g6064" clip-path="url(#clip643)">
    <use height="100%" width="100%" y="0" x="0" id="use6066" transform="matrix(0.41092899999999993,0,0,-0.431475,420.63921999999997,-712.3223635429689) " xlink:href="#image19"/>
   </g>
  </g>
  <g transform="matrix(1.25,0,0,1.2499999,-491.81504,905.04288) " clip-rule="nonzero" id="g6068" clip-path="url(#clip644)">
   <g clip-rule="nonzero" id="g6070" clip-path="url(#clip645)">
    <use height="100%" width="100%" y="0" x="0" id="use6072" transform="matrix(0.47513599999999995,0,0,-0.47779199999999994,397.9149,-691.6114715429686) " xlink:href="#image22"/>
   </g>
  </g>
  <g transform="matrix(1.25,0,0,1.2499999,-491.81504,905.04288) " clip-rule="nonzero" id="g6074" clip-path="url(#clip646)">
   <g clip-rule="nonzero" id="g6076" clip-path="url(#clip647)">
    <use height="100%" width="100%" y="0" x="0" id="use6078" transform="matrix(0.46743099999999993,0,0,-0.38353399999999993,399.3531,-691.4676615429687) " xlink:href="#image25"/>
   </g>
  </g>
  <path fill="#ffffff" fill-rule="nonzero" id="path6080" d="m32.838285,7.929687c-0.151375,0.078125 0.078125,0.151362 0.419913,0.546875c0.3418,0.400387 1.030275,1.352537 1.035163,1.655275c0,0.302737 -0.400388,0.15625 0.058625,0.6543c0.4541,0.502925 2.001962,2.558587 2.23145,2.905262c0.229488,0.351562 0.473637,0.2588 0.473637,0.058587c0,-0.12695 0.26855,0.151375 0.322263,0.35645c0.034125,0.12695 -0.166013,0.058587 -0.166013,0.136712c0,0.15625 0.488275,0.644537 0.903313,1.625987c0.449225,1.083975 0.874025,1.684562 0.7666,2.73925c-0.11225,1.059575 -0.332025,2.568362 -1.240225,2.973637c-0.908212,0.405275 -1.6504,0.507812 -1.5918,1.26465c0.0635,0.75195 0.971675,0.800775 1.601563,1.25c0.629875,0.449212 1.5918,0.244137 1.938475,0.996087c0.346675,0.75195 -0.107375,2.109375 -0.673825,2.71485c-0.566412,0.61035 -0.791025,0.859375 -0.507812,1.059562c0.288087,0.2002 0.512687,0.249025 0.742188,0.146487c0.229487,-0.097662 0.458975,0.097662 0.458975,0.400387c0,0.302737 0.1709,0.35645 1.1377,-0.151362c0.961913,-0.5127 1.357425,-1.6211 2.153325,-2.475587c0.791012,-0.854487 1.51855,-2.177737 1.748038,-2.5293c0.107375,-0.1709 0.07325,-0.219725 -0.2246,-0.351562c-0.380863,-0.175775 -0.473638,-0.493162 -0.307625,-0.791012c0.375975,-0.683587 1.01075,-0.81055 1.708988,-0.947262c0.263675,-0.053712 0.81055,-0.063475 0.932613,0.024412c0.278325,0.2002 0.087875,0.659175 0.209962,0.561525c0.2002,-0.151375 0.346688,-0.434575 0.380863,-0.522462l-0.058625,-0.122075c-0.117125,-0.063475 -0.288087,-0.239262 -0.087875,-0.66895c0.283213,-0.605462 1.020513,-0.405275 1.245125,-1.464837c0.219725,-1.054687 0.903312,-1.665037 0.561525,-2.06055c-0.3418,-0.400387 -1.083988,-0.249025 -1.6504,-0.04395c-0.571287,0.2002 -1.245112,1.210937 -1.9873,0.961912c-0.742188,-0.249025 -2.622075,-0.742187 -2.910163,-1.142575c-0.288075,-0.400387 -0.688475,-2.006837 -0.805663,-2.612312c-0.117125,-0.600575 -0.629875,-0.3955 -0.859375,-0.703125c-0.229487,-0.29785 -0.3955,0.205087 -0.336912,0.761725c0.058625,0.551762 0.688475,1.098637 0.288087,1.303712c-0.395512,0.205075 -0.683587,-0.800787 -1.254887,-1.000975c-0.571288,-0.2002 -0.800775,-0.49805 -0.688475,-1.503912c0.107375,-1.005862 -0.971675,-1.152337 -0.805662,-1.708987c0.1709,-0.55175 0.336912,-1.103512 -0.976563,-1.904287c-1.308588,-0.7959 -1.821288,-0.644537 -2.280275,-1.044925c-0.458975,-0.400387 -0.854487,-0.600587 -0.913087,-1.000975c-0.058625,-0.400387 0.336925,-0.517575 -0.346675,-0.400387c-0.375975,0.063475 -0.49805,-0.024412 -0.644525,0.053712"/>
  <path fill="#ffffff" fill-rule="nonzero" id="path6082" d="m36.685935,30.815423c0.307613,-0.41015 0.522463,-0.668937 0.566413,-0.844725c0.043875,-0.18555 -0.5713,-0.122075 -0.5713,-0.58105c0,-0.463875 0.361337,-0.864262 0.361337,-1.1084c0,-0.131837 -0.175788,-0.087887 -0.288087,-0.083012c-0.112375,0.00975 -0.2295,-0.04395 -0.263675,-0.136725c-0.068375,-0.200187 -0.336912,-0.258787 -0.864262,-0.078125c-0.52245,0.18555 -1.0205,0.751962 -1.17675,0.732425c-0.161138,-0.019537 -0.415038,-0.703125 -0.415038,-1.044925c0,-0.341787 -0.95215,-0.190425 -0.913087,-0.600575c0.024375,-0.253912 0.097625,-0.332037 0.15625,-0.41505l0,-0.117187c-0.727538,-0.097662 -1.269538,0.600587 -1.60645,0.903325c-0.3418,0.302737 0.502938,1.46485 -0.380862,2.08985c-0.8789,0.625 -1.25,0.46875 -1.313475,0.791012c-0.0635,0.317375 -0.195313,2.1875 -2.578125,3.886712c-2.377925,1.694337 -3.7207,2.749025 -4.716788,3.129887c-0.9961,0.390625 -1.176762,1.596687 -2.465825,2.666025c-1.29395,1.069325 -2.011725,3.286125 -1.352537,3.901362c0.664063,0.620112 1.440425,0.4248 1.850588,0.336912c0.317375,-0.068375 0.815425,0.07325 0.95215,0.273437c0.136712,0.2002 0.820313,-0.044 1.1621,0.195312c0.3418,0.239262 1.0254,0.458987 1.865237,0.375975c0.844725,-0.087875 2.338863,-0.673825 3.6084,-2.465812c1.26465,-1.796875 1.09375,-3.403325 1.34765,-4.042975c0.24415,-0.644525 1.079112,-1.6504 2.148438,-1.91895c1.069337,-0.26855 1.18165,-0.385737 1.5918,-0.209962c0.410163,0.180662 1.118163,0.258787 1.044925,-0.3418c-0.068375,-0.605462 -1.005863,-0.400387 -1.005863,-0.883787c0,-0.478512 -0.161125,-0.820312 0.49805,-1.083975c0.659175,-0.263675 1.083988,-1.069337 1.469725,-1.772462c0.385738,-0.708012 0.815425,-0.927737 1.289063,-1.552737"/>
  <path fill="#ffffff" fill-rule="nonzero" id="path6084" d="m22.408597,45.585934c-0.4834,-0.11225 -0.268563,0.2539 -0.239262,0.551762c0.02925,0.302725 -0.1709,0.273437 -0.249025,0.5371c-0.078125,0.258787 -0.205075,0.542 -0.117125,0.6836c0.087875,0.1416 0.190425,0.12695 0.410162,-0.107375c0.219725,-0.239262 0.23925,-0.214837 0.615225,-0.239262c0.375975,-0.0195 0.522462,-0.09275 0.493162,-0.493162c-0.034125,-0.400387 -0.488275,-0.834962 -0.913075,-0.932612"/>
 </g>
</svg>