<svg width="222" height="62" xmlns="http://www.w3.org/2000/svg" xmlns:xlink="http://www.w3.org/1999/xlink">
 <defs>
  <clipPath id="clip630">
   <path id="path2182" d="m402,-711.889832l41,0l0,32l-41,0l0,-32zm0,0"/>
  </clipPath>
  <clipPath id="clip631">
   <path id="path2185" d="m428.99609,-684.260922c-4.73828,-0.42969 -9.33984,-0.61719 -13.59765,-0.61719c-4.40235,0 -8.4375,0.20312 -11.8711,0.55469c-0.34765,1.26172 -0.64062,2.48047 -0.8789,3.64062l0,0.004c3.40234,-0.48828 7.89843,-0.77344 12.94922,-0.77344c5.21875,0 11.02734,0.30469 16.85546,1.01172c1.44141,-9.26953 4.75782,-22.72266 9.89454,-31.15234c-1.41016,-0.11719 -2.8125,-0.21094 -4.19922,-0.28516c-4.46485,8.32422 -7.4961,18.30469 -9.15235,27.61719"/>
  </clipPath>
  <clipPath id="clip632">
   <path id="path2365" d="m400,-715.889832l40,0l0,32l-40,0l0,-32zm0,0"/>
  </clipPath>
  <clipPath id="clip633">
   <path id="path2368" d="m432.26562,-709.370302l-0.19921,-0.01953c-0.1211,0 -0.2461,0.01563 -0.3711,0.04297l-4.70703,5.19922l-0.99219,2.61328l-0.10547,0.16016l-0.55859,0.0625l-0.70312,0.11718c-0.0586,0.08203 -0.13672,0.11328 -0.23438,0.11328c-0.0898,0 -0.19141,-0.02733 -0.30469,-0.06641l0.0899,0.20704c-0.26953,-0.11719 -0.73828,-0.44532 -1.04688,-0.52735l-0.14453,-0.0078l-0.043,0l-0.0742,0.01563l-0.0234,0.08594l-0.0547,-0.02734l-0.0156,0.13281c-0.0273,-0.06641 -0.0898,-0.10937 -0.1875,-0.125l-0.22265,0.07813l-0.0391,-0.02344l-0.0117,-0.03125l-0.20313,0.05859c-0.39844,0.14063 -0.78125,0.57032 -0.91406,0.57032l-0.008,0c-0.0391,-0.0039 -0.0899,-0.07031 -0.14063,-0.16407l-0.0273,0.0039l-0.008,0c-0.11718,-0.01172 -0.4375,-0.57031 -0.48437,-0.875c-0.17188,-0.04297 -0.35156,-0.09375 -0.37891,-0.25l-0.004,-0.01563c-0.0937,0 -0.76953,4.34375 -2.57422,5.63282c-1.85938,1.32812 -3.96875,2.33984 -4.75391,2.64062c-0.77734,0.30469 -0.32422,0.83985 -1.33594,1.67579c-1.00781,0.83984 -2.5039,2.15625 -1.98828,2.64062c0.0195,0.0156 -0.19531,0.85938 0.0391,0.95703c-2.875,0.0703 -5.53907,0.23438 -7.90625,0.47266c-0.37891,1.41015 -0.70704,2.76953 -0.96875,4.05078c0.89843,-0.12891 1.85546,-0.24609 2.86718,-0.35156c3.4336,-0.35157 7.46875,-0.55469 11.8711,-0.55469c4.25781,0 8.85937,0.1875 13.59765,0.61719c1.65625,-9.3125 4.6875,-19.29297 9.15235,-27.61719c0.57422,-1.0625 1.17187,-2.10157 1.78906,-3.10938c-1.56641,-0.1289 -3.11719,-0.23047 -4.64453,-0.30859c-1.07813,1.88281 -2.125,3.92969 -3.02735,5.92578"/>
  </clipPath>
  <clipPath id="clip634">
   <path id="path2708" d="m398,-717.889832l39,0l0,31l-39,0l0,-31zm0,0"/>
  </clipPath>
  <clipPath id="clip635">
   <path id="path2711" d="m419.70703,-717.600772c0.0508,0.05859 0.1875,0.15235 0.35547,0.34766c0.26953,0.32422 0.82031,1.08203 0.82422,1.32422c0,0.21484 -0.2461,0.14844 -0.0586,0.39844l0.0274,0.03516l0.0781,0.08984c0.36328,0.40234 1.60157,2.04687 1.78516,2.32421c0.0898,0.13672 0.17969,0.1875 0.25,0.1875l0.12891,-0.14062l0.0195,-0.02734c0.0508,0 0.20312,0.17578 0.23828,0.3125l0.004,0.02344l-0.13671,0.08594l0,0.0039l0.0234,0.06641c0.0899,0.17578 0.41797,0.55859 0.69922,1.23047c0.36328,0.86719 0.69922,1.34765 0.60938,2.1914c-0.0859,0.84375 -0.26563,2.05469 -0.98828,2.37891c-0.73047,0.32422 -1.32032,0.41016 -1.27344,1.01172c0.0508,0.60156 0.77734,0.64062 1.28125,1l0.0664,0.04297l0,-0.0078l0.23438,0.05859l-0.0156,0.05078c0.47266,0.17969 1.03907,0.15625 1.26563,0.65234c0.17187,0.3711 0.0977,0.9336 -0.0898,1.41797l0.0312,0.0039l-0.10547,0.23438l-0.0274,-0.0039c-0.10156,0.20703 -0.21875,0.38672 -0.34765,0.52343c-0.28125,0.30469 -0.46094,0.4961 -0.4961,0.63672c0.11328,0.03906 0.21485,0.06641 0.30469,0.06641c0.0977,0 0.17578,-0.03125 0.23438,-0.11328l0.70312,-0.11719l0.55859,-0.0625l0.10547,-0.16015l0.99219,-2.61328l4.70703,-5.19922c0.125,-0.02734 0.25,-0.04297 0.3711,-0.04297l0.19921,0.01953c0.90235,-1.99609 1.94922,-4.04297 3.02735,-5.92578c0.3789,-0.65625 0.76172,-1.29297 1.14453,-1.90235c-4.13281,-0.33984 -8.15234,-0.49218 -11.89063,-0.49218c-1.67578,0 -3.29296,0.03125 -4.83984,0.08984m-0.76172,15.59375c-0.33203,0.14843 0.46875,1.1875 -0.23828,1.6875c-0.70703,0.5 -1.0625,0.40625 -1.11328,0.66406c-0.0547,0.25781 -0.31641,1.62891 -2.22266,2.98828c-1.90234,1.35547 -2.97656,2.19922 -3.77343,2.50391c-0.66016,0.25781 -0.875,0.95702 -1.50782,1.67577l0.0742,-0.004c0.25391,-0.0117 0.51172,-0.0234 0.55469,-0.0234l0.004,0c0.0976,0 0.17968,0.0781 0.17968,0.17969c0.004,0.10156 -0.0781,0.18359 -0.17968,0.18359c-0.0391,0 -0.29297,0.0156 -0.54297,0.0234c-0.23828,0.0117 -0.47266,0.0234 -0.51172,0.0234c-2.98047,0.0664 -6.98438,0.3125 -9.99219,0.59375c-0.36339,1.33216 -0.67589,2.62122 -0.92589,3.83606c0.90234,-0.1289 1.86328,-0.24609 2.87891,-0.34765c2.36718,-0.23828 5.03125,-0.40235 7.90625,-0.47266c-0.23438,-0.0977 -0.0195,-0.9414 -0.0391,-0.95703c-0.51562,-0.48437 0.98047,-1.80078 1.98828,-2.64062c1.01172,-0.83594 0.5586,-1.3711 1.33594,-1.67579c0.78516,-0.30078 2.89453,-1.3125 4.75391,-2.64062c1.80469,-1.28906 2.48047,-5.63281 2.57422,-5.63281l0.004,0.01563c0.0274,0.15625 0.20703,0.20703 0.37891,0.25l-0.008,-0.07031c0,-0.26954 -0.64453,-0.14063 -0.69922,-0.46094c-0.0586,-0.32031 -0.26563,-0.25391 0.043,-0.26953l-0.1211,-0.0078c-0.45703,0 -0.44922,0.41796 -0.80078,0.57812m2.9961,0.55859c-0.38672,0.13672 -0.73829,0.5 -0.89063,0.54297c0.0508,0.09375 0.10156,0.16016 0.14063,0.16407l0.008,0c0.13281,0 0.51562,-0.42969 0.91406,-0.57032l0.20313,-0.05859l-0.0977,-0.15234c-0.0508,0 -0.13281,0.02344 -0.27734,0.07422m1.03906,-0.03516l-0.0352,0.0078l0.043,0l0.14453,0.0078l-0.12109,-0.01953l-0.03124,0.00393zm-0.3086,0.06641l-0.082,0.02344c0.0977,0.01563 0.16016,0.05859 0.1875,0.125l0.0156,-0.13281l-0.0547,-0.02734l-0.0664,0.01171zm0,0"/>
  </clipPath>
  <clipPath id="clip636">
   <path id="path2873" d="m396,-719.889832l30,0l0,29l-30,0l0,-29zm0,0"/>
  </clipPath>
  <clipPath id="clip637">
   <path id="path2876" d="m409.53906,-719.030452c-5.4375,5.3789 -10.74219,18.35937 -12.65625,27.46484c0.73438,-0.10547 1.6875,-0.21094 2.77344,-0.30859c0.36719,-1.58204 0.82422,-3.26954 1.37109,-5.01954c-0.96875,0.07422 -1.91797,0.16407 -2.84765,0.26172l0.0742,-0.25c0.92968,-0.09766 1.88281,-0.18359 2.85156,-0.26172c0.53515,-1.6914 1.14844,-3.4375 1.83594,-5.20312c-1.00391,0.08203 -1.98047,0.17187 -2.9336,0.27344l0.0937,-0.25c0.95703,-0.10157 1.9336,-0.19532 2.9375,-0.26953c0.61719,-1.56641 1.28125,-3.14063 2.01172,-4.70313c-1.03125,0.07813 -2.03516,0.17188 -3.01562,0.27734l0.11718,-0.2539c0.98047,-0.10156 1.98438,-0.19531 3.01563,-0.27344c0.69922,-1.48047 1.44922,-2.94141 2.23828,-4.36719c-1.06641,0.08984 -2.10156,0.19922 -3.10547,0.31641l0.14063,-0.25781c1.00781,-0.11719 2.03906,-0.22657 3.10546,-0.3125c0.78516,-1.39844 1.60938,-2.75782 2.47266,-4.05078c-1.04687,0.08203 -2.05859,0.17968 -3.05469,0.28906c0.0664,-0.08984 0.12891,-0.17578 0.19532,-0.26563c0.98437,-0.10937 1.99218,-0.20312 3.02734,-0.28125c0.66406,-0.98047 1.35937,-1.91797 2.07031,-2.8164c0.10938,-0.0078 0.21485,-0.01563 0.32422,-0.02344c-0.71875,0.89453 -1.41406,1.83593 -2.08594,2.82031c1.19141,-0.08984 2.41407,-0.15625 3.66016,-0.21094c0.65625,-0.99219 1.32812,-1.9375 2.00781,-2.82812c0.10938,-0.0078 0.21485,-0.01172 0.32031,-0.01953c-0.6914,0.89453 -1.37109,1.83984 -2.03515,2.83984c1.10547,-0.04297 2.23047,-0.07422 3.36719,-0.08984c0.49218,-0.80469 0.99218,-1.58594 1.5,-2.35156l0.14062,0.22265c-0.45703,0.69532 -0.91016,1.40235 -1.35547,2.125c0.27735,-0.0039 0.55078,-0.0039 0.82813,-0.0039c0.48828,0 0.98437,0.0039 1.47656,0.0078l0.16016,0.23047c-0.16797,-0.25781 -0.3711,-0.51953 -0.50391,-0.67969c-0.16797,-0.19531 -0.30469,-0.28906 -0.35547,-0.34765l0.0156,-0.08984l0.13281,-0.02734l0.0703,0.0039l0.13672,0c-0.0937,-0.35157 -0.69141,-1.42188 -0.94141,-1.71875c-0.0859,-0.10157 -0.17187,-0.16016 -0.24218,-0.19922c-3.28516,0.07813 -6.76563,0.30078 -9.33985,0.60156m11.03125,2.46484c-0.48437,-0.0039 -0.96484,-0.0039 -1.44922,-0.0039c-0.39062,0 -0.78125,0 -1.16797,0.0039c-0.78515,1.29688 -1.53515,2.64063 -2.25781,4.01172c0.71094,-0.01172 1.42188,-0.01563 2.13672,-0.01563c0.49219,0 0.98828,0.0039 1.48047,0.0078c0.48828,-1.01172 0.99609,-1.99609 1.51562,-2.96875c-0.1875,-0.25 0.0586,-0.18359 0.0586,-0.39843c-0.004,-0.1211 -0.14063,-0.375 -0.31641,-0.63672l-0.004,-0.0078c0,0.0039 0.004,0.0039 0.004,0.0078m-6.27734,0.09766c-0.83985,1.27343 -1.65235,2.62109 -2.4375,4.02734c1.17187,-0.05469 2.36328,-0.08984 3.57031,-0.10937c0.71484,-1.3711 1.46484,-2.71485 2.24609,-4.01172c-1.14453,0.01953 -2.27343,0.04687 -3.3789,0.09375m-3.96875,0.22265c-0.8711,1.29297 -1.69922,2.65625 -2.48828,4.05469c1.21484,-0.09766 2.46093,-0.17969 3.73828,-0.23828c0.77734,-1.40625 1.58984,-2.75391 2.42187,-4.02734c-1.25,0.05078 -2.48047,0.12109 -3.67187,0.21093m10.60937,0.83985l-0.0781,-0.08984l0.0781,0.08984zm0.008,0.0078c-0.004,0 -0.008,-0.0039 -0.008,-0.0078l0.008,0.0078zm0.043,0.05078l-0.043,-0.05078c0.0117,0.01562 0.0273,0.03516 0.043,0.05078m0.0117,0.01172c-0.48437,0.91015 -0.96093,1.83203 -1.41797,2.77734c1.15625,0.01563 2.32032,0.04297 3.48829,0.08203c0.0664,-0.14453 0.14062,-0.28516 0.20703,-0.43359l0.082,0.16015c-0.0352,-0.13672 -0.1875,-0.3125 -0.23828,-0.3125l-0.0195,0.02734l-0.12891,0.14063c-0.0703,0 -0.16016,-0.05078 -0.25,-0.1875c-0.17188,-0.26563 -1.29297,-1.75391 -1.72266,-2.25391l-0.0117,-0.01172c0.004,0.0039 0.008,0.0078 0.0117,0.01172m2.22657,2.69922l0,-0.0039l0,0.0039zm0.0273,0.07422c0,-0.0039 -0.004,-0.0039 -0.004,-0.0078c0,0.0039 0.004,0.0039 0.004,0.0078m0.22656,0.34766l-0.25781,-0.01563c-0.66016,1.44531 -1.27734,2.93359 -1.84375,4.43359c0.95703,0.03516 1.92187,0.08984 2.88281,0.14453l-0.0976,0.23828c-0.96094,-0.05469 -1.92188,-0.10937 -2.87891,-0.14453c-0.58594,1.56641 -1.12109,3.14453 -1.60156,4.70703l0.10547,0.0078l-0.004,0c1.12891,0.04687 2.04687,0.08594 3.19531,0.16016c0.19141,-0.62109 0.45703,-1.41797 0.66406,-2.03125l-0.0664,-0.04297c-0.50391,-0.35938 -1.23047,-0.39844 -1.28125,-1c-0.0469,-0.60156 0.54297,-0.6875 1.27344,-1.01172c0.72265,-0.32422 0.90234,-1.53516 0.98828,-2.37891c0.0898,-0.84375 -0.2461,-1.32421 -0.60938,-2.1914c-0.16015,-0.37891 -0.33203,-0.66797 -0.46875,-0.875c-0.10156,-0.15625 -0.1875,-0.27344 -0.22656,-0.34766c0.0391,0.07813 0.12109,0.19141 0.22656,0.34766m-7.90625,-0.09766c-0.7539,1.44922 -1.46875,2.92578 -2.13672,4.41406c0.64063,-0.0078 1.28125,-0.01172 1.92578,-0.01172c0.6211,0 1.24219,0.0039 1.86329,0.01172c0.62109,-1.49609 1.28125,-2.97656 1.97656,-4.42578c-0.46485,-0.0039 -0.92969,-0.0039 -1.38672,-0.0039c-0.75391,0 -1.5,0.0039 -2.24219,0.01563m1.91406,4.41797c1.20313,0.01563 2.41797,0.04297 3.63672,0.08984c0.56641,-1.50391 1.17969,-2.98828 1.83985,-4.4336c-1.17188,-0.03906 -2.33985,-0.06641 -3.4961,-0.08203c-0.69531,1.44922 -1.35937,2.92969 -1.98047,4.42579m-5.76562,-4.30079c-0.78125,1.41797 -1.52734,2.89063 -2.23438,4.40235c1.21094,-0.05078 2.4375,-0.08594 3.6836,-0.10156c0.66406,-1.49219 1.3789,-2.96485 2.13281,-4.41407c-1.21484,0.02344 -2.41016,0.05859 -3.58203,0.11328m-4.02344,0.25782c-0.79687,1.42578 -1.55078,2.88672 -2.25,4.37109c1.22656,-0.08984 2.48828,-0.16016 3.76953,-0.21875c0.70313,-1.50781 1.44532,-2.98047 2.21875,-4.39453c-1.27734,0.0625 -2.52343,0.14062 -3.73828,0.24219m5.62891,4.28125c-0.69531,1.5625 -1.33203,3.13281 -1.91016,4.69531c0.66406,-0.0078 1.33203,-0.01563 2.00781,-0.01563c0.64063,0 1.28516,0.0078 1.9336,0.01563c0.53906,-1.56641 1.1289,-3.13672 1.76953,-4.69922c-0.58984,-0.0078 -1.17578,-0.01172 -1.75781,-0.01172c-0.6875,0 -1.36719,0.0078 -2.04297,0.01563m2.28515,4.69531c1.26563,0.01953 2.53907,0.05078 3.82422,0.10157c0.47657,-1.56641 1.00782,-3.14063 1.59375,-4.70704c-1.22265,-0.04687 -2.4375,-0.07422 -3.64453,-0.08984c-0.64062,1.5586 -1.23437,3.13282 -1.77344,4.69532m-6.23438,-4.5859c-0.71484,1.53516 -1.38672,3.10156 -2.00391,4.69531c1.24219,-0.05469 2.50391,-0.08594 3.78516,-0.10547c0.57812,-1.5625 1.21094,-3.13281 1.90234,-4.69531c-1.24609,0.01953 -2.47656,0.05469 -3.68359,0.10547m-4.05078,0.23047c-0.73047,1.55859 -1.40235,3.13281 -2.01953,4.69922c1.23828,-0.09375 2.50781,-0.16797 3.80468,-0.22266c0.61329,-1.59375 1.28516,-3.16015 1.99219,-4.69922c-1.28515,0.05859 -2.54687,0.12891 -3.77734,0.22266m17.89844,4.64844c0.38671,0.02344 1.39843,0.09375 1.8125,0.125c0.1875,-0.48438 0.26171,-1.04688 0.0898,-1.41797c-0.22656,-0.4961 -0.79297,-0.47266 -1.26563,-0.65235c-0.19921,0.59766 -0.45312,1.35157 -0.63671,1.94532m-3.44532,-0.14453l0.004,-0.03125l-0.004,0.03125zm0,0zm-0.0156,0.03125l0,-0.00391l0,0.00391zm0,0.0039zm-0.0117,0.03125zm-0.28516,0.13281c0.0117,-0.09766 0.22657,-0.07031 0.28516,-0.13281c-0.0586,0.0625 -0.27344,0.03516 -0.28516,0.13281m-8.14062,-0.10547c-0.64453,1.75 -1.20703,3.48047 -1.67969,5.16797c0.99609,-0.01953 2,-0.02734 3.01172,-0.02734c0.34766,0 0.69922,0.0039 1.05078,0.0039c0.44531,-1.6836 0.97266,-3.41016 1.56641,-5.14844c-0.6211,-0.0078 -1.24219,-0.01172 -1.85547,-0.01172c-0.70313,0 -1.39844,0.0039 -2.09375,0.01563m2.6289,5.14844c0.78907,0.0039 1.59375,0.02734 2.39063,0.04688l-0.23047,0.23437c-0.74219,-0.01562 -1.48828,-0.03516 -2.22266,-0.04297c-0.18359,0.70703 -0.35156,1.40235 -0.50781,2.08985c-0.0976,0.07031 -0.19922,0.14062 -0.29297,0.20703c0.16797,-0.75782 0.34766,-1.51953 0.55469,-2.29688c-0.35547,-0.0039 -0.70703,-0.0039 -1.05859,-0.0039c-1.01172,0 -2.01563,0.0078 -3.00782,0.02734c-0.46484,1.6836 -0.83984,3.32032 -1.10546,4.8711c0.41015,-0.0156 0.80468,-0.0234 1.1875,-0.0352c0.0351,0 0.22265,-0.008 0.42968,-0.0156c0.63282,-0.71875 0.84766,-1.41796 1.50782,-1.67578c0.79687,-0.30468 1.87109,-1.14843 3.77343,-2.5039c1.90625,-1.35938 2.16797,-2.73047 2.22266,-2.98828c0.0508,-0.25782 0.40625,-0.16407 1.11328,-0.66407c0.70703,-0.5 -0.0937,-1.53906 0.23828,-1.6875c0.35156,-0.16015 0.34375,-0.57812 0.80078,-0.57812l0.1211,0.0078c-0.3086,0.01563 -0.10157,-0.05078 -0.043,0.26953c0.0547,0.32031 0.69922,0.19141 0.69922,0.46094l0.008,0.07031c0.0469,0.30469 0.36719,0.86328 0.48437,0.875l0.008,0l0.0273,-0.0039c0.15234,-0.04297 0.50391,-0.40625 0.89063,-0.54297c0.14453,-0.05078 0.22656,-0.07422 0.27734,-0.07422l0.0977,0.15234l0.0117,0.03125l0.0391,0.02344l0.22265,-0.07813l0.082,-0.02344l0.0664,-0.01172l-0.11328,-0.05469c0.0937,-0.32031 0.17969,-0.64453 0.27734,-0.96094c-1.17187,-0.07422 -2.27343,-0.12109 -3.4375,-0.16796l-0.0586,0l0.0586,0l-0.0586,0l-0.0625,0.04297l0.0156,-0.05078c-1.28515,-0.04687 -2.5625,-0.08203 -3.83203,-0.09766c-0.59765,1.73828 -1.125,3.46484 -1.57422,5.14843m-6.67578,-5.03515c-0.66015,1.71484 -1.2539,3.45312 -1.78125,5.1875c1.27735,-0.05859 2.57813,-0.10156 3.89844,-0.12891c0.46875,-1.6875 1.03125,-3.41797 1.67188,-5.17187c-1.28125,0.02344 -2.54688,0.05859 -3.78907,0.11328m-4.07031,0.23828c-0.69141,1.76562 -1.30469,3.50781 -1.84375,5.19922c1.26172,-0.09375 2.55469,-0.17578 3.875,-0.23828c0.52734,-1.73438 1.12109,-3.47266 1.78125,-5.19141c-1.30078,0.05859 -2.57422,0.13672 -3.8125,0.23047m19.66406,0.90625l0.0742,-0.01563l0.0352,-0.0078l0.0312,-0.0039l0.12109,0.01953c0.3086,0.08203 0.77735,0.41016 1.04688,0.52734l-0.0899,-0.20703c0.0352,-0.14062 0.21485,-0.33203 0.4961,-0.63672c0.1289,-0.13672 0.24609,-0.3164 0.34765,-0.52343c-0.40625,-0.03125 -1.41015,-0.09766 -1.78515,-0.1211c-0.0977,0.32031 -0.1836,0.64453 -0.27735,0.96875m-17.45312,4.28516c-0.5,1.66406 -0.9336,3.32421 -1.29297,4.95703c1.39453,-0.0898 2.80469,-0.16407 4.10156,-0.21094c0.26563,-1.55469 0.63672,-3.1875 1.09766,-4.875c-1.32031,0.02734 -2.625,0.07031 -3.90625,0.12891m-4.13281,0.25781c-0.54688,1.75 -1.00782,3.4375 -1.375,5.01562c1.21484,-0.10937 2.57812,-0.21484 3.96484,-0.30078c0.35937,-1.63281 0.78516,-3.29296 1.28516,-4.95703c-1.31641,0.0625 -2.60938,0.14453 -3.875,0.24219"/>
  </clipPath>
  <clipPath id="clip638">
   <path id="path3288" d="m423,-704.889832l2,0l0,3l-2,0l0,-3zm0,0"/>
  </clipPath>
  <clipPath id="clip639">
   <path id="path3291" d="m424.44062,-703.914051l0.21875,0.10156l0.0156,-0.05078l-0.23438,-0.05859l0.00003,0.00781zm1.29297,2.40625l0.0274,0.0039l0.10547,-0.23437l-0.0312,-0.0039l-0.10167,0.23437zm0,0"/>
  </clipPath>
  <clipPath id="clip640">
   <path id="path3295" d="m419,-704.889832l6,0l0,4l-6,0l0,-4zm0,0"/>
  </clipPath>
  <clipPath id="clip641">
   <path id="path3298" d="m423.77656,-701.882801c-1.14844,-0.07422 -2.0664,-0.11328 -3.19531,-0.16015l-0.004,0.03125l-0.0156,0.02733l0,0.0078l-0.0117,0.03125c-0.0586,0.0625 -0.27344,0.03517 -0.28516,0.13282c1.16407,0.04687 2.26563,0.09375 3.4375,0.16797c-0.0976,0.3164 -0.18359,0.64062 -0.27734,0.96093l0.11328,0.05469l0.0508,-0.01172l0.082,-0.01953c0.0937,-0.32422 0.17969,-0.64843 0.27735,-0.96875c0.375,0.02344 1.3789,0.08984 1.78515,0.1211l0.10157,-0.23438c-0.41407,-0.03125 -1.42579,-0.10156 -1.8125,-0.125c0.18359,-0.59375 0.4375,-1.34765 0.63671,-1.94531l-0.21875,-0.10156c-0.20703,0.61328 -0.47265,1.41015 -0.66406,2.03125"/>
  </clipPath>
  <clipPath id="clip642">
   <path id="path3302" d="m421,-715.889832l3,0l0,4l-3,0l0,-4zm0,0"/>
  </clipPath>
  <clipPath id="clip643">
   <path id="path3305" d="m421.65547,-714.695301l-0.0274,-0.03516l0.0274,0.03516zm2.39459,2.89063zm-2.39459,-2.88673zm0,0zm0.0234,0.06641l-0.0234,-0.06641l0.0234,0.06641zm0,0"/>
  </clipPath>
  <clipPath id="clip644">
   <path id="path3309" d="m398,-719.889832l27,0l0,28l-27,0l0,-28zm0,0"/>
  </clipPath>
  <clipPath id="clip645">
   <path id="path3312" d="m416.96406,-718.734361c-0.67969,0.89062 -1.35156,1.83594 -2.00781,2.82812c-1.24609,0.05469 -2.46875,0.1211 -3.66016,0.21094c0.67188,-0.98437 1.36719,-1.92578 2.08594,-2.82031c-0.10937,0.0078 -0.21484,0.01563 -0.32422,0.02344c-0.71094,0.89844 -1.40625,1.83594 -2.07031,2.8164c-1.03516,0.07813 -2.04297,0.17188 -3.02734,0.28125c-0.0664,0.08984 -0.12891,0.17579 -0.19532,0.26563c0.9961,-0.10938 2.00782,-0.20703 3.05469,-0.28906c-0.86328,1.29297 -1.6875,2.65234 -2.47266,4.05078c-1.0664,0.08594 -2.09765,0.19531 -3.10546,0.3125l-0.14063,0.25781c1.00391,-0.11719 2.03906,-0.22656 3.10547,-0.31641c-0.78906,1.42579 -1.53906,2.88672 -2.23828,4.36719c-1.03125,0.07813 -2.03516,0.17188 -3.01563,0.27344l-0.11718,0.25391c0.98046,-0.10547 1.98437,-0.19922 3.01562,-0.27735c-0.73047,1.5625 -1.39453,3.13672 -2.01172,4.70313c-1.0039,0.07422 -1.98047,0.16797 -2.9375,0.26953l-0.0937,0.25c0.95313,-0.10156 1.92969,-0.19141 2.9336,-0.27344c-0.6875,1.76563 -1.30079,3.51172 -1.83594,5.20313c-0.96875,0.07813 -1.92188,0.16406 -2.85156,0.26171l-0.0742,0.25c0.92968,-0.09766 1.8789,-0.1875 2.84765,-0.26171c-0.54687,1.75 -1.0039,3.43749 -1.37109,5.01953l0.25391,-0.0273c0.36718,-1.57812 0.82812,-3.26562 1.375,-5.01562c1.26562,-0.09766 2.55859,-0.17969 3.875,-0.24219c-0.5,1.66406 -0.92579,3.32422 -1.28516,4.95703l0.25,-0.0156c0.35937,-1.63282 0.79297,-3.29297 1.29297,-4.95703c1.28125,-0.05859 2.58594,-0.10157 3.90625,-0.12891c-0.46094,1.6875 -0.83203,3.32031 -1.09766,4.875l0.2461,-0.008c0.26562,-1.55078 0.64062,-3.1875 1.10546,-4.8711c0.99219,-0.01953 1.9961,-0.02734 3.00782,-0.02734c0.35156,0 0.70312,0 1.05859,0.0039c-0.20703,0.77735 -0.38672,1.53907 -0.55469,2.29688c0.0937,-0.06641 0.19532,-0.13672 0.29297,-0.20703c0.15625,-0.6875 0.32422,-1.38281 0.50781,-2.08985c0.73438,0.0078 1.48047,0.02734 2.22266,0.04297l0.23047,-0.23437c-0.79688,-0.01953 -1.60156,-0.04297 -2.39063,-0.04688c0.44922,-1.68359 0.97657,-3.41016 1.57422,-5.14844c1.26953,0.01563 2.54688,0.05078 3.83203,0.09766l-0.0156,0.05078l0.0625,-0.04297c0.11719,-0.08594 0.24219,-0.16797 0.37109,-0.23047l0.008,0l-0.10547,-0.0078c0.48047,-1.5625 1.01562,-3.14062 1.60156,-4.70703c0.95703,0.03516 1.91797,0.08984 2.87891,0.14453l0.0976,-0.23828c-0.96094,-0.05469 -1.92578,-0.10937 -2.88281,-0.14453c0.56641,-1.5 1.18359,-2.98828 1.84375,-4.43359l0.25781,0.01563c-0.10547,-0.16406 -0.1914,-0.27734 -0.23047,-0.35547l-0.0234,-0.06641l0,-0.0039l0.13671,-0.08594l-0.004,-0.02344l-0.082,-0.16016c-0.0664,0.14844 -0.14063,0.28907 -0.20703,0.4336c-1.16797,-0.03906 -2.33204,-0.06641 -3.48829,-0.08203c0.45704,-0.94532 0.9336,-1.86719 1.41797,-2.77735l-0.0625,-0.07031l-0.0781,-0.08984l-0.0274,-0.03516c-0.51953,0.97266 -1.02734,1.95703 -1.51562,2.96875c-0.49219,-0.0039 -0.98828,-0.0078 -1.48047,-0.0078c-0.71484,0 -1.42578,0.0039 -2.13672,0.01563c0.72266,-1.37109 1.47266,-2.71484 2.25781,-4.01172c0.38672,-0.0039 0.77735,-0.0039 1.16797,-0.0039c0.48438,0 0.96485,0 1.44922,0.0039l-0.16406,-0.23828c-0.49219,-0.0039 -0.98828,-0.0078 -1.47656,-0.0078c-0.27735,0 -0.55078,0 -0.82813,0.0039c0.44531,-0.72265 0.89844,-1.42968 1.35547,-2.125l-0.14062,-0.22265c-0.50782,0.76562 -1.00782,1.54687 -1.5,2.35156c-1.13672,0.01562 -2.26172,0.04687 -3.36719,0.08984c0.66406,-1 1.34375,-1.94531 2.03515,-2.83984c-0.10546,0.0078 -0.21093,0.01172 -0.32031,0.01953m-1.87109,3.0664c1.10547,-0.04687 2.23437,-0.07422 3.3789,-0.09375c-0.78125,1.29688 -1.53125,2.64063 -2.24609,4.01172c-1.20703,0.01953 -2.39844,0.05469 -3.57031,0.10938c0.78515,-1.40625 1.59765,-2.75391 2.4375,-4.02735m-3.96875,0.22266c1.1914,-0.08984 2.42187,-0.16016 3.67187,-0.21094c-0.83203,1.27344 -1.64453,2.6211 -2.42187,4.02735c-1.27735,0.05859 -2.52344,0.14062 -3.73828,0.23828c0.78906,-1.39844 1.61718,-2.76172 2.48828,-4.05469m5.24609,3.93359c0.74219,-0.01172 1.48828,-0.01563 2.24219,-0.01563c0.45703,0 0.92187,0 1.38672,0.0039c-0.69531,1.44922 -1.35547,2.92969 -1.97656,4.42578c-0.6211,-0.0078 -1.24219,-0.01172 -1.86329,-0.01172c-0.64453,0 -1.28515,0.0039 -1.92578,0.01172c0.66797,-1.48828 1.38282,-2.96484 2.13672,-4.41406m1.91406,4.41797c0.6211,-1.49609 1.28516,-2.97656 1.98047,-4.42578c1.15625,0.01563 2.32422,0.04297 3.4961,0.08203c-0.66016,1.44531 -1.27344,2.92969 -1.83985,4.43359c-1.21875,-0.04688 -2.43359,-0.07422 -3.63672,-0.08984m-5.76562,-4.30078c1.17187,-0.05469 2.36719,-0.08984 3.58203,-0.11328c-0.75391,1.44922 -1.46875,2.92188 -2.13281,4.41406c-1.2461,0.01563 -2.47266,0.05078 -3.6836,0.10157c0.70704,-1.51172 1.45313,-2.98438 2.23438,-4.40235m-4.02344,0.25781c1.21485,-0.10156 2.46094,-0.17968 3.73828,-0.24218c-0.77343,1.41406 -1.51562,2.88672 -2.21875,4.39453c-1.28125,0.05859 -2.54297,0.1289 -3.76953,0.21875c0.69922,-1.48438 1.45313,-2.94531 2.25,-4.3711m5.62891,4.28125c0.67578,-0.0078 1.35547,-0.01563 2.04297,-0.01563c0.58203,0 1.16797,0.0039 1.75781,0.01172c-0.64063,1.5625 -1.23047,3.13282 -1.76953,4.69922c-0.64844,-0.0078 -1.29297,-0.01563 -1.9336,-0.01563c-0.67578,0 -1.34375,0.0078 -2.00781,0.01563c0.57813,-1.5625 1.21485,-3.13281 1.91016,-4.69531m2.28515,4.69531c0.53907,-1.5625 1.13282,-3.13672 1.77344,-4.69531c1.20703,0.01563 2.42188,0.04297 3.64453,0.08984c-0.58593,1.56641 -1.11718,3.14062 -1.59375,4.70703c-1.28515,-0.05078 -2.55859,-0.08203 -3.82422,-0.10156m-6.23452,-4.58584c1.20703,-0.05078 2.4375,-0.08594 3.68359,-0.10547c-0.6914,1.5625 -1.32422,3.13281 -1.90234,4.69531c-1.28125,0.01953 -2.54297,0.05078 -3.78516,0.10547c0.61719,-1.59375 1.28907,-3.16015 2.00391,-4.69531m-4.05078,0.23047c1.23047,-0.09375 2.49219,-0.16406 3.77734,-0.22266c-0.70703,1.53907 -1.3789,3.10547 -1.99219,4.69922c-1.29687,0.05469 -2.5664,0.12891 -3.80468,0.22266c0.61718,-1.56641 1.28906,-3.14063 2.01953,-4.69922m6,4.59766c0.69531,-0.01172 1.39062,-0.01564 2.09375,-0.01564c0.61328,0 1.23437,0.0039 1.85547,0.01172c-0.59375,1.73829 -1.1211,3.46485 -1.56641,5.14844c-0.35156,0 -0.70312,-0.0039 -1.05078,-0.0039c-1.01172,0 -2.01563,0.0078 -3.01172,0.02734c0.47266,-1.6875 1.03516,-3.41797 1.67969,-5.16797m-4.04688,0.11328c1.24219,-0.05469 2.50782,-0.08984 3.78907,-0.11328c-0.64063,1.75391 -1.20313,3.48438 -1.67188,5.17188c-1.32031,0.02734 -2.62109,0.07031 -3.89844,0.1289c0.52735,-1.73437 1.1211,-3.47265 1.78125,-5.1875m-4.07031,0.23829c1.23828,-0.09375 2.51172,-0.17188 3.8125,-0.23047c-0.66016,1.71875 -1.25391,3.45703 -1.78125,5.1914c-1.32031,0.0625 -2.61328,0.14453 -3.875,0.23828c0.53906,-1.6914 1.15234,-3.43359 1.84375,-5.19921"/>
  </clipPath>
  <clipPath id="clip646">
   <path id="path3316" d="m399,-692.889832l10,0l0,1l-10,0l0,-1zm0,0"/>
  </clipPath>
  <clipPath id="clip647">
   <path id="path3319" d="m409.02656,-691.628891l-0.0312,0.18359l0.2461,-0.008l0.0312,-0.18359l-0.2461,0.008zm-4.35156,0.22656l-0.0391,0.18359l0.25,-0.0156l0.0391,-0.18359l-0.25,0.0156zm-4.21875,0.32813l-0.043,0.1875l0.25,-0.0234l0.0469,-0.19141l-0.2539,0.02731zm0,0"/>
  </clipPath>
 </defs>
 <metadata id="metadata12418">image/svg+xml</metadata>
 <g>
  <title>background</title>
  <rect fill="none" id="canvas_background" height="64" width="224" y="-1" x="-1"/>
 </g>
 <g>
  <title>Layer 1</title>
  <g transform="matrix(1.25,0,0,1.2499999,-491.81504,905.04288) " clip-rule="nonzero" id="g6050" clip-path="url(#clip638)">
   <g clip-rule="nonzero" id="g6052" clip-path="url(#clip639)">
    <use height="100%" width="100%" y="1654.279743" x="1.711483" id="use6054" transform="matrix(0.467431,0,0,-0.479417,423.37192,91.779108) " xlink:href="#image11"/>
   </g>
  </g>
  <g transform="matrix(1.25,0,0,1.2499999,-491.81504,905.04288) " clip-rule="nonzero" id="g6056" clip-path="url(#clip640)">
   <g clip-rule="nonzero" id="g6058" clip-path="url(#clip641)">
    <use height="100%" width="100%" y="1696.699259" x="1.721667" id="use6060" transform="matrix(0.464666,0,0,-0.467431,419.20103,92.642011) " xlink:href="#image16"/>
   </g>
  </g>
  <g transform="matrix(1.25,0,0,1.2499999,-491.81504,905.04288) " clip-rule="nonzero" id="g6062" clip-path="url(#clip642)">
   <g clip-rule="nonzero" id="g6064" clip-path="url(#clip643)">
    <use height="100%" width="100%" y="0" x="0" id="use6066" transform="matrix(0.4109289999999999,0,0,-0.431475,421.4392200119209,-711.5223634714433) " xlink:href="#image19"/>
   </g>
  </g>
  <g transform="matrix(1.25,0,0,1.2499999,-491.81504,905.04288) " clip-rule="nonzero" id="g6068" clip-path="url(#clip644)">
   <g clip-rule="nonzero" id="g6070" clip-path="url(#clip645)">
    <use height="100%" width="100%" y="-1.674369" x="1.683728" id="use6072" transform="matrix(0.47513599999999995,0,0,-0.47779199999999994,397.9149,-691.6114715429686) " xlink:href="#image22"/>
   </g>
  </g>
  <g transform="matrix(1.25,0,0,1.2499999,-491.81504,905.04288) " clip-rule="nonzero" id="g6074" clip-path="url(#clip646)">
   <g clip-rule="nonzero" id="g6076" clip-path="url(#clip647)">
    <use height="100%" width="100%" y="0" x="0" id="use6078" transform="matrix(0.4674309999999999,0,0,-0.38353399999999993,400.15310001192086,-690.6676614714431) " xlink:href="#image25"/>
   </g>
  </g>
  <style transform="matrix(0.09392212964895919,0,0,0.09392212964895919,0,0) " type="text/css">.st0{fill:#012639;}</style>
  <g stroke="null" id="svg_84">
   <path stroke="null" id="svg_83" d="m-5.50494,81.356232zm32.80478,-23.774008c21.375829,-8.80239 23.454405,-26.742612 23.454405,-29.465707l0,-23.290182l-46.956528,0l0,23.289284c-0.000918,2.723093 2.127212,20.663315 23.502123,29.466606l0,0z" fill="#FFFFFF"/>
   <path stroke="null" id="svg_59" d="m-5.50494,81.356232zm32.80478,-23.774009c21.375829,-8.802391 23.454404,-26.742613 23.454404,-29.465706l0,-23.290183l-46.956528,0l0,23.289284c-0.000918,2.723093 2.127213,20.663315 23.502124,29.466605l0,0z" fill="#FFFFFF"/>
   <path stroke="#000000" id="svg_60" d="m27.29984,57.582223c21.375829,-8.802391 23.454404,-26.742613 23.454404,-29.465706l0,-23.290183l-46.956528,0l0,23.289284c-0.000918,2.723093 2.127213,20.663315 23.502124,29.466605" stroke-miterlimit="2.613" stroke-width="0.49" fill="none"/>
   <path stroke="null" id="svg_61" d="m50.702853,18.731377l-0.493719,0c-1.334326,-0.006295 -2.64938,0.329145 -3.810262,0.973047c-1.137022,0.680773 -2.426381,1.02071 -3.81118,1.02071c-1.384799,0 -2.719125,-0.339937 -3.807509,-0.973047l-0.050473,-0.048562c-1.088384,-0.632211 -2.426381,-1.02071 -3.810262,-1.02071s-2.67324,0.389399 -3.810262,1.02071c-1.13794,0.679874 -2.424546,1.02071 -3.809345,1.02071c-1.385717,0 -2.72096,-0.340836 -3.809345,-1.02071l-0.049555,0c-1.155376,-0.665485 -2.47043,-1.017113 -3.809345,-1.02071c-1.384799,0 -2.672323,0.389399 -3.809345,1.02071c-1.13794,0.632211 -2.424546,1.02071 -3.809345,1.02071c-1.339832,-0.002698 -2.654887,-0.355225 -3.810262,-1.02071l-0.049555,0c-1.152623,-0.67178 -2.469513,-1.024308 -3.809345,-1.02071c-0.147749,0 -0.198222,0 -0.395526,0.048562l-0.147749,0l0,9.384241c0,2.723093 2.127213,20.664215 23.503042,29.464807c21.375829,-8.800592 23.454404,-26.741713 23.454404,-29.464807l0,-9.38514l-0.055062,0.000899l0,0l0,0z"/>
   <path stroke="#000000" id="svg_62" d="m50.702853,18.731377l-0.493719,0c-1.334326,-0.006295 -2.64938,0.329145 -3.810262,0.973047c-1.137022,0.680773 -2.426381,1.02071 -3.81118,1.02071c-1.384799,0 -2.719125,-0.339937 -3.807509,-0.973047l-0.050473,-0.048562c-1.088384,-0.632211 -2.426381,-1.02071 -3.810262,-1.02071s-2.67324,0.389399 -3.810262,1.02071c-1.13794,0.679874 -2.424546,1.02071 -3.809345,1.02071c-1.385717,0 -2.72096,-0.340836 -3.809345,-1.02071l-0.049555,0c-1.155376,-0.665485 -2.47043,-1.017113 -3.809345,-1.02071c-1.384799,0 -2.672323,0.389399 -3.809345,1.02071c-1.13794,0.632211 -2.424546,1.02071 -3.809345,1.02071c-1.339832,-0.003597 -2.654887,-0.356125 -3.810262,-1.02071l-0.049555,0c-1.152623,-0.67178 -2.469513,-1.024308 -3.809345,-1.02071c-0.147749,0 -0.198222,0 -0.395526,0.048562l-0.147749,0l0,9.384241c0,2.723093 2.127213,20.664215 23.503042,29.464807c21.375829,-8.800592 23.454404,-26.741713 23.454404,-29.464807l0,-9.38514l-0.055062,0.000899" stroke-miterlimit="2.613" stroke-width="0.49" fill="none"/>
   <path stroke="null" id="svg_63" d="m27.29984,30.838711c2.324517,-1.604359 4.700425,-1.895734 6.976304,-0.972148c1.831716,0.776999 3.116486,0.874124 4.848173,0.485624l2.426381,1.166398l0.544192,0c0.156008,-0.190653 0.394608,-0.298569 0.643303,-0.292274c0.444164,0 0.840607,0.339937 0.840607,0.778798c0,0.388499 -0.396443,0.729336 -0.840607,0.729336c-0.248695,0.006295 -0.487295,-0.101621 -0.643303,-0.292274l-0.544192,0l0,0.631312l0.544192,0c0.149584,-0.144788 0.397361,-0.290475 0.643303,-0.290475c0.444164,0 0.840607,0.339937 0.840607,0.776999c0,0.437961 -0.396443,0.778798 -0.840607,0.778798c-0.248695,0.007194 -0.487295,-0.101621 -0.643303,-0.292274l-0.544192,0l0,0.632211l0.544192,0c0.156008,-0.189753 0.394608,-0.29767 0.643303,-0.290475c0.444164,0 0.840607,0.339038 0.840607,0.776999c0,0.437062 -0.396443,0.777898 -0.840607,0.777898c-0.246859,0 -0.493719,-0.144788 -0.643303,-0.292274l-0.544192,0l0,0.632211l0.544192,0c0.156008,-0.189753 0.394608,-0.298569 0.643303,-0.292274c0.444164,0 0.840607,0.340836 0.840607,0.730235c0,0.437062 -0.396443,0.776999 -0.840607,0.776999c-0.248695,0.007194 -0.487295,-0.100722 -0.643303,-0.291375l-0.544192,0l0,0.63311l0.544192,0c0.149584,-0.145687 0.397361,-0.291375 0.643303,-0.291375c0.444164,0 0.840607,0.339937 0.840607,0.778798c0,0.437961 -0.396443,0.777898 -0.840607,0.777898c-0.248695,0.006295 -0.487295,-0.101621 -0.643303,-0.292274l-0.544192,0l0,0.632211l0.544192,0c0.156008,-0.189753 0.394608,-0.29767 0.643303,-0.291375c0.494637,0 0.840607,0.340836 0.840607,0.778798c0,0.388499 -0.346888,0.729336 -0.840607,0.729336c-0.237683,0.001799 -0.468024,-0.085434 -0.643303,-0.243711l-0.544192,0l0,0.632211l0.544192,0c0.156008,-0.189753 0.394608,-0.298569 0.643303,-0.292274c0.494637,0 0.840607,0.339937 0.840607,0.730235c0,0.437062 -0.346888,0.778798 -0.840607,0.778798c-0.248695,0.006295 -0.487295,-0.101621 -0.643303,-0.292274l-0.544192,0c-1.384799,1.167297 -2.820071,1.604359 -4.454483,1.604359c-1.384799,0 -2.226324,-0.195149 -3.116486,-0.777898c-1.434355,-0.973047 -3.213762,-0.973047 -4.650869,0c0.297333,0.146587 0.496472,0.486524 0.496472,0.826461c0,0.535086 -0.445999,0.973047 -0.991109,0.973047l-3.116486,0c-0.546945,-0.001799 -0.989273,-0.437062 -0.989273,-0.973047c0,-0.340836 0.247777,-0.680773 0.544192,-0.826461c-1.434355,-0.973047 -3.215597,-0.973047 -4.700425,0c-0.890162,0.582749 -1.682132,0.777898 -3.066931,0.777898c-1.682132,0 -3.116486,-0.437961 -4.453565,-1.604359l-0.59283,0c-0.15509,0.190653 -0.39369,0.299468 -0.643303,0.292274c-0.445081,0 -0.841525,-0.339937 -0.841525,-0.778798c0,-0.389399 0.396443,-0.730235 0.841525,-0.730235c0.247777,0 0.494637,0.098024 0.643303,0.292274l0.59283,0l0,-0.632211l-0.59283,0c-0.174362,0.158278 -0.404703,0.244611 -0.643303,0.243711c-0.445081,0 -0.841525,-0.339937 -0.841525,-0.729336c0,-0.437961 0.396443,-0.778798 0.841525,-0.778798c0.247777,0 0.494637,0.097125 0.643303,0.291375l0.59283,0l0,-0.632211l-0.59283,0c-0.147749,0.195149 -0.394608,0.292274 -0.643303,0.292274c-0.445081,0 -0.841525,-0.339937 -0.841525,-0.777898c0,-0.437961 0.396443,-0.778798 0.841525,-0.778798c0.247777,0 0.494637,0.146587 0.643303,0.291375l0.59283,0l0,-0.631312l-0.59283,0c-0.147749,0.19425 -0.34597,0.291375 -0.643303,0.291375c-0.432234,0.004497 -0.786463,-0.335441 -0.791969,-0.758114c0,-0.006295 0,-0.01259 0,-0.018885c0,-0.388499 0.34597,-0.729336 0.791052,-0.729336c0.297333,0 0.494637,0.096226 0.643303,0.292274l0.59283,0l0,-0.632211l-0.59283,0c-0.147749,0.146587 -0.34597,0.292274 -0.643303,0.292274c-0.432234,0.004497 -0.786463,-0.334541 -0.791969,-0.758114c0,-0.006295 0,-0.01349 0,-0.018885c0,-0.438861 0.34597,-0.777898 0.791052,-0.777898c0.297333,0 0.494637,0.097125 0.643303,0.291375l0.59283,0l0,-0.63311l-0.59283,0c-0.147749,0.195149 -0.34597,0.292274 -0.643303,0.292274c-0.445081,0 -0.791052,-0.339937 -0.791052,-0.778798s0.34597,-0.777898 0.791052,-0.777898c0.297333,0 0.494637,0.146587 0.643303,0.291375l0.59283,0l0,-0.631312l-0.59283,0c-0.147749,0.19425 -0.34597,0.292274 -0.643303,0.292274c-0.445081,0 -0.791052,-0.339937 -0.791052,-0.730235c0,-0.437961 0.34597,-0.778798 0.791052,-0.778798c0.297333,0 0.494637,0.097125 0.643303,0.292274l0.59283,0l2.37499,-1.166398c1.731687,0.389399 3.019211,0.292274 4.897729,-0.485624c2.228159,-0.925384 4.602232,-0.634909 6.977222,0.970349l0,0z" fill="#FFFFFF"/>
   <path stroke="#000000" id="svg_64" d="m27.29984,30.838711c2.324517,-1.604359 4.700425,-1.895734 6.976304,-0.972148c1.831716,0.776999 3.116486,0.874124 4.848173,0.485624l2.426381,1.166398l0.544192,0c0.156008,-0.190653 0.394608,-0.298569 0.643303,-0.292274c0.444164,0 0.840607,0.339937 0.840607,0.778798c0,0.388499 -0.396443,0.729336 -0.840607,0.729336c-0.248695,0.006295 -0.487295,-0.101621 -0.643303,-0.292274l-0.544192,0l0,0.631312l0.544192,0c0.149584,-0.144788 0.397361,-0.290475 0.643303,-0.290475c0.444164,0 0.840607,0.339937 0.840607,0.776999c0,0.437961 -0.396443,0.778798 -0.840607,0.778798c-0.248695,0.007194 -0.487295,-0.101621 -0.643303,-0.292274l-0.544192,0l0,0.632211l0.544192,0c0.156008,-0.190653 0.394608,-0.298569 0.643303,-0.292274c0.444164,0 0.840607,0.339937 0.840607,0.777898s-0.396443,0.777898 -0.840607,0.777898c-0.246859,0 -0.493719,-0.145687 -0.643303,-0.292274l-0.544192,0l0,0.63311l0.544192,0c0.156008,-0.190653 0.394608,-0.299468 0.643303,-0.292274c0.444164,0 0.840607,0.339937 0.840607,0.729336c0,0.437961 -0.396443,0.777898 -0.840607,0.777898c-0.248695,0.006295 -0.487295,-0.101621 -0.643303,-0.291375l-0.544192,0l0,0.63401l0.544192,0c0.149584,-0.145687 0.397361,-0.291375 0.643303,-0.291375c0.444164,0 0.840607,0.339937 0.840607,0.778798c0,0.437961 -0.396443,0.777898 -0.840607,0.777898c-0.248695,0.006295 -0.487295,-0.101621 -0.643303,-0.292274l-0.544192,0l0,0.632211l0.544192,0c0.156008,-0.189753 0.394608,-0.29767 0.643303,-0.291375c0.494637,0 0.840607,0.340836 0.840607,0.778798c0,0.388499 -0.346888,0.729336 -0.840607,0.729336c-0.237683,0.001799 -0.468024,-0.085434 -0.643303,-0.243711l-0.544192,0l0,0.632211l0.544192,0c0.156008,-0.189753 0.394608,-0.298569 0.643303,-0.292274c0.494637,0 0.840607,0.339937 0.840607,0.730235c0,0.437062 -0.346888,0.778798 -0.840607,0.778798c-0.248695,0.006295 -0.487295,-0.101621 -0.643303,-0.292274l-0.544192,0c-1.384799,1.167297 -2.820071,1.604359 -4.454483,1.604359c-1.384799,0 -2.226324,-0.195149 -3.116486,-0.777898c-1.434355,-0.973047 -3.213762,-0.973047 -4.650869,0c0.297333,0.146587 0.496472,0.486524 0.496472,0.826461c0,0.535086 -0.445999,0.973047 -0.991109,0.973047l-3.116486,0c-0.546945,-0.001799 -0.989273,-0.437062 -0.989273,-0.973047c0,-0.340836 0.247777,-0.680773 0.544192,-0.826461c-1.434355,-0.973047 -3.215597,-0.973047 -4.700425,0c-0.890162,0.582749 -1.682132,0.777898 -3.066931,0.777898c-1.682132,0 -3.116486,-0.437961 -4.453565,-1.604359l-0.59283,0c-0.15509,0.190653 -0.39369,0.299468 -0.643303,0.292274c-0.445081,0 -0.841525,-0.339937 -0.841525,-0.778798c0,-0.389399 0.396443,-0.730235 0.841525,-0.730235c0.247777,0 0.494637,0.098024 0.643303,0.292274l0.59283,0l0,-0.632211l-0.59283,0c-0.174362,0.158278 -0.404703,0.244611 -0.643303,0.243711c-0.445081,0 -0.841525,-0.339937 -0.841525,-0.729336c0,-0.437961 0.396443,-0.778798 0.841525,-0.778798c0.247777,0 0.494637,0.097125 0.643303,0.291375l0.59283,0l0,-0.632211l-0.59283,0c-0.147749,0.195149 -0.394608,0.292274 -0.643303,0.292274c-0.445081,0 -0.841525,-0.339937 -0.841525,-0.777898c0,-0.437961 0.396443,-0.778798 0.841525,-0.778798c0.247777,0 0.494637,0.146587 0.643303,0.291375l0.59283,0l0,-0.631312l-0.59283,0c-0.147749,0.19425 -0.34597,0.291375 -0.643303,0.291375c-0.432234,0.004497 -0.786463,-0.335441 -0.791969,-0.758114c0,-0.006295 0,-0.01259 0,-0.018885c0,-0.388499 0.34597,-0.729336 0.791052,-0.729336c0.297333,0 0.494637,0.096226 0.643303,0.292274l0.59283,0l0,-0.632211l-0.59283,0c-0.147749,0.146587 -0.34597,0.292274 -0.643303,0.292274c-0.432234,0.004497 -0.786463,-0.334541 -0.791969,-0.758114c0,-0.006295 0,-0.01349 0,-0.018885c0,-0.438861 0.34597,-0.777898 0.791052,-0.777898c0.297333,0 0.494637,0.097125 0.643303,0.292274l0.59283,0l0,-0.63311l-0.59283,0c-0.147749,0.195149 -0.34597,0.292274 -0.643303,0.292274c-0.445081,0 -0.791052,-0.339937 -0.791052,-0.778798c0,-0.438861 0.34597,-0.777898 0.791052,-0.777898c0.297333,0 0.494637,0.146587 0.643303,0.291375l0.59283,0l0,-0.631312l-0.59283,0c-0.147749,0.19425 -0.34597,0.292274 -0.643303,0.292274c-0.445081,0 -0.791052,-0.339937 -0.791052,-0.730235c0,-0.437961 0.34597,-0.777898 0.791052,-0.777898c0.297333,0 0.494637,0.096226 0.643303,0.292274l0.59283,0l2.37499,-1.167297c1.731687,0.389399 3.019211,0.293173 4.897729,-0.485624c2.228159,-0.927183 4.602232,-0.636707 6.977222,0.968551m-1.287524,12.786309l2.523656,0m-1.236133,-12.786309l0,12.787208m12.12181,-12.982357l0,10.356389c-1.48391,0.730235 -2.720043,1.02071 -4.99684,-0.144788c-2.721878,-1.410109 -5.492394,-0.535086 -7.125888,1.117835c-1.632576,-1.652921 -4.453565,-2.528844 -7.12497,-1.117835c-2.325435,1.167297 -3.562485,0.875023 -5.047313,0.144788l0,-10.356389" stroke-miterlimit="2.613" stroke-linecap="round" stroke-width="0.49" fill="none"/>
   <path stroke="#000000" id="svg_65" d="m40.462314,31.032961l0,10.502975c-2.128131,1.312085 -4.206706,1.360647 -5.987031,0.388499c-2.325435,-1.263523 -5.491476,-1.166398 -7.174526,1.702383c-1.682132,-2.868781 -4.898647,-2.965006 -7.174526,-1.702383c-1.781243,0.973047 -3.859818,0.923586 -5.987031,-0.388499l0,-10.502975" stroke-miterlimit="2.613" stroke-linejoin="bevel" stroke-linecap="round" stroke-width="0.49" fill="none"/>
   <path stroke="null" id="svg_66" d="m18.097212,20.773697l0.889245,2.820218l3.067849,0l-2.523656,1.749147l0.89108,2.820218l-2.324517,-1.750946l-2.375908,1.750946l0.890162,-2.820218l-2.473183,-1.749147l3.018293,0l0.940636,-2.820218l0,0z" fill="#FFFFFF"/>
   <path stroke="#000000" id="svg_67" d="m18.097212,20.773697l0.889245,2.820218l3.067849,0l-2.523656,1.749147l0.89108,2.820218l-2.324517,-1.750946l-2.375908,1.750946l0.890162,-2.820218l-2.473183,-1.749147l3.018293,0l0.940636,-2.820218" stroke-miterlimit="2.613" stroke-width="0.49" fill="none"/>
   <path stroke="null" id="svg_68" d="m36.504303,20.725135l0.888327,2.820218l3.069684,0l-2.522739,1.798609l0.889245,2.772555l-2.323599,-1.750046l-2.375908,1.750046l0.890162,-2.772555l-2.474101,-1.798609l3.019211,0l0.939718,-2.820218l0,0z" fill="#FFFFFF"/>
   <path stroke="#000000" id="svg_69" d="m36.504303,20.725135l0.888327,2.820218l3.069684,0l-2.522739,1.798609l0.889245,2.772555l-2.323599,-1.750046l-2.375908,1.750046l0.890162,-2.772555l-2.474101,-1.798609l3.019211,0l0.939718,-2.820218" stroke-miterlimit="2.613" stroke-width="0.49" fill="none"/>
   <path stroke="null" id="svg_70" d="m27.29984,46.884099l0.890162,2.820218l3.069684,0l-2.523656,1.748248l0.889245,2.820218l-2.325435,-1.749147l-2.37499,1.749147l0.89108,-2.820218l-2.474101,-1.748248l3.017375,0l0.940636,-2.820218l0,0z" fill="#FFFFFF"/>
   <path stroke="#000000" id="svg_71" d="m27.29984,46.884099l0.890162,2.820218l3.069684,0l-2.523656,1.748248l0.889245,2.820218l-2.325435,-1.749147l-2.37499,1.749147l0.89108,-2.820218l-2.474101,-1.748248l3.017375,0l0.940636,-2.820218" stroke-miterlimit="2.613" stroke-width="0.49" fill="none"/>
   <path stroke="null" id="svg_72" d="m10.822658,8.327325c0.841525,-1.02071 1.979464,-1.118735 2.473183,-1.118735c3.612958,-0.097125 5.443756,2.527944 5.344645,4.667389c-0.099111,2.43082 -1.930827,2.965006 -2.177686,3.063031c0,0 -0.049555,0.486524 0.34597,1.216759c0.050473,0.048562 0.149584,0.097125 0.050473,0.242812c0,0.048562 -0.099111,0.146587 -0.099111,0.19425c0,0 -0.049555,0.098024 -0.049555,0.195149c0.049555,0.146587 0,0.339937 -0.099111,0.534187c-0.099111,0.196048 0,0.680773 0.048638,1.02161c0,0.097125 -0.048638,0.097125 -0.099111,0.048562c-0.198222,-0.145687 -0.396443,-0.632211 -0.445081,-0.875922c-0.445081,0.146587 -0.939718,0.777898 -1.13794,1.119634c0,0.047663 -0.099111,0.097125 -0.099111,0c0,-0.049462 -0.099111,-0.729336 0.593748,-1.264422c-0.34597,-0.097125 -0.692858,0.049462 -0.939718,0.19425c-0.049555,0 -0.148666,0.049462 -0.049555,-0.047663c0,0 0.198222,-0.487423 1.13794,-0.583649c0,-0.048562 0.198222,-0.339937 0.297333,-0.583649c-0.068827,-0.41368 -0.219329,-0.810273 -0.445081,-1.166398c-0.050473,0 -0.692858,0.048562 -1.187495,0.389399c0,0.048562 -0.049555,0.097125 -0.049555,0.195149l0,0.19425c0,0 -0.049555,0.19425 -0.297333,0.291375c0,0 -0.792887,0.243711 -1.187495,0.438861c0,0 -0.34597,0.144788 -0.59283,0.486524c-0.048638,0.047663 -0.246859,0.388499 -0.544192,0.437062c-0.099111,0.049462 -0.246859,0.098024 -0.346888,0.19425c-0.099111,0.145687 -0.197304,0.242812 -0.297333,0.292274c-0.099111,0.049462 -0.296415,0.292274 -0.445081,0.583649c-0.048638,0.047663 -0.099111,0.145687 -0.099111,0l0,-0.291375c0.099111,-0.389399 0.297333,-0.583649 0.445081,-0.730235c-0.048638,-0.049462 -0.048638,0 -0.148666,-0.049462c-0.246859,0.049462 -1.186577,-0.048562 -1.731687,0.19425c0,0.048562 -0.049555,0.048562 0,-0.049462c0.099111,-0.096226 0.297333,-0.631312 1.484828,-0.631312c0.048638,-0.146587 -0.54511,-0.388499 -0.791969,-0.388499c-0.099111,0 -0.048638,-0.049462 0,-0.098024c0.048638,0 0.59283,-0.242812 1.23705,0.146587c0,0 0.445081,-0.146587 0.692858,-0.146587c0.297333,-0.242812 0.939718,-0.875023 1.187495,-0.973047l0,-0.340836c-0.346888,-0.486524 -0.396443,-1.166398 -0.396443,-1.555796c-0.692858,-0.049462 -1.435272,-0.680773 -1.830798,-1.166398c-0.54511,-0.049462 -1.533465,-0.486524 -2.077657,-1.555796c-1.831716,1.312085 -3.019211,3.64578 -3.118322,3.743804c-0.049555,0.047663 -0.049555,0.047663 -0.099111,0c-0.198222,-0.340836 -0.247777,-0.923586 -0.148666,-1.070172c0.34597,-0.973047 1.188413,-2.285132 2.128131,-3.45153c-0.34597,-1.945195 1.48391,-2.625069 2.226324,-2.577406c0.745167,-0.000899 1.239804,0.484725 1.337997,0.631312l0,0z"/>
   <path stroke="null" id="svg_73" d="m10.674909,9.202348c0,0 0.89108,-1.410109 2.028102,-1.458672c-0.34597,0.291375 -0.396443,0.486524 -0.396443,0.486524l0,0.097125c0,0 0.495554,-0.535086 1.484828,-0.535086c-0.346888,0.243711 -0.495554,0.486524 -0.495554,0.486524l0,0.049462c0,0.047663 0.693776,-0.486524 1.781243,-0.049462c-0.246859,0.049462 -0.59283,0.19425 -0.643303,0.292274c-0.048638,0.049462 0,0.049462 0,0.049462c1.287524,-0.196048 2.474101,1.21496 2.425463,2.478483c0,0.923586 -0.643303,1.847171 -1.880353,2.139445c-0.148666,0.19425 -0.445081,0.972148 -0.445081,0.972148c-0.544192,0.19425 -1.286606,0.679874 -1.385717,0.778798l0,0.049462l-0.049555,-0.098024c-0.198222,-0.339937 -0.198222,-1.459571 -0.247777,-1.604359c-1.23705,0.097125 -1.930827,-1.070172 -2.127213,-1.167297c-1.384799,-0.098024 -2.028102,-1.652921 -2.128131,-1.750046c-1.038829,0.632211 -2.127213,1.944296 -2.819154,2.965006c0,-0.047663 -0.050473,0 0,-0.047663c0.791052,-1.652921 1.730769,-2.480281 2.028102,-2.965006c-0.643303,-1.312984 0.990191,-2.285132 1.682132,-2.188007c0.990191,-0.002698 1.188413,1.018912 1.188413,1.018912l0,0z" fill="#FFFFFF"/>
   <path stroke="null" id="svg_74" d="m8.101698,9.834559c0,-0.19425 0.099111,-0.291375 0.297333,-0.291375c0.147749,0 0.296415,0.096226 0.296415,0.291375c0,0.146587 -0.148666,0.291375 -0.296415,0.291375c-0.198222,0 -0.297333,-0.145687 -0.297333,-0.291375zm17.961092,-1.507234c0.841525,-1.02071 1.928991,-1.118735 2.474101,-1.118735c3.613876,-0.097125 5.443756,2.527944 5.344645,4.667389c-0.100029,2.43082 -1.979464,2.965006 -2.228159,3.063031c0,0 0,0.486524 0.396443,1.216759c0.050473,0.048562 0.100029,0.097125 0.050473,0.242812c-0.052309,0.053958 -0.087181,0.120507 -0.099111,0.19425c-0.050473,0 -0.050473,0.098024 -0.050473,0.195149c0.050473,0.146587 0,0.339937 -0.147749,0.534187c-0.049555,0.196048 0.050473,0.680773 0.100946,1.02161c0,0.097125 -0.051391,0.097125 -0.100946,0.048562c-0.246859,-0.145687 -0.396443,-0.632211 -0.445999,-0.875922c-0.443246,0.146587 -0.937882,0.777898 -1.137022,1.119634c0,0.047663 -0.097275,0.097125 -0.097275,0c-0.050473,-0.049462 -0.100029,-0.729336 0.59283,-1.264422c-0.346888,-0.097125 -0.744249,0.049462 -0.990191,0.19425c0,0 -0.100029,0.049462 -0.050473,-0.047663c0.050473,0 0.246859,-0.487423 1.187495,-0.583649c0,-0.048562 0.199139,-0.339937 0.247777,-0.583649c0,-0.339937 -0.198222,-0.776999 -0.394608,-1.166398c-0.051391,0 -0.693776,0.048562 -1.187495,0.389399c0,0.048562 -0.100029,0.097125 -0.100029,0.195149l0,0.19425c0,0 0,0.19425 -0.247777,0.291375c-0.050473,0 -0.840607,0.243711 -1.187495,0.438861c-0.050473,0 -0.346888,0.144788 -0.644221,0.486524c-0.048638,0.047663 -0.246859,0.388499 -0.494637,0.437062c-0.099111,0.049462 -0.246859,0.098024 -0.34597,0.19425c-0.099111,0.145687 -0.246859,0.242812 -0.297333,0.292274c-0.099111,0.049462 -0.34597,0.292274 -0.494637,0.583649c0,0.047663 -0.049555,0.145687 -0.049555,0l0,-0.291375c0.099111,-0.389399 0.247777,-0.583649 0.445999,-0.730235c-0.099111,-0.049462 -0.099111,0 -0.147749,-0.049462c-0.29825,0.049462 -1.188413,-0.048562 -1.732605,0.19425c-0.048638,0.048562 -0.099111,0.048562 -0.048638,-0.049462c0.099111,-0.096226 0.296415,-0.631312 1.532548,-0.631312c0,-0.146587 -0.544192,-0.388499 -0.840607,-0.388499c-0.049555,0 0,-0.049462 0,-0.098024c0.098193,0 0.59283,-0.242812 1.23705,0.146587c0.048638,0 0.494637,-0.146587 0.691941,-0.146587c0.297333,-0.242812 0.989273,-0.875023 1.237968,-0.973047c0,-0.048562 -0.050473,-0.19425 0,-0.340836l-0.050473,0c-0.296415,-0.486524 -0.395526,-1.166398 -0.346888,-1.555796c-0.692858,-0.049462 -1.48391,-0.680773 -1.880353,-1.166398c-0.494637,-0.049462 -1.48391,-0.486524 -2.028102,-1.555796c-1.831716,1.312085 -3.066931,3.64578 -3.116486,3.743804c-0.049555,0.047663 -0.049555,0.047663 -0.099111,0c-0.198222,-0.340836 -0.247777,-0.923586 -0.198222,-1.070172c0.396443,-0.973047 1.23705,-2.285132 2.177686,-3.45153c-0.395526,-1.945195 1.484828,-2.625069 2.177686,-2.577406c0.741496,-0.000899 1.285688,0.484725 1.384799,0.631312l0,0z"/>
   <path stroke="null" id="svg_75" d="m25.914123,9.202348c0,0 0.890162,-1.410109 1.979464,-1.458672c-0.296415,0.291375 -0.34597,0.486524 -0.34597,0.486524l0,0.097125c0,0 0.494637,-0.535086 1.48391,-0.535086c-0.194551,0.130399 -0.362489,0.295871 -0.494637,0.486524l0,0.049462c0,0.047663 0.693776,-0.486524 1.780325,-0.049462c-0.246859,0.049462 -0.642385,0.19425 -0.692858,0.292274c0,0.049462 0.050473,0.049462 0.050473,0.049462c1.285688,-0.196048 2.425463,1.21496 2.425463,2.478483c-0.050473,0.923586 -0.693776,1.847171 -1.881271,2.139445c-0.197304,0.19425 -0.444164,0.972148 -0.444164,0.972148c-0.59283,0.19425 -1.286606,0.679874 -1.385717,0.778798l0,0.049462l-0.049555,-0.098024c-0.247777,-0.339937 -0.247777,-1.459571 -0.247777,-1.604359c-1.237968,0.097125 -1.979464,-1.070172 -2.127213,-1.167297c-1.435272,-0.098024 -2.028102,-1.652921 -2.128131,-1.750046c-1.088384,0.632211 -2.127213,1.944296 -2.869627,2.965006c0.049555,-0.047663 0,0 0,-0.047663c0.840607,-1.652921 1.781243,-2.480281 2.02902,-2.965006c-0.594665,-1.312984 1.037911,-2.285132 1.730769,-2.188007c0.990191,-0.002698 1.187495,1.018912 1.187495,1.018912l0,0z" fill="#FFFFFF"/>
   <path stroke="null" id="svg_76" d="m23.292274,9.834559c0,-0.19425 0.147749,-0.291375 0.296415,-0.291375c0.198222,0 0.297333,0.096226 0.297333,0.291375c0,0.146587 -0.099111,0.291375 -0.297333,0.291375c-0.148666,0 -0.296415,-0.145687 -0.296415,-0.291375zm17.910619,-1.507234c0.841525,-1.02071 1.929909,-1.118735 2.475019,-1.118735c3.561567,-0.097125 5.393283,2.527944 5.34281,4.667389c-0.100029,2.43082 -1.979464,2.965006 -2.227241,3.063031c0,0 -0.050473,0.486524 0.394608,1.216759c0,0.048562 0.100029,0.097125 0.050473,0.242812c-0.050473,0.048562 -0.099111,0.146587 -0.146831,0.19425c0,0 -0.050473,0.098024 0,0.195149c0.048638,0.146587 0,0.339937 -0.149584,0.534187c-0.099111,0.196048 0.050473,0.680773 0.100029,1.02161c0,0.097125 -0.050473,0.097125 -0.100029,0.048562c-0.247777,-0.145687 -0.396443,-0.632211 -0.493719,-0.875922c-0.396443,0.146587 -0.939718,0.777898 -1.088384,1.119634c0,0.047663 -0.099111,0.097125 -0.148666,0c0,-0.049462 -0.050473,-0.729336 0.643303,-1.264422c-0.346888,-0.097125 -0.744249,0.049462 -0.991109,0.19425c0,0 -0.098193,0.049462 -0.048638,-0.047663c0,0 0.247777,-0.487423 1.13794,-0.583649c0.048638,-0.048562 0.246859,-0.339937 0.29458,-0.583649c0,-0.339937 -0.196386,-0.776999 -0.39369,-1.166398c-0.051391,0 -0.744249,0.048562 -1.188413,0.389399c-0.050473,0.048562 -0.099111,0.097125 -0.099111,0.195149l0,0.19425c0,0 -0.048638,0.19425 -0.247777,0.291375c-0.050473,0 -0.841525,0.243711 -1.188413,0.438861c-0.048638,0 -0.394608,0.144788 -0.64055,0.486524c-0.050473,0.047663 -0.247777,0.388499 -0.544192,0.437062c-0.051391,0.049462 -0.200057,0.098024 -0.299168,0.19425c-0.147749,0.145687 -0.247777,0.242812 -0.34597,0.292274c-0.099111,0.049462 -0.297333,0.292274 -0.445999,0.583649c0,0.047663 -0.050473,0.145687 -0.050473,0c-0.048638,-0.097125 0,-0.291375 0,-0.291375c0.050473,-0.389399 0.248695,-0.583649 0.397361,-0.730235c-0.051391,-0.049462 -0.051391,0 -0.100946,-0.049462c-0.296415,0.049462 -1.18566,-0.048562 -1.731687,0.19425c-0.048638,0.048562 -0.099111,0.048562 -0.048638,-0.049462c0.098193,-0.096226 0.297333,-0.631312 1.532548,-0.631312c0,-0.146587 -0.54511,-0.388499 -0.840607,-0.388499c-0.098193,0 -0.051391,-0.049462 0,-0.098024c0.050473,0 0.59283,-0.242812 1.237968,0.146587c0.050473,0 0.444164,-0.146587 0.692858,-0.146587c0.297333,-0.242812 0.9388,-0.875023 1.23705,-0.973047c0,-0.048562 -0.050473,-0.19425 0,-0.340836l-0.050473,0c-0.34597,-0.486524 -0.394608,-1.166398 -0.34597,-1.555796c-0.743332,-0.049462 -1.484828,-0.680773 -1.881271,-1.166398c-0.493719,-0.049462 -1.48391,-0.486524 -2.027184,-1.555796c-1.880353,1.312085 -3.068766,3.64578 -3.117404,3.743804c-0.050473,0.047663 -0.100029,0.047663 -0.100029,0c-0.197304,-0.340836 -0.247777,-0.923586 -0.197304,-1.070172c0.346888,-0.973047 1.237968,-2.285132 2.128131,-3.45153c-0.347806,-1.945195 1.532548,-2.625069 2.227241,-2.577406c0.743332,-0.000899 1.288441,0.484725 1.387552,0.631312l0,0z"/>
   <path stroke="null" id="svg_77" d="m41.055144,9.202348c0,0 0.840607,-1.410109 1.979464,-1.458672c-0.297333,0.291375 -0.396443,0.486524 -0.396443,0.486524l0,0.097125c0,0 0.54511,-0.535086 1.533465,-0.535086c-0.194551,0.1295 -0.362489,0.294972 -0.493719,0.486524l0,0.049462c0,0.047663 0.691023,-0.486524 1.77849,-0.049462c-0.246859,0.049462 -0.641468,0.19425 -0.691941,0.292274l0,0.049462c1.335244,-0.196048 2.473183,1.21496 2.473183,2.478483c-0.050473,0.923586 -0.693776,1.847171 -1.879436,2.139445c-0.200057,0.19425 -0.445999,0.972148 -0.445999,0.972148c-0.59283,0.19425 -1.285688,0.679874 -1.385717,0.778798c0,0 -0.049555,0 0,0.049462l-0.099111,-0.098024c-0.197304,-0.339937 -0.197304,-1.459571 -0.197304,-1.604359c-1.285688,0.097125 -1.979464,-1.070172 -2.129048,-1.167297c-1.433437,-0.098024 -2.026267,-1.652921 -2.125378,-1.750046c-1.088384,0.632211 -2.128131,1.944296 -2.870544,2.965006c0.050473,-0.047663 0,0 0,-0.047663c0.791052,-1.652921 1.781243,-2.480281 2.02902,-2.965006c-0.593748,-1.312984 0.988356,-2.285132 1.731687,-2.188007c0.989273,-0.002698 1.18933,1.018912 1.18933,1.018912l0,0z" fill="#FFFFFF"/>
   <path stroke="null" id="svg_78" d="m38.433295,9.834559c0,-0.19425 0.147749,-0.291375 0.297333,-0.291375c0.146831,0 0.297333,0.096226 0.297333,0.291375c-0.011012,0.156479 -0.137654,0.280583 -0.297333,0.291375c-0.159679,-0.009892 -0.28632,-0.134896 -0.297333,-0.291375z"/>
  </g>
  <g stroke="null" id="svg_85">
   <path stroke="null" id="svg_57" d="m65.176235,18.957972l-5.691859,0l0,1.385294l2.129108,0l0,6.037101l1.47716,0l0,-6.037101l2.085591,0l0,-1.385294zm6.953045,0l-1.434448,0l0,2.968226l-2.955125,0l0,-2.968226l-1.432837,0l0,7.42148l1.432837,0l0,-3.01855l2.955125,0l0,3.01855l1.434448,0l0,-7.42148zm5.865927,6.037101l-2.868897,0l0,-1.781485l2.650506,0l0,-1.3368l-2.650506,0l0,-1.533522l2.781057,0l0,-1.385294l-4.258217,0l0,7.42148l4.346056,0l0,-1.384379zm8.255331,-6.037101l0,4.156797c0,1.284645 -0.695466,1.829979 -1.47716,1.829979c-0.825211,0 -1.434448,-0.643238 -1.434448,-1.732075l0,-4.255616l-1.47716,0l0,4.207122c0,2.324073 1.216864,3.314092 2.911608,3.314092c1.608516,0 2.954319,-0.83996 2.954319,-3.314092l0,-4.207122l-1.47716,0.000915l0,0l0,0zm8.863763,0l-1.434448,0l0,4.552073l-3.128387,-4.552073l-1.346609,0l0,7.42148l1.433643,0l0,-4.748796l3.258132,4.748796l1.216864,0l0,-7.42148l0.000806,0zm3.127581,0l-1.476354,0l0,7.42148l1.476354,0l0,-7.42148zm7.169824,0l-1.564193,0l-1.47716,4.254701l-1.564193,-4.254701l-1.564193,0l2.823768,7.520299l0.651143,0l2.694829,-7.520299l0,0zm5.344529,6.037101l-2.824574,0l0,-1.781485l2.651312,0l0,-1.3368l-2.651312,0l0,-1.533522l2.781057,0l0,-1.385294l-4.258217,0l0,7.42148l4.301734,0l0,-1.384379zm1.346609,-6.037101l0,7.42148l1.47716,0l0,-3.01855l0.390847,0c0.7825,0 1.042796,1.434704 1.650422,3.01855l1.608516,0c-0.825211,-2.17676 -0.999279,-3.068875 -1.608516,-3.463235c0.696272,-0.395275 0.999279,-0.990019 0.999279,-1.829979c0,-1.087923 -0.69466,-2.128266 -1.912329,-2.128266l-2.605377,0l0,0zm1.47716,1.385294l0.738983,0c0.521398,0 0.825211,0.247962 0.825211,0.84179c0,0.591998 -0.390847,0.840875 -0.825211,0.840875l-0.738983,0l0,-1.682666zm8.646984,-0.890285c-0.738177,-0.395275 -1.346609,-0.592913 -1.998557,-0.592913c-1.347414,0 -2.216142,0.84179 -2.216142,2.127351c0,2.672684 2.997836,2.228 2.997836,3.463235c0,0.395275 -0.303813,0.643238 -0.869534,0.643238c-0.651143,0 -1.173347,-0.247962 -1.997751,-0.939694l0,1.582017c0.564915,0.39802 1.086313,0.742971 2.084785,0.742971c1.303092,0 2.260465,-0.840875 2.260465,-2.274664c0,-2.572951 -2.955125,-2.22617 -2.955125,-3.365331c0,-0.395275 0.303813,-0.591998 0.825211,-0.591998c0.521398,0 0.999279,0.147313 1.868006,0.642323l0,-1.435619l0.000806,0l0,-0.000915zm3.128387,-0.495009l-1.433643,0l0,7.42148l1.433643,0l0,-7.42148zm7.039274,0l-5.692665,0l0,1.385294l2.129108,0l0,6.037101l1.434448,0l0,-6.037101l2.129108,0l0,-1.385294zm2.736734,7.42148l1.477965,0l0,-3.463235l2.301564,-3.958245l-1.737456,0l-1.303092,2.326818l-1.260381,-2.326818l-1.780972,0l2.30237,3.958245l0,3.463235l0,0zm13.688506,-3.709368c0,-1.781485 -1.12983,-3.810016 -3.345972,-3.810016s-3.346778,2.028532 -3.346778,3.810016c0,1.880303 1.216058,3.809101 3.346778,3.809101c2.127497,-0.00183 3.345972,-1.929713 3.345972,-3.809101l0,0zm-1.479577,0c0,1.33497 -0.738177,2.274664 -1.866395,2.274664c-1.087924,0 -1.826101,-0.939694 -1.826101,-2.274664c0,-1.3368 0.738177,-2.276494 1.826101,-2.276494c1.127412,-0.000915 1.866395,0.939694 1.866395,2.276494zm6.605716,-3.712113l-3.997921,0l0,7.42148l1.433643,0l0,-3.068875l2.564278,0l0,-1.33497l-2.564278,0l0,-1.633256l2.564278,0l0,-1.384379zm6.560587,0l-1.694744,0l-2.391016,7.42148l1.564999,0l0.433558,-1.485028l2.606989,0l0.477881,1.485028l1.564193,0l-2.56186,-7.42148zm0.08784,4.651807l-1.780972,0l0.868728,-2.870322l0.912245,2.870322zm7.559866,-4.651807l0,4.156797c0,1.284645 -0.696272,1.829979 -1.47716,1.829979c-0.869534,0 -1.47716,-0.643238 -1.47716,-1.732075l0,-4.255616l-1.434448,0l0,4.207122c0,2.324073 1.216058,3.314092 2.911608,3.314092c1.606099,0 2.909996,-0.83996 2.909996,-3.314092l0,-4.207122l-1.432837,0.000915l0,0l0,0zm8.385076,5.146816c-0.823599,0.544419 -1.345803,0.83996 -2.129108,0.83996c-1.216058,0 -2.086397,-0.939694 -2.086397,-2.274664c0,-1.3368 0.870339,-2.276494 2.131526,-2.276494c0.737371,0 1.38932,0.346781 1.997751,0.793296l0,-1.684496c-0.564915,-0.395275 -1.304703,-0.642323 -2.087203,-0.642323c-2.259659,0 -3.519234,1.881218 -3.519234,3.810016c0,1.927883 1.130635,3.809101 3.391101,3.809101c0.867922,0 1.47716,-0.199468 2.300759,-0.742971l0,-1.631426l0.000806,0zm6.475165,-5.146816l-1.60771,0l-1.867201,3.363502l0,-3.363502l-1.47716,0l0,7.42148l1.47716,0l0,-3.463235l2.300759,3.463235l1.825295,0l-2.563472,-3.958245l1.912329,-3.463235l0,0zm5.995672,6.037101l-2.998642,0l0,-6.037101l-1.476354,0l0,7.42148l4.474996,0l0,-1.384379zm4.474996,-6.037101l-1.694744,0l-2.39021,7.42148l1.564193,0l0.434364,-1.485028l2.606183,0l0.478687,1.485028l1.563388,0l-2.56186,-7.42148zm0.08784,4.651807l-1.781778,0l0.868728,-2.870322l0.913051,2.870322zm9.297321,-4.651807l-1.432837,0l0,4.552073l-3.129193,-4.552073l-1.347414,0l0,7.42148l1.477965,0l0,-4.748796l3.215421,4.748796l1.216058,0l0,-7.42148zm1.521482,0l0,7.42148l2.432921,0c2.346693,0 3.390295,-1.582932 3.390295,-3.710283c0,-2.028532 -1.087924,-3.712113 -3.214615,-3.712113l-2.608601,0l0,0.000915zm1.47716,1.385294l0.912245,0c1.391737,0 1.955846,1.038513 1.955846,2.326818c0,1.087008 -0.43517,2.324988 -1.912329,2.324988l-0.955762,0l0,-4.651807l0,0z"/>
   <path stroke="null" id="svg_58" d="m210.648646,29.880271l0,14.099074l-151.381049,0l0,-14.099074l151.381049,0z"/>
   <path stroke="null" id="svg_82" d="m107.540822,33.750607l-1.390127,0l0,4.252872l-2.911607,-4.252872l-1.259574,0l0,6.925556l1.390125,0l0,-4.452339l2.998642,4.452339l1.173346,0l0,-6.925556l-0.000805,0zm5.475079,5.687575l-2.650506,0l0,-1.67992l2.476438,0l0,-1.287391l-2.476438,0l0,-1.434702l2.606989,0l0,-1.284645l-3.997921,0l0,6.925556l4.041437,0l0,-1.238897l0,0zm5.343725,-3.164948l1.695549,4.500834l0.564109,0l2.432922,-7.02346l-1.477159,0l-1.259574,3.858512l-1.434449,-3.858512l-1.085507,0l-1.390931,3.858512l-1.303091,-3.858512l-1.434449,0l2.39021,7.02346l0.607627,0l1.694745,-4.500834l0,0zm12.644904,-2.522626l-5.083426,0l0,1.284645l2.78025,0l-2.997835,5.64091l5.301818,0l0,-1.238895l-2.955125,0l2.954319,-5.686661l0,0zm5.126139,5.687575l-2.649701,0l0,-1.67992l2.477245,0l0,-1.287391l-2.477245,0l0,-1.434702l2.606183,0l0,-1.284645l-3.997114,0l0,6.925556l4.040632,0l0,-1.238897l0,0zm4.476607,-5.687575l-1.606099,0l-2.173431,6.925556l1.434449,0l0.39004,-1.3368l2.476438,0l0.433558,1.3368l1.478772,0l-2.433727,-6.925556zm0.130551,4.353521l-1.695551,0l0.7825,-2.672685l0.913051,2.672685l0,0zm7.298763,1.334054l-2.780252,0l0,-5.687575l-1.390931,0l0,6.925556l4.171183,0l0,-1.237981l0,0zm4.170377,-5.687575l-1.563388,0l-2.215337,6.925556l1.432837,0l0.435975,-1.3368l2.432922,0l0.477881,1.3368l1.432837,0l-2.433727,-6.925556zm0.132162,4.353521l-1.695549,0l0.826017,-2.672685l0.869533,2.672685zm8.689696,-4.353521l-1.348221,0l0,4.252872l-2.909995,-4.252872l-1.260381,0l0,6.925556l1.34822,0l0,-4.452339l3.042158,4.452339l1.128219,0l0,-6.925556zm1.432837,0l0,6.925556l2.25966,0c2.217753,0 3.217032,-1.433788 3.217032,-3.46232c0,-1.880303 -1.044407,-3.463236 -3.042158,-3.463236l-2.434533,0l0,0zm1.390931,1.284645l0.867922,0c1.303897,0 1.780973,0.990019 1.780973,2.17859c0,1.037598 -0.389235,2.224339 -1.780973,2.224339l-0.867922,0l0,-4.402929z" fill="#FFFFFF"/>
  </g>
 </g>
</svg>