<svg width="222" height="62" xmlns="http://www.w3.org/2000/svg" xmlns:xlink="http://www.w3.org/1999/xlink">
 <defs>
  <clipPath id="clip630">
   <path id="path2182" d="m402,-711.88983l41,0l0,32l-41,0l0,-32zm0,0"/>
  </clipPath>
  <clipPath id="clip631">
   <path id="path2185" d="m428.99609,-684.26092c-4.73828,-0.42969 -9.33984,-0.61719 -13.59765,-0.61719c-4.40235,0 -8.4375,0.20312 -11.8711,0.55469c-0.34765,1.26172 -0.64062,2.48047 -0.8789,3.64062l0,0.004c3.40234,-0.48828 7.89843,-0.77344 12.94922,-0.77344c5.21875,0 11.02734,0.30469 16.85546,1.01172c1.44141,-9.26953 4.75782,-22.72266 9.89454,-31.15234c-1.41016,-0.11719 -2.8125,-0.21094 -4.19922,-0.28516c-4.46485,8.32422 -7.4961,18.30469 -9.15235,27.61719"/>
  </clipPath>
  <clipPath id="clip632">
   <path id="path2365" d="m400,-715.88983l40,0l0,32l-40,0l0,-32zm0,0"/>
  </clipPath>
  <clipPath id="clip633">
   <path id="path2368" d="m432.26562,-709.3703l-0.19921,-0.01953c-0.1211,0 -0.2461,0.01563 -0.3711,0.04297l-4.70703,5.19922l-0.99219,2.61328l-0.10547,0.16016l-0.55859,0.0625l-0.70312,0.11718c-0.0586,0.08203 -0.13672,0.11328 -0.23438,0.11328c-0.0898,0 -0.19141,-0.02733 -0.30469,-0.06641l0.0899,0.20704c-0.26953,-0.11719 -0.73828,-0.44532 -1.04688,-0.52735l-0.14453,-0.0078l-0.043,0l-0.0742,0.01563l-0.0234,0.08594l-0.0547,-0.02734l-0.0156,0.13281c-0.0273,-0.06641 -0.0898,-0.10937 -0.1875,-0.125l-0.22265,0.07813l-0.0391,-0.02344l-0.0117,-0.03125l-0.20313,0.05859c-0.39844,0.14063 -0.78125,0.57032 -0.91406,0.57032l-0.008,0c-0.0391,-0.0039 -0.0899,-0.07031 -0.14063,-0.16407l-0.0273,0.0039l-0.008,0c-0.11718,-0.01172 -0.4375,-0.57031 -0.48437,-0.875c-0.17188,-0.04297 -0.35156,-0.09375 -0.37891,-0.25l-0.004,-0.01563c-0.0937,0 -0.76953,4.34375 -2.57422,5.63282c-1.85938,1.32812 -3.96875,2.33984 -4.75391,2.64062c-0.77734,0.30469 -0.32422,0.83985 -1.33594,1.67579c-1.00781,0.83984 -2.5039,2.15625 -1.98828,2.64062c0.0195,0.0156 -0.19531,0.85938 0.0391,0.95703c-2.875,0.0703 -5.53907,0.23438 -7.90625,0.47266c-0.37891,1.41015 -0.70704,2.76953 -0.96875,4.05078c0.89843,-0.12891 1.85546,-0.24609 2.86718,-0.35156c3.4336,-0.35157 7.46875,-0.55469 11.8711,-0.55469c4.25781,0 8.85937,0.1875 13.59765,0.61719c1.65625,-9.3125 4.6875,-19.29297 9.15235,-27.61719c0.57422,-1.0625 1.17187,-2.10157 1.78906,-3.10938c-1.56641,-0.1289 -3.11719,-0.23047 -4.64453,-0.30859c-1.07813,1.88281 -2.125,3.92969 -3.02735,5.92578"/>
  </clipPath>
  <clipPath id="clip634">
   <path id="path2708" d="m398,-717.88983l39,0l0,31l-39,0l0,-31zm0,0"/>
  </clipPath>
  <clipPath id="clip635">
   <path id="path2711" d="m419.70703,-717.60077c0.0508,0.05859 0.1875,0.15235 0.35547,0.34766c0.26953,0.32422 0.82031,1.08203 0.82422,1.32422c0,0.21484 -0.2461,0.14844 -0.0586,0.39844l0.0274,0.03516l0.0781,0.08984c0.36328,0.40234 1.60157,2.04687 1.78516,2.32421c0.0898,0.13672 0.17969,0.1875 0.25,0.1875l0.12891,-0.14062l0.0195,-0.02734c0.0508,0 0.20312,0.17578 0.23828,0.3125l0.004,0.02344l-0.13671,0.08594l0,0.0039l0.0234,0.06641c0.0899,0.17578 0.41797,0.55859 0.69922,1.23047c0.36328,0.86719 0.69922,1.34765 0.60938,2.1914c-0.0859,0.84375 -0.26563,2.05469 -0.98828,2.37891c-0.73047,0.32422 -1.32032,0.41016 -1.27344,1.01172c0.0508,0.60156 0.77734,0.64062 1.28125,1l0.0664,0.04297l0,-0.0078l0.23438,0.05859l-0.0156,0.05078c0.47266,0.17969 1.03907,0.15625 1.26563,0.65234c0.17187,0.3711 0.0977,0.9336 -0.0898,1.41797l0.0312,0.0039l-0.10547,0.23438l-0.0274,-0.0039c-0.10156,0.20703 -0.21875,0.38672 -0.34765,0.52343c-0.28125,0.30469 -0.46094,0.4961 -0.4961,0.63672c0.11328,0.03906 0.21485,0.06641 0.30469,0.06641c0.0977,0 0.17578,-0.03125 0.23438,-0.11328l0.70312,-0.11719l0.55859,-0.0625l0.10547,-0.16015l0.99219,-2.61328l4.70703,-5.19922c0.125,-0.02734 0.25,-0.04297 0.3711,-0.04297l0.19921,0.01953c0.90235,-1.99609 1.94922,-4.04297 3.02735,-5.92578c0.3789,-0.65625 0.76172,-1.29297 1.14453,-1.90235c-4.13281,-0.33984 -8.15234,-0.49218 -11.89063,-0.49218c-1.67578,0 -3.29296,0.03125 -4.83984,0.08984m-0.76172,15.59375c-0.33203,0.14843 0.46875,1.1875 -0.23828,1.6875c-0.70703,0.5 -1.0625,0.40625 -1.11328,0.66406c-0.0547,0.25781 -0.31641,1.62891 -2.22266,2.98828c-1.90234,1.35547 -2.97656,2.19922 -3.77343,2.50391c-0.66016,0.25781 -0.875,0.95702 -1.50782,1.67577l0.0742,-0.004c0.25391,-0.0117 0.51172,-0.0234 0.55469,-0.0234l0.004,0c0.0976,0 0.17968,0.0781 0.17968,0.17969c0.004,0.10156 -0.0781,0.18359 -0.17968,0.18359c-0.0391,0 -0.29297,0.0156 -0.54297,0.0234c-0.23828,0.0117 -0.47266,0.0234 -0.51172,0.0234c-2.98047,0.0664 -6.98438,0.3125 -9.99219,0.59375c-0.36339,1.33216 -0.67589,2.62122 -0.92589,3.83606c0.90234,-0.1289 1.86328,-0.24609 2.87891,-0.34765c2.36718,-0.23828 5.03125,-0.40235 7.90625,-0.47266c-0.23438,-0.0977 -0.0195,-0.9414 -0.0391,-0.95703c-0.51562,-0.48437 0.98047,-1.80078 1.98828,-2.64062c1.01172,-0.83594 0.5586,-1.3711 1.33594,-1.67579c0.78516,-0.30078 2.89453,-1.3125 4.75391,-2.64062c1.80469,-1.28906 2.48047,-5.63281 2.57422,-5.63281l0.004,0.01563c0.0274,0.15625 0.20703,0.20703 0.37891,0.25l-0.008,-0.07031c0,-0.26954 -0.64453,-0.14063 -0.69922,-0.46094c-0.0586,-0.32031 -0.26563,-0.25391 0.043,-0.26953l-0.1211,-0.0078c-0.45703,0 -0.44922,0.41796 -0.80078,0.57812m2.9961,0.55859c-0.38672,0.13672 -0.73829,0.5 -0.89063,0.54297c0.0508,0.09375 0.10156,0.16016 0.14063,0.16407l0.008,0c0.13281,0 0.51562,-0.42969 0.91406,-0.57032l0.20313,-0.05859l-0.0977,-0.15234c-0.0508,0 -0.13281,0.02344 -0.27734,0.07422m1.03906,-0.03516l-0.0352,0.0078l0.043,0l0.14453,0.0078l-0.12109,-0.01953l-0.03124,0.00393zm-0.3086,0.06641l-0.082,0.02344c0.0977,0.01563 0.16016,0.05859 0.1875,0.125l0.0156,-0.13281l-0.0547,-0.02734l-0.0664,0.01171zm0,0"/>
  </clipPath>
  <clipPath id="clip636">
   <path id="path2873" d="m396,-719.88983l30,0l0,29l-30,0l0,-29zm0,0"/>
  </clipPath>
  <clipPath id="clip637">
   <path id="path2876" d="m409.53906,-719.03045c-5.4375,5.3789 -10.74219,18.35937 -12.65625,27.46484c0.73438,-0.10547 1.6875,-0.21094 2.77344,-0.30859c0.36719,-1.58204 0.82422,-3.26954 1.37109,-5.01954c-0.96875,0.07422 -1.91797,0.16407 -2.84765,0.26172l0.0742,-0.25c0.92968,-0.09766 1.88281,-0.18359 2.85156,-0.26172c0.53515,-1.6914 1.14844,-3.4375 1.83594,-5.20312c-1.00391,0.08203 -1.98047,0.17187 -2.9336,0.27344l0.0937,-0.25c0.95703,-0.10157 1.9336,-0.19532 2.9375,-0.26953c0.61719,-1.56641 1.28125,-3.14063 2.01172,-4.70313c-1.03125,0.07813 -2.03516,0.17188 -3.01562,0.27734l0.11718,-0.2539c0.98047,-0.10156 1.98438,-0.19531 3.01563,-0.27344c0.69922,-1.48047 1.44922,-2.94141 2.23828,-4.36719c-1.06641,0.08984 -2.10156,0.19922 -3.10547,0.31641l0.14063,-0.25781c1.00781,-0.11719 2.03906,-0.22657 3.10546,-0.3125c0.78516,-1.39844 1.60938,-2.75782 2.47266,-4.05078c-1.04687,0.08203 -2.05859,0.17968 -3.05469,0.28906c0.0664,-0.08984 0.12891,-0.17578 0.19532,-0.26563c0.98437,-0.10937 1.99218,-0.20312 3.02734,-0.28125c0.66406,-0.98047 1.35937,-1.91797 2.07031,-2.8164c0.10938,-0.0078 0.21485,-0.01563 0.32422,-0.02344c-0.71875,0.89453 -1.41406,1.83593 -2.08594,2.82031c1.19141,-0.08984 2.41407,-0.15625 3.66016,-0.21094c0.65625,-0.99219 1.32812,-1.9375 2.00781,-2.82812c0.10938,-0.0078 0.21485,-0.01172 0.32031,-0.01953c-0.6914,0.89453 -1.37109,1.83984 -2.03515,2.83984c1.10547,-0.04297 2.23047,-0.07422 3.36719,-0.08984c0.49218,-0.80469 0.99218,-1.58594 1.5,-2.35156l0.14062,0.22265c-0.45703,0.69532 -0.91016,1.40235 -1.35547,2.125c0.27735,-0.0039 0.55078,-0.0039 0.82813,-0.0039c0.48828,0 0.98437,0.0039 1.47656,0.0078l0.16016,0.23047c-0.16797,-0.25781 -0.3711,-0.51953 -0.50391,-0.67969c-0.16797,-0.19531 -0.30469,-0.28906 -0.35547,-0.34765l0.0156,-0.08984l0.13281,-0.02734l0.0703,0.0039l0.13672,0c-0.0937,-0.35157 -0.69141,-1.42188 -0.94141,-1.71875c-0.0859,-0.10157 -0.17187,-0.16016 -0.24218,-0.19922c-3.28516,0.07813 -6.76563,0.30078 -9.33985,0.60156m11.03125,2.46484c-0.48437,-0.0039 -0.96484,-0.0039 -1.44922,-0.0039c-0.39062,0 -0.78125,0 -1.16797,0.0039c-0.78515,1.29688 -1.53515,2.64063 -2.25781,4.01172c0.71094,-0.01172 1.42188,-0.01563 2.13672,-0.01563c0.49219,0 0.98828,0.0039 1.48047,0.0078c0.48828,-1.01172 0.99609,-1.99609 1.51562,-2.96875c-0.1875,-0.25 0.0586,-0.18359 0.0586,-0.39843c-0.004,-0.1211 -0.14063,-0.375 -0.31641,-0.63672l-0.004,-0.0078c0,0.0039 0.004,0.0039 0.004,0.0078m-6.27734,0.09766c-0.83985,1.27343 -1.65235,2.62109 -2.4375,4.02734c1.17187,-0.05469 2.36328,-0.08984 3.57031,-0.10937c0.71484,-1.3711 1.46484,-2.71485 2.24609,-4.01172c-1.14453,0.01953 -2.27343,0.04687 -3.3789,0.09375m-3.96875,0.22265c-0.8711,1.29297 -1.69922,2.65625 -2.48828,4.05469c1.21484,-0.09766 2.46093,-0.17969 3.73828,-0.23828c0.77734,-1.40625 1.58984,-2.75391 2.42187,-4.02734c-1.25,0.05078 -2.48047,0.12109 -3.67187,0.21093m10.60937,0.83985l-0.0781,-0.08984l0.0781,0.08984zm0.008,0.0078c-0.004,0 -0.008,-0.0039 -0.008,-0.0078l0.008,0.0078zm0.043,0.05078l-0.043,-0.05078c0.0117,0.01562 0.0273,0.03516 0.043,0.05078m0.0117,0.01172c-0.48437,0.91015 -0.96093,1.83203 -1.41797,2.77734c1.15625,0.01563 2.32032,0.04297 3.48829,0.08203c0.0664,-0.14453 0.14062,-0.28516 0.20703,-0.43359l0.082,0.16015c-0.0352,-0.13672 -0.1875,-0.3125 -0.23828,-0.3125l-0.0195,0.02734l-0.12891,0.14063c-0.0703,0 -0.16016,-0.05078 -0.25,-0.1875c-0.17188,-0.26563 -1.29297,-1.75391 -1.72266,-2.25391l-0.0117,-0.01172c0.004,0.0039 0.008,0.0078 0.0117,0.01172m2.22657,2.69922l0,-0.0039l0,0.0039zm0.0273,0.07422c0,-0.0039 -0.004,-0.0039 -0.004,-0.0078c0,0.0039 0.004,0.0039 0.004,0.0078m0.22656,0.34766l-0.25781,-0.01563c-0.66016,1.44531 -1.27734,2.93359 -1.84375,4.43359c0.95703,0.03516 1.92187,0.08984 2.88281,0.14453l-0.0976,0.23828c-0.96094,-0.05469 -1.92188,-0.10937 -2.87891,-0.14453c-0.58594,1.56641 -1.12109,3.14453 -1.60156,4.70703l0.10547,0.0078l-0.004,0c1.12891,0.04687 2.04687,0.08594 3.19531,0.16016c0.19141,-0.62109 0.45703,-1.41797 0.66406,-2.03125l-0.0664,-0.04297c-0.50391,-0.35938 -1.23047,-0.39844 -1.28125,-1c-0.0469,-0.60156 0.54297,-0.6875 1.27344,-1.01172c0.72265,-0.32422 0.90234,-1.53516 0.98828,-2.37891c0.0898,-0.84375 -0.2461,-1.32421 -0.60938,-2.1914c-0.16015,-0.37891 -0.33203,-0.66797 -0.46875,-0.875c-0.10156,-0.15625 -0.1875,-0.27344 -0.22656,-0.34766c0.0391,0.07813 0.12109,0.19141 0.22656,0.34766m-7.90625,-0.09766c-0.7539,1.44922 -1.46875,2.92578 -2.13672,4.41406c0.64063,-0.0078 1.28125,-0.01172 1.92578,-0.01172c0.6211,0 1.24219,0.0039 1.86329,0.01172c0.62109,-1.49609 1.28125,-2.97656 1.97656,-4.42578c-0.46485,-0.0039 -0.92969,-0.0039 -1.38672,-0.0039c-0.75391,0 -1.5,0.0039 -2.24219,0.01563m1.91406,4.41797c1.20313,0.01563 2.41797,0.04297 3.63672,0.08984c0.56641,-1.50391 1.17969,-2.98828 1.83985,-4.4336c-1.17188,-0.03906 -2.33985,-0.06641 -3.4961,-0.08203c-0.69531,1.44922 -1.35937,2.92969 -1.98047,4.42579m-5.76562,-4.30079c-0.78125,1.41797 -1.52734,2.89063 -2.23438,4.40235c1.21094,-0.05078 2.4375,-0.08594 3.6836,-0.10156c0.66406,-1.49219 1.3789,-2.96485 2.13281,-4.41407c-1.21484,0.02344 -2.41016,0.05859 -3.58203,0.11328m-4.02344,0.25782c-0.79687,1.42578 -1.55078,2.88672 -2.25,4.37109c1.22656,-0.08984 2.48828,-0.16016 3.76953,-0.21875c0.70313,-1.50781 1.44532,-2.98047 2.21875,-4.39453c-1.27734,0.0625 -2.52343,0.14062 -3.73828,0.24219m5.62891,4.28125c-0.69531,1.5625 -1.33203,3.13281 -1.91016,4.69531c0.66406,-0.0078 1.33203,-0.01563 2.00781,-0.01563c0.64063,0 1.28516,0.0078 1.9336,0.01563c0.53906,-1.56641 1.1289,-3.13672 1.76953,-4.69922c-0.58984,-0.0078 -1.17578,-0.01172 -1.75781,-0.01172c-0.6875,0 -1.36719,0.0078 -2.04297,0.01563m2.28515,4.69531c1.26563,0.01953 2.53907,0.05078 3.82422,0.10157c0.47657,-1.56641 1.00782,-3.14063 1.59375,-4.70704c-1.22265,-0.04687 -2.4375,-0.07422 -3.64453,-0.08984c-0.64062,1.5586 -1.23437,3.13282 -1.77344,4.69532m-6.23438,-4.5859c-0.71484,1.53516 -1.38672,3.10156 -2.00391,4.69531c1.24219,-0.05469 2.50391,-0.08594 3.78516,-0.10547c0.57812,-1.5625 1.21094,-3.13281 1.90234,-4.69531c-1.24609,0.01953 -2.47656,0.05469 -3.68359,0.10547m-4.05078,0.23047c-0.73047,1.55859 -1.40235,3.13281 -2.01953,4.69922c1.23828,-0.09375 2.50781,-0.16797 3.80468,-0.22266c0.61329,-1.59375 1.28516,-3.16015 1.99219,-4.69922c-1.28515,0.05859 -2.54687,0.12891 -3.77734,0.22266m17.89844,4.64844c0.38671,0.02344 1.39843,0.09375 1.8125,0.125c0.1875,-0.48438 0.26171,-1.04688 0.0898,-1.41797c-0.22656,-0.4961 -0.79297,-0.47266 -1.26563,-0.65235c-0.19921,0.59766 -0.45312,1.35157 -0.63671,1.94532m-3.44532,-0.14453l0.004,-0.03125l-0.004,0.03125zm0,0zm-0.0156,0.03125l0,-0.00391l0,0.00391zm0,0.0039zm-0.0117,0.03125zm-0.28516,0.13281c0.0117,-0.09766 0.22657,-0.07031 0.28516,-0.13281c-0.0586,0.0625 -0.27344,0.03516 -0.28516,0.13281m-8.14062,-0.10547c-0.64453,1.75 -1.20703,3.48047 -1.67969,5.16797c0.99609,-0.01953 2,-0.02734 3.01172,-0.02734c0.34766,0 0.69922,0.0039 1.05078,0.0039c0.44531,-1.6836 0.97266,-3.41016 1.56641,-5.14844c-0.6211,-0.0078 -1.24219,-0.01172 -1.85547,-0.01172c-0.70313,0 -1.39844,0.0039 -2.09375,0.01563m2.6289,5.14844c0.78907,0.0039 1.59375,0.02734 2.39063,0.04688l-0.23047,0.23437c-0.74219,-0.01562 -1.48828,-0.03516 -2.22266,-0.04297c-0.18359,0.70703 -0.35156,1.40235 -0.50781,2.08985c-0.0976,0.07031 -0.19922,0.14062 -0.29297,0.20703c0.16797,-0.75782 0.34766,-1.51953 0.55469,-2.29688c-0.35547,-0.0039 -0.70703,-0.0039 -1.05859,-0.0039c-1.01172,0 -2.01563,0.0078 -3.00782,0.02734c-0.46484,1.6836 -0.83984,3.32032 -1.10546,4.8711c0.41015,-0.0156 0.80468,-0.0234 1.1875,-0.0352c0.0351,0 0.22265,-0.008 0.42968,-0.0156c0.63282,-0.71875 0.84766,-1.41796 1.50782,-1.67578c0.79687,-0.30468 1.87109,-1.14843 3.77343,-2.5039c1.90625,-1.35938 2.16797,-2.73047 2.22266,-2.98828c0.0508,-0.25782 0.40625,-0.16407 1.11328,-0.66407c0.70703,-0.5 -0.0937,-1.53906 0.23828,-1.6875c0.35156,-0.16015 0.34375,-0.57812 0.80078,-0.57812l0.1211,0.0078c-0.3086,0.01563 -0.10157,-0.05078 -0.043,0.26953c0.0547,0.32031 0.69922,0.19141 0.69922,0.46094l0.008,0.07031c0.0469,0.30469 0.36719,0.86328 0.48437,0.875l0.008,0l0.0273,-0.0039c0.15234,-0.04297 0.50391,-0.40625 0.89063,-0.54297c0.14453,-0.05078 0.22656,-0.07422 0.27734,-0.07422l0.0977,0.15234l0.0117,0.03125l0.0391,0.02344l0.22265,-0.07813l0.082,-0.02344l0.0664,-0.01172l-0.11328,-0.05469c0.0937,-0.32031 0.17969,-0.64453 0.27734,-0.96094c-1.17187,-0.07422 -2.27343,-0.12109 -3.4375,-0.16796l-0.0586,0l0.0586,0l-0.0586,0l-0.0625,0.04297l0.0156,-0.05078c-1.28515,-0.04687 -2.5625,-0.08203 -3.83203,-0.09766c-0.59765,1.73828 -1.125,3.46484 -1.57422,5.14843m-6.67578,-5.03515c-0.66015,1.71484 -1.2539,3.45312 -1.78125,5.1875c1.27735,-0.05859 2.57813,-0.10156 3.89844,-0.12891c0.46875,-1.6875 1.03125,-3.41797 1.67188,-5.17187c-1.28125,0.02344 -2.54688,0.05859 -3.78907,0.11328m-4.07031,0.23828c-0.69141,1.76562 -1.30469,3.50781 -1.84375,5.19922c1.26172,-0.09375 2.55469,-0.17578 3.875,-0.23828c0.52734,-1.73438 1.12109,-3.47266 1.78125,-5.19141c-1.30078,0.05859 -2.57422,0.13672 -3.8125,0.23047m19.66406,0.90625l0.0742,-0.01563l0.0352,-0.0078l0.0312,-0.0039l0.12109,0.01953c0.3086,0.08203 0.77735,0.41016 1.04688,0.52734l-0.0899,-0.20703c0.0352,-0.14062 0.21485,-0.33203 0.4961,-0.63672c0.1289,-0.13672 0.24609,-0.3164 0.34765,-0.52343c-0.40625,-0.03125 -1.41015,-0.09766 -1.78515,-0.1211c-0.0977,0.32031 -0.1836,0.64453 -0.27735,0.96875m-17.45312,4.28516c-0.5,1.66406 -0.9336,3.32421 -1.29297,4.95703c1.39453,-0.0898 2.80469,-0.16407 4.10156,-0.21094c0.26563,-1.55469 0.63672,-3.1875 1.09766,-4.875c-1.32031,0.02734 -2.625,0.07031 -3.90625,0.12891m-4.13281,0.25781c-0.54688,1.75 -1.00782,3.4375 -1.375,5.01562c1.21484,-0.10937 2.57812,-0.21484 3.96484,-0.30078c0.35937,-1.63281 0.78516,-3.29296 1.28516,-4.95703c-1.31641,0.0625 -2.60938,0.14453 -3.875,0.24219"/>
  </clipPath>
  <clipPath id="clip638">
   <path id="path3288" d="m423,-704.88983l2,0l0,3l-2,0l0,-3zm0,0"/>
  </clipPath>
  <clipPath id="clip639">
   <path id="path3291" d="m424.44062,-703.91405l0.21875,0.10156l0.0156,-0.05078l-0.23438,-0.05859l0.00003,0.00781zm1.29297,2.40625l0.0274,0.0039l0.10547,-0.23437l-0.0312,-0.0039l-0.10167,0.23437zm0,0"/>
  </clipPath>
  <clipPath id="clip640">
   <path id="path3295" d="m419,-704.88983l6,0l0,4l-6,0l0,-4zm0,0"/>
  </clipPath>
  <clipPath id="clip641">
   <path id="path3298" d="m423.77656,-701.8828c-1.14844,-0.07422 -2.0664,-0.11328 -3.19531,-0.16015l-0.004,0.03125l-0.0156,0.02733l0,0.0078l-0.0117,0.03125c-0.0586,0.0625 -0.27344,0.03517 -0.28516,0.13282c1.16407,0.04687 2.26563,0.09375 3.4375,0.16797c-0.0976,0.3164 -0.18359,0.64062 -0.27734,0.96093l0.11328,0.05469l0.0508,-0.01172l0.082,-0.01953c0.0937,-0.32422 0.17969,-0.64843 0.27735,-0.96875c0.375,0.02344 1.3789,0.08984 1.78515,0.1211l0.10157,-0.23438c-0.41407,-0.03125 -1.42579,-0.10156 -1.8125,-0.125c0.18359,-0.59375 0.4375,-1.34765 0.63671,-1.94531l-0.21875,-0.10156c-0.20703,0.61328 -0.47265,1.41015 -0.66406,2.03125"/>
  </clipPath>
  <clipPath id="clip642">
   <path id="path3302" d="m421,-715.88983l3,0l0,4l-3,0l0,-4zm0,0"/>
  </clipPath>
  <clipPath id="clip643">
   <path id="path3305" d="m421.65547,-714.6953l-0.0274,-0.03516l0.0274,0.03516zm2.39459,2.89063zm-2.39459,-2.88673zm0,0zm0.0234,0.06641l-0.0234,-0.06641l0.0234,0.06641zm0,0"/>
  </clipPath>
  <clipPath id="clip644">
   <path id="path3309" d="m398,-719.88983l27,0l0,28l-27,0l0,-28zm0,0"/>
  </clipPath>
  <clipPath id="clip645">
   <path id="path3312" d="m416.96406,-718.73436c-0.67969,0.89062 -1.35156,1.83594 -2.00781,2.82812c-1.24609,0.05469 -2.46875,0.1211 -3.66016,0.21094c0.67188,-0.98437 1.36719,-1.92578 2.08594,-2.82031c-0.10937,0.0078 -0.21484,0.01563 -0.32422,0.02344c-0.71094,0.89844 -1.40625,1.83594 -2.07031,2.8164c-1.03516,0.07813 -2.04297,0.17188 -3.02734,0.28125c-0.0664,0.08984 -0.12891,0.17579 -0.19532,0.26563c0.9961,-0.10938 2.00782,-0.20703 3.05469,-0.28906c-0.86328,1.29297 -1.6875,2.65234 -2.47266,4.05078c-1.0664,0.08594 -2.09765,0.19531 -3.10546,0.3125l-0.14063,0.25781c1.00391,-0.11719 2.03906,-0.22656 3.10547,-0.31641c-0.78906,1.42579 -1.53906,2.88672 -2.23828,4.36719c-1.03125,0.07813 -2.03516,0.17188 -3.01563,0.27344l-0.11718,0.25391c0.98046,-0.10547 1.98437,-0.19922 3.01562,-0.27735c-0.73047,1.5625 -1.39453,3.13672 -2.01172,4.70313c-1.0039,0.07422 -1.98047,0.16797 -2.9375,0.26953l-0.0937,0.25c0.95313,-0.10156 1.92969,-0.19141 2.9336,-0.27344c-0.6875,1.76563 -1.30079,3.51172 -1.83594,5.20313c-0.96875,0.07813 -1.92188,0.16406 -2.85156,0.26171l-0.0742,0.25c0.92968,-0.09766 1.8789,-0.1875 2.84765,-0.26171c-0.54687,1.75 -1.0039,3.43749 -1.37109,5.01953l0.25391,-0.0273c0.36718,-1.57812 0.82812,-3.26562 1.375,-5.01562c1.26562,-0.09766 2.55859,-0.17969 3.875,-0.24219c-0.5,1.66406 -0.92579,3.32422 -1.28516,4.95703l0.25,-0.0156c0.35937,-1.63282 0.79297,-3.29297 1.29297,-4.95703c1.28125,-0.05859 2.58594,-0.10157 3.90625,-0.12891c-0.46094,1.6875 -0.83203,3.32031 -1.09766,4.875l0.2461,-0.008c0.26562,-1.55078 0.64062,-3.1875 1.10546,-4.8711c0.99219,-0.01953 1.9961,-0.02734 3.00782,-0.02734c0.35156,0 0.70312,0 1.05859,0.0039c-0.20703,0.77735 -0.38672,1.53907 -0.55469,2.29688c0.0937,-0.06641 0.19532,-0.13672 0.29297,-0.20703c0.15625,-0.6875 0.32422,-1.38281 0.50781,-2.08985c0.73438,0.0078 1.48047,0.02734 2.22266,0.04297l0.23047,-0.23437c-0.79688,-0.01953 -1.60156,-0.04297 -2.39063,-0.04688c0.44922,-1.68359 0.97657,-3.41016 1.57422,-5.14844c1.26953,0.01563 2.54688,0.05078 3.83203,0.09766l-0.0156,0.05078l0.0625,-0.04297c0.11719,-0.08594 0.24219,-0.16797 0.37109,-0.23047l0.008,0l-0.10547,-0.0078c0.48047,-1.5625 1.01562,-3.14062 1.60156,-4.70703c0.95703,0.03516 1.91797,0.08984 2.87891,0.14453l0.0976,-0.23828c-0.96094,-0.05469 -1.92578,-0.10937 -2.88281,-0.14453c0.56641,-1.5 1.18359,-2.98828 1.84375,-4.43359l0.25781,0.01563c-0.10547,-0.16406 -0.1914,-0.27734 -0.23047,-0.35547l-0.0234,-0.06641l0,-0.0039l0.13671,-0.08594l-0.004,-0.02344l-0.082,-0.16016c-0.0664,0.14844 -0.14063,0.28907 -0.20703,0.4336c-1.16797,-0.03906 -2.33204,-0.06641 -3.48829,-0.08203c0.45704,-0.94532 0.9336,-1.86719 1.41797,-2.77735l-0.0625,-0.07031l-0.0781,-0.08984l-0.0274,-0.03516c-0.51953,0.97266 -1.02734,1.95703 -1.51562,2.96875c-0.49219,-0.0039 -0.98828,-0.0078 -1.48047,-0.0078c-0.71484,0 -1.42578,0.0039 -2.13672,0.01563c0.72266,-1.37109 1.47266,-2.71484 2.25781,-4.01172c0.38672,-0.0039 0.77735,-0.0039 1.16797,-0.0039c0.48438,0 0.96485,0 1.44922,0.0039l-0.16406,-0.23828c-0.49219,-0.0039 -0.98828,-0.0078 -1.47656,-0.0078c-0.27735,0 -0.55078,0 -0.82813,0.0039c0.44531,-0.72265 0.89844,-1.42968 1.35547,-2.125l-0.14062,-0.22265c-0.50782,0.76562 -1.00782,1.54687 -1.5,2.35156c-1.13672,0.01562 -2.26172,0.04687 -3.36719,0.08984c0.66406,-1 1.34375,-1.94531 2.03515,-2.83984c-0.10546,0.0078 -0.21093,0.01172 -0.32031,0.01953m-1.87109,3.0664c1.10547,-0.04687 2.23437,-0.07422 3.3789,-0.09375c-0.78125,1.29688 -1.53125,2.64063 -2.24609,4.01172c-1.20703,0.01953 -2.39844,0.05469 -3.57031,0.10938c0.78515,-1.40625 1.59765,-2.75391 2.4375,-4.02735m-3.96875,0.22266c1.1914,-0.08984 2.42187,-0.16016 3.67187,-0.21094c-0.83203,1.27344 -1.64453,2.6211 -2.42187,4.02735c-1.27735,0.05859 -2.52344,0.14062 -3.73828,0.23828c0.78906,-1.39844 1.61718,-2.76172 2.48828,-4.05469m5.24609,3.93359c0.74219,-0.01172 1.48828,-0.01563 2.24219,-0.01563c0.45703,0 0.92187,0 1.38672,0.0039c-0.69531,1.44922 -1.35547,2.92969 -1.97656,4.42578c-0.6211,-0.0078 -1.24219,-0.01172 -1.86329,-0.01172c-0.64453,0 -1.28515,0.0039 -1.92578,0.01172c0.66797,-1.48828 1.38282,-2.96484 2.13672,-4.41406m1.91406,4.41797c0.6211,-1.49609 1.28516,-2.97656 1.98047,-4.42578c1.15625,0.01563 2.32422,0.04297 3.4961,0.08203c-0.66016,1.44531 -1.27344,2.92969 -1.83985,4.43359c-1.21875,-0.04688 -2.43359,-0.07422 -3.63672,-0.08984m-5.76562,-4.30078c1.17187,-0.05469 2.36719,-0.08984 3.58203,-0.11328c-0.75391,1.44922 -1.46875,2.92188 -2.13281,4.41406c-1.2461,0.01563 -2.47266,0.05078 -3.6836,0.10157c0.70704,-1.51172 1.45313,-2.98438 2.23438,-4.40235m-4.02344,0.25781c1.21485,-0.10156 2.46094,-0.17968 3.73828,-0.24218c-0.77343,1.41406 -1.51562,2.88672 -2.21875,4.39453c-1.28125,0.05859 -2.54297,0.1289 -3.76953,0.21875c0.69922,-1.48438 1.45313,-2.94531 2.25,-4.3711m5.62891,4.28125c0.67578,-0.0078 1.35547,-0.01563 2.04297,-0.01563c0.58203,0 1.16797,0.0039 1.75781,0.01172c-0.64063,1.5625 -1.23047,3.13282 -1.76953,4.69922c-0.64844,-0.0078 -1.29297,-0.01563 -1.9336,-0.01563c-0.67578,0 -1.34375,0.0078 -2.00781,0.01563c0.57813,-1.5625 1.21485,-3.13281 1.91016,-4.69531m2.28515,4.69531c0.53907,-1.5625 1.13282,-3.13672 1.77344,-4.69531c1.20703,0.01563 2.42188,0.04297 3.64453,0.08984c-0.58593,1.56641 -1.11718,3.14062 -1.59375,4.70703c-1.28515,-0.05078 -2.55859,-0.08203 -3.82422,-0.10156m-6.23452,-4.58584c1.20703,-0.05078 2.4375,-0.08594 3.68359,-0.10547c-0.6914,1.5625 -1.32422,3.13281 -1.90234,4.69531c-1.28125,0.01953 -2.54297,0.05078 -3.78516,0.10547c0.61719,-1.59375 1.28907,-3.16015 2.00391,-4.69531m-4.05078,0.23047c1.23047,-0.09375 2.49219,-0.16406 3.77734,-0.22266c-0.70703,1.53907 -1.3789,3.10547 -1.99219,4.69922c-1.29687,0.05469 -2.5664,0.12891 -3.80468,0.22266c0.61718,-1.56641 1.28906,-3.14063 2.01953,-4.69922m6,4.59766c0.69531,-0.01172 1.39062,-0.01564 2.09375,-0.01564c0.61328,0 1.23437,0.0039 1.85547,0.01172c-0.59375,1.73829 -1.1211,3.46485 -1.56641,5.14844c-0.35156,0 -0.70312,-0.0039 -1.05078,-0.0039c-1.01172,0 -2.01563,0.0078 -3.01172,0.02734c0.47266,-1.6875 1.03516,-3.41797 1.67969,-5.16797m-4.04688,0.11328c1.24219,-0.05469 2.50782,-0.08984 3.78907,-0.11328c-0.64063,1.75391 -1.20313,3.48438 -1.67188,5.17188c-1.32031,0.02734 -2.62109,0.07031 -3.89844,0.1289c0.52735,-1.73437 1.1211,-3.47265 1.78125,-5.1875m-4.07031,0.23829c1.23828,-0.09375 2.51172,-0.17188 3.8125,-0.23047c-0.66016,1.71875 -1.25391,3.45703 -1.78125,5.1914c-1.32031,0.0625 -2.61328,0.14453 -3.875,0.23828c0.53906,-1.6914 1.15234,-3.43359 1.84375,-5.19921"/>
  </clipPath>
  <clipPath id="clip646">
   <path id="path3316" d="m399,-692.88983l10,0l0,1l-10,0l0,-1zm0,0"/>
  </clipPath>
  <clipPath id="clip647">
   <path id="path3319" d="m409.02656,-691.62889l-0.0312,0.18359l0.2461,-0.008l0.0312,-0.18359l-0.2461,0.008zm-4.35156,0.22656l-0.0391,0.18359l0.25,-0.0156l0.0391,-0.18359l-0.25,0.0156zm-4.21875,0.32813l-0.043,0.1875l0.25,-0.0234l0.0469,-0.19141l-0.2539,0.02731zm0,0"/>
  </clipPath>
 </defs>
 <metadata id="metadata12418">image/svg+xml</metadata>
 <g>
  <title>background</title>
  <rect fill="none" id="canvas_background" height="12.455219" width="39.436431" y="-1" x="-1"/>
 </g>
 <g>
  <title>Layer 1</title>
  <g transform="matrix(1.25,0,0,1.2499999,-491.81504,905.04288) " clip-rule="nonzero" id="g6050" clip-path="url(#clip638)">
   <g clip-rule="nonzero" id="g6052" clip-path="url(#clip639)">
    <use height="100%" width="100%" y="1654.27974" x="1.71148" id="use6054" transform="matrix(0.467431,0,0,-0.479417,423.37192,91.779108) " xlink:href="#image11"/>
   </g>
  </g>
  <g transform="matrix(1.25,0,0,1.2499999,-491.81504,905.04288) " clip-rule="nonzero" id="g6056" clip-path="url(#clip640)">
   <g clip-rule="nonzero" id="g6058" clip-path="url(#clip641)">
    <use height="100%" width="100%" y="1696.69926" x="1.72167" id="use6060" transform="matrix(0.464666,0,0,-0.467431,419.20103,92.642011) " xlink:href="#image16"/>
   </g>
  </g>
  <g transform="matrix(1.25,0,0,1.2499999,-491.81504,905.04288) " clip-rule="nonzero" id="g6062" clip-path="url(#clip642)">
   <g clip-rule="nonzero" id="g6064" clip-path="url(#clip643)">
    <use height="100%" width="100%" y="0" x="0" id="use6066" transform="matrix(0.4109289999999999,0,0,-0.431475,421.4392200119209,-711.5223634714433) " xlink:href="#image19"/>
   </g>
  </g>
  <g transform="matrix(1.25,0,0,1.2499999,-491.81504,905.04288) " clip-rule="nonzero" id="g6068" clip-path="url(#clip644)">
   <g clip-rule="nonzero" id="g6070" clip-path="url(#clip645)">
    <use height="100%" width="100%" y="-1.67437" x="1.68373" id="use6072" transform="matrix(0.47513599999999995,0,0,-0.47779199999999994,397.9149,-691.6114715429686) " xlink:href="#image22"/>
   </g>
  </g>
  <g transform="matrix(1.25,0,0,1.2499999,-491.81504,905.04288) " clip-rule="nonzero" id="g6074" clip-path="url(#clip646)">
   <g clip-rule="nonzero" id="g6076" clip-path="url(#clip647)">
    <use height="100%" width="100%" y="0" x="0" id="use6078" transform="matrix(0.4674309999999999,0,0,-0.38353399999999993,400.15310001192086,-690.6676614714431) " xlink:href="#image25"/>
   </g>
  </g>
  <style type="text/css">.st0{fill:#000000;}</style>
  <g stroke="null" id="svg_52">
   <g stroke="null" transform="matrix(0.5802507232970799,0,0,0.5678789730977262,0.818243268687183,-12.858369451987642) " id="svg_5">
    <g stroke="null" id="svg_6">
     <path stroke="null" id="svg_7" d="m350.20106,89.68333l0,-16.9c-1.8,-0.3 -3.2,-1.8 -3.2,-3.7c0,-0.2 0,-0.3 0,-0.3c0,-0.1 0,-0.3 -0.1,-0.4c-0.2,-0.2 -0.5,-0.4 -0.7,-0.5l-12.4,-4.8l-0.5,-0.2c-0.3,-0.1 -0.8,-0.3 -1.2,-0.3c-0.5,0.1 -0.7,0.2 -0.8,0.3c-1,1.1 -2.7,1.6 -4.2,1c-1.9,-0.7 -2.9,-2.9 -2.2,-4.8c0.8,-1.9 2.9,-2.9 4.9,-2.2c1.5,0.6 2.4,2 2.4,3.5c0,0.1 0.1,0.5 0.4,0.8c0.2,0.3 0.7,0.5 1,0.6l0.5,0.2l12.2,4.7l0.1,0.1c0.2,0.1 0.6,0.2 0.8,0.1c0,0 0.1,0 0.1,0c-0.1,-0.3 -0.3,-0.6 -0.5,-0.7l-9.5,-9.2l-0.4,-0.4c-0.2,-0.2 -0.6,-0.6 -0.9,-0.7c-0.5,-0.1 -0.8,-0.1 -0.9,0c-1.4,0.7 -3.1,0.4 -4.2,-0.7c-1.5,-1.4 -1.5,-3.8 -0.1,-5.3c1.4,-1.5 3.8,-1.5 5.3,-0.1c1.1,1.1 1.4,2.8 0.8,4.2c0,0.1 -0.1,0.4 0,0.9c0.1,0.3 0.5,0.7 0.8,0.9l0.4,0.4l9.4,9.1l0.1,0.1c0.1,0.1 0.4,0.4 0.7,0.4c0,0 0.1,0 0.1,0c0.1,-0.3 -0.1,-0.7 -0.1,-0.9l-5.2,-12.2l-0.2,-0.5c-0.1,-0.3 -0.3,-0.8 -0.6,-1c-0.4,-0.3 -0.7,-0.4 -0.8,-0.4c-1.5,0.1 -3,-0.8 -3.6,-2.3c-0.8,-1.9 0.1,-4.1 2,-4.9c1.9,-0.8 4.1,0.1 4.9,2c0.6,1.5 0.2,3.1 -0.9,4.2c-0.1,0.1 -0.3,0.4 -0.3,0.9c0,0.4 0.2,0.8 0.3,1.2l0.2,0.5l5.1,12.1l0.1,0.1c0.1,0.2 0.3,0.5 0.5,0.7c0,0 0.1,0 0.1,0c0.2,-0.3 0.2,-0.7 0.2,-0.9l0,-13.1l0,-0.6c0,-0.3 0,-0.9 -0.2,-1.2c-0.2,-0.4 -0.5,-0.6 -0.6,-0.7c-1.4,-0.5 -2.4,-1.9 -2.4,-3.5c0,-2.1 1.7,-3.8 3.8,-3.8c2.1,0 3.7,1.7 3.7,3.8c0,1.6 -1,2.9 -2.4,3.5c-0.1,0.1 -0.4,0.2 -0.6,0.7c-0.2,0.3 -0.2,0.9 -0.2,1.2l0,0.5l0,13.1l0,0.2c0,0.2 0,0.6 0.2,0.8c0.1,0 0.1,0 0.1,0c0.2,-0.2 0.4,-0.5 0.5,-0.7l0.1,-0.1l5.1,-12.1l0.2,-0.5c0.1,-0.3 0.3,-0.8 0.3,-1.2c0,-0.5 -0.2,-0.8 -0.3,-0.9c-1.1,-1.1 -1.5,-2.7 -0.9,-4.2c0.8,-1.9 3,-2.8 4.9,-2c1.9,0.8 2.8,3 2,4.9c-0.6,1.5 -2.1,2.4 -3.6,2.3c-0.1,0 -0.5,0.1 -0.8,0.4c-0.3,0.2 -0.5,0.7 -0.6,1l-0.2,0.5l-5.2,12.2c-0.1,0.2 -0.2,0.5 -0.2,0.8c0,0.1 0.1,0 0.1,0c0.3,-0.1 0.6,-0.3 0.7,-0.4l0.1,-0.1l9.4,-9.1l0.4,-0.4c0.2,-0.2 0.6,-0.6 0.7,-0.9c0.2,-0.5 0.1,-0.8 0,-0.9c-0.6,-1.4 -0.3,-3.1 0.8,-4.2c1.5,-1.4 3.9,-1.4 5.3,0.1c1.4,1.5 1.4,3.9 -0.1,5.3c-1.2,1.1 -2.9,1.3 -4.2,0.7c-0.1,0 -0.4,-0.1 -0.9,0c-0.3,0.1 -0.7,0.5 -1,0.7l-0.4,0.4l-9.5,9.2c-0.1,0.1 -0.4,0.4 -0.5,0.7c0,0.1 0.1,0.1 0.1,0.1c0.3,0.1 0.7,-0.1 0.8,-0.1l0.1,-0.1l12.2,-4.7l0.5,-0.2c0.3,-0.1 0.8,-0.3 1,-0.6c0.3,-0.4 0.4,-0.7 0.4,-0.8c0,-1.6 0.9,-3 2.4,-3.5c1.9,-0.7 4.1,0.2 4.9,2.2c0.7,1.9 -0.2,4.1 -2.2,4.8c-1.5,0.6 -3.2,0.1 -4.2,-1c-0.1,-0.1 -0.4,-0.3 -0.8,-0.3c-0.3,0 -0.8,0.1 -1.1,0.3l-0.5,0.2l-12.4,4.8c-0.2,0.1 -0.5,0.2 -0.7,0.5c-0.1,0.1 -0.1,0.3 -0.1,0.5c0,0.1 0,0.2 0,0.2l0,0.1c0,1.9 -1.4,3.5 -3.2,3.7l0,16.8l-0.7,0z" class="st0"/>
     <path stroke="null" id="svg_8" d="m352.30106,77.98333c2.5,-5.1 7.5,-8.8 13,-10.2c3.3,-0.7 7.9,-0.9 10.2,2.2c-8.1,1.2 -15.9,4.4 -23.2,8m-3.3,0.7c-5.6,2.2 -12.6,1.3 -17.9,-1.1c-2.6,-1.3 -6.7,-3.7 -5.4,-7.2c8.1,1.6 16,4.8 23.3,8.3m0.3,-0.7c-7.3,-3.6 -15.1,-6.8 -23.2,-8.1c2.3,-3.1 6.9,-2.8 10.2,-2.2c5.4,1.5 10.5,5.2 13,10.3m3.3,0.7c7.4,-3.5 15.2,-6.8 23.3,-8.2c1.3,3.5 -2.8,5.9 -5.4,7.2c-5.4,2.3 -12.4,3.2 -17.9,1" class="st0"/>
     <path stroke="null" id="svg_9" d="m359.00106,89.38333c0.7,-0.6 1.3,-1.3 1.8,-2.1c0.5,0.8 1.1,1.5 1.8,2.1c2.2,1.9 5.5,3 8.2,3c1.9,0 4.1,-0.5 6,-1.5l0,2.9c-2,0.8 -4.2,1.2 -6,1.2c-3.1,0 -7.1,-1.2 -10,-3.7c-2.8,2.5 -6.9,3.7 -10,3.7c-3.1,0 -7.1,-1.2 -10,-3.7c-2.9,2.5 -6.9,3.7 -10,3.7c-1.8,0 -4,-0.4 -6,-1.2l0,-2.9c1.9,1 4.1,1.5 6,1.5c2.7,0 6,-1.1 8.2,-3c0.7,-0.6 1.3,-1.3 1.8,-2.1c0.4,0.8 1.1,1.5 1.8,2.1c2.2,1.9 5.5,3 8.2,3c2.6,0 5.9,-1 8.2,-3m17.8,13.5c-2,0.8 -4.2,1.2 -6,1.2c-3.1,0 -7.1,-1.1 -10,-3.5c-2.9,2.4 -6.9,3.5 -10,3.5c-3.1,0 -7.1,-1.1 -10,-3.5c-2.9,2.4 -6.9,3.5 -10,3.5c-1.8,0 -4,-0.4 -6,-1.2l0,-2.8c1.9,0.8 3.9,1.3 6,1.3c3.6,0 7.3,-1.4 10,-3.8c2.7,2.4 6.3,3.8 10,3.8c3.6,0 7.3,-1.4 10,-3.8c2.7,2.4 6.3,3.8 10,3.8c2.1,0 4.1,-0.5 6,-1.3l0,2.8zm0,-4.6c-2,0.8 -4.2,1.2 -6,1.2c-3.1,0 -7.1,-1.1 -10,-3.5c-2.9,2.4 -6.9,3.5 -10,3.5c-3.1,0 -7.1,-1.1 -10,-3.5c-2.9,2.4 -6.9,3.5 -10,3.5c-1.8,0 -4,-0.4 -6,-1.2l0,-2.8c1.9,0.8 3.9,1.3 6,1.3c3.6,0 7.3,-1.4 10,-3.8c2.7,2.4 6.3,3.8 10,3.8c3.6,0 7.3,-1.4 10,-3.8c2.7,2.4 6.3,3.8 10,3.8c2.1,0 4.1,-0.5 6,-1.3l0,2.8z" class="st0"/>
    </g>
    <g stroke="null" id="svg_10">
     <g stroke="null" id="svg_11">
      <path stroke="null" id="svg_12" d="m0.90106,104.08333l8.1,-13.2l2.2,0l2.3,13.2l-1.8,0l-0.7,-3.8l-5.7,0l-2.3,3.8l-2.1,0zm5.2,-5.2l4.7,0l-0.6,-3.3c-0.2,-1.3 -0.3,-2.4 -0.4,-3.3c-0.3,0.8 -0.8,1.7 -1.4,2.7l-2.3,3.9z" class="st0"/>
      <path stroke="null" id="svg_13" d="m15.20106,104.08333l2.2,-9.5l1.6,0l-0.4,1.7c0.7,-0.7 1.3,-1.1 1.9,-1.4c0.6,-0.3 1.2,-0.5 1.8,-0.5c0.8,0 1.5,0.2 2,0.6c0.5,0.4 0.7,1 0.7,1.7c0,0.4 -0.1,0.9 -0.3,1.7l-1.3,5.8l-1.8,0l1.4,-6.1c0.1,-0.6 0.2,-1 0.2,-1.3c0,-0.3 -0.1,-0.6 -0.4,-0.8c-0.2,-0.2 -0.6,-0.3 -1,-0.3c-0.9,0 -1.7,0.3 -2.4,0.9c-0.7,0.6 -1.2,1.6 -1.5,3.1l-1,4.4l-1.7,0z" class="st0"/>
     </g>
     <g stroke="null" id="svg_14">
      <path stroke="null" id="svg_15" d="m30.10106,104.08333l8.1,-13.2l2.2,0l2.3,13.2l-1.8,0l-0.7,-3.8l-5.8,0l-2.3,3.8l-2,0zm5.1,-5.2l4.7,0l-0.5,-3.3c-0.2,-1.3 -0.3,-2.4 -0.4,-3.3c-0.3,0.8 -0.8,1.7 -1.4,2.7l-2.4,3.9z" class="st0"/>
      <path stroke="null" id="svg_16" d="m51.40106,102.38333c-1.2,1.3 -2.5,1.9 -3.8,1.9c-0.8,0 -1.4,-0.2 -1.9,-0.6c-0.5,-0.4 -0.7,-0.9 -0.7,-1.6c0,-0.4 0.1,-1.1 0.3,-2.1l1.2,-5.5l1.8,0l-1.4,6.1c-0.1,0.5 -0.2,0.9 -0.2,1.2c0,0.4 0.1,0.6 0.4,0.8c0.2,0.2 0.6,0.3 1,0.3c0.5,0 1,-0.1 1.4,-0.3c0.5,-0.2 0.9,-0.5 1.2,-0.9c0.3,-0.4 0.6,-0.8 0.8,-1.3c0.1,-0.3 0.3,-0.9 0.5,-1.7l0.9,-4.1l1.8,0l-2.2,9.5l-1.6,0l0.5,-1.7z" class="st0"/>
      <path stroke="null" id="svg_17" d="m62.60106,100.58333l1.8,0.2c-0.4,1.2 -1.1,2.1 -1.9,2.7c-0.8,0.6 -1.7,0.9 -2.8,0.9c-1.1,0 -2,-0.3 -2.7,-1c-0.7,-0.7 -1,-1.6 -1,-2.8c0,-1 0.2,-2.1 0.7,-3.1c0.4,-1 1.1,-1.8 1.9,-2.3c0.8,-0.5 1.8,-0.8 2.8,-0.8c1.1,0 2,0.3 2.6,0.9c0.6,0.6 1,1.3 1,2.3l-1.8,0c0,-0.6 -0.2,-1.1 -0.6,-1.4c-0.4,-0.3 -0.9,-0.5 -1.5,-0.5c-0.7,0 -1.3,0.2 -1.8,0.6c-0.5,0.4 -0.9,1 -1.2,1.9c-0.3,0.8 -0.4,1.7 -0.4,2.4c0,0.8 0.2,1.4 0.6,1.8c0.4,0.4 0.9,0.6 1.4,0.6c0.6,0 1.1,-0.2 1.6,-0.6c0.6,-0.4 1,-1 1.3,-1.8z" class="st0"/>
      <path stroke="null" id="svg_18" d="m65.40106,104.08333l3,-13.2l1.7,0l-1.8,8.2l5.1,-4.5l2.3,0l-4.4,3.6l2.7,6l-1.9,0l-2.1,-4.9l-2.1,1.6l-0.7,3.2l-1.8,0z" class="st0"/>
      <path stroke="null" id="svg_19" d="m75.20106,104.08333l3,-13.2l1.7,0l-3,13.2l-1.7,0z" class="st0"/>
      <path stroke="null" id="svg_20" d="m86.70106,102.88333c-0.6,0.5 -1.2,0.8 -1.8,1.1c-0.6,0.2 -1.2,0.3 -1.8,0.3c-1,0 -1.7,-0.3 -2.3,-0.8c-0.6,-0.5 -0.9,-1.2 -0.9,-2c0,-0.5 0.1,-1 0.4,-1.4c0.3,-0.4 0.6,-0.7 1,-1c0.4,-0.3 1,-0.4 1.6,-0.5c0.4,-0.1 1.1,-0.1 2.2,-0.2c1.1,0 1.9,-0.1 2.4,-0.3c0.1,-0.4 0.2,-0.8 0.2,-1.1c0,-0.4 -0.1,-0.7 -0.4,-0.9c-0.4,-0.3 -1,-0.5 -1.8,-0.5c-0.7,0 -1.3,0.2 -1.8,0.5c-0.5,0.3 -0.8,0.7 -1,1.3l-1.8,-0.1c0.4,-0.9 0.9,-1.7 1.7,-2.2c0.8,-0.5 1.8,-0.8 3,-0.8c1.3,0 2.3,0.3 3,0.8c0.6,0.4 0.9,1 0.9,1.6c0,0.5 -0.1,1.1 -0.2,1.8l-0.6,2.4c-0.2,0.8 -0.3,1.4 -0.3,1.8c0,0.3 0.1,0.7 0.2,1.3l-1.7,0c-0.1,-0.2 -0.2,-0.6 -0.2,-1.1zm0.6,-3.7c-0.2,0.1 -0.5,0.2 -0.8,0.2c-0.3,0.1 -0.8,0.1 -1.4,0.2c-1,0.1 -1.7,0.2 -2.2,0.3c-0.4,0.1 -0.7,0.3 -1,0.6c-0.2,0.3 -0.3,0.6 -0.3,0.9c0,0.5 0.2,0.8 0.5,1.1c0.3,0.3 0.8,0.4 1.5,0.4c0.6,0 1.1,-0.1 1.7,-0.4c0.5,-0.3 1,-0.7 1.3,-1.2c0.3,-0.4 0.6,-1.1 0.7,-2.1z" class="st0"/>
      <path stroke="null" id="svg_21" d="m90.80106,104.08333l2.2,-9.5l1.6,0l-0.4,1.7c0.7,-0.7 1.3,-1.1 1.9,-1.4c0.6,-0.3 1.2,-0.5 1.8,-0.5c0.8,0 1.5,0.2 2,0.6c0.5,0.4 0.7,1 0.7,1.7c0,0.4 -0.1,0.9 -0.3,1.7l-1.3,5.8l-1.8,0l1.4,-6.1c0.1,-0.6 0.2,-1 0.2,-1.3c0,-0.3 -0.1,-0.6 -0.4,-0.8c-0.2,-0.2 -0.6,-0.3 -1,-0.3c-0.9,0 -1.7,0.3 -2.4,0.9c-0.7,0.6 -1.2,1.6 -1.5,3.1l-1,4.4l-1.7,0z" class="st0"/>
      <path stroke="null" id="svg_22" d="m108.80106,102.68333c-1,1.1 -2.1,1.6 -3.1,1.6c-1,0 -1.8,-0.3 -2.4,-1c-0.7,-0.7 -1,-1.6 -1,-2.9c0,-1.2 0.3,-2.2 0.8,-3.2c0.5,-1 1.2,-1.7 1.9,-2.2c0.8,-0.5 1.5,-0.7 2.3,-0.7c1.3,0 2.2,0.6 2.9,1.7l1.2,-5.1l1.7,0l-3,13.2l-1.6,0l0.3,-1.4zm-4.8,-2.6c0,0.7 0.1,1.2 0.2,1.6c0.1,0.4 0.4,0.7 0.7,1c0.3,0.3 0.8,0.4 1.2,0.4c0.8,0 1.5,-0.4 2.2,-1.2c0.9,-1 1.3,-2.3 1.3,-3.8c0,-0.8 -0.2,-1.3 -0.6,-1.8c-0.4,-0.4 -1,-0.6 -1.6,-0.6c-0.4,0 -0.8,0.1 -1.2,0.3c-0.3,0.2 -0.7,0.5 -1,0.9c-0.3,0.4 -0.6,0.9 -0.9,1.6c-0.2,0.5 -0.3,1.1 -0.3,1.6z" class="st0"/>
      <path stroke="null" id="svg_23" d="m129.80106,99.38333l1.9,0.2c-0.6,1.5 -1.5,2.7 -2.6,3.5c-1.1,0.8 -2.4,1.2 -3.8,1.2c-1.7,0 -3.1,-0.5 -4.1,-1.5c-1,-1 -1.5,-2.4 -1.5,-4.2c0,-2.4 0.8,-4.3 2.3,-5.9c1.4,-1.4 3.1,-2.1 5.1,-2.1c1.5,0 2.7,0.4 3.7,1.1c0.9,0.7 1.5,1.8 1.6,3l-1.8,0.2c-0.2,-1 -0.6,-1.7 -1.2,-2.1c-0.6,-0.5 -1.3,-0.7 -2.3,-0.7c-1.7,0 -3.1,0.7 -4.2,2.2c-0.9,1.2 -1.4,2.7 -1.4,4.4c0,1.4 0.4,2.4 1.1,3.1c0.7,0.7 1.7,1.1 2.8,1.1c1,0 1.9,-0.3 2.7,-0.9c0.7,-0.6 1.3,-1.5 1.7,-2.6z" class="st0"/>
      <path stroke="null" id="svg_24" d="m133.10106,100.48333c0,-1.9 0.6,-3.4 1.8,-4.6c1,-1 2.3,-1.5 3.8,-1.5c1.2,0 2.2,0.4 3,1.1c0.8,0.7 1.1,1.7 1.1,2.9c0,1.1 -0.2,2.1 -0.7,3.1c-0.5,0.9 -1.2,1.7 -2,2.2c-0.9,0.5 -1.8,0.8 -2.8,0.8c-0.8,0 -1.5,-0.2 -2.2,-0.5c-0.7,-0.3 -1.2,-0.8 -1.5,-1.3c-0.3,-0.8 -0.5,-1.5 -0.5,-2.2zm1.8,-0.2c0,0.9 0.2,1.6 0.7,2c0.5,0.5 1.1,0.7 1.8,0.7c0.4,0 0.7,-0.1 1.1,-0.2c0.4,-0.1 0.7,-0.4 1,-0.6c0.3,-0.3 0.6,-0.6 0.8,-1c0.2,-0.4 0.4,-0.8 0.5,-1.2c0.2,-0.6 0.3,-1.2 0.3,-1.7c0,-0.9 -0.2,-1.5 -0.7,-2c-0.5,-0.5 -1.1,-0.7 -1.8,-0.7c-0.5,0 -1.1,0.1 -1.5,0.4c-0.5,0.2 -0.9,0.6 -1.2,1.1c-0.4,0.5 -0.6,1 -0.8,1.6c-0.1,0.6 -0.2,1.1 -0.2,1.6z" class="st0"/>
      <path stroke="null" id="svg_25" d="m150.90106,102.38333c-1.2,1.3 -2.5,1.9 -3.8,1.9c-0.8,0 -1.4,-0.2 -1.9,-0.6c-0.5,-0.4 -0.7,-0.9 -0.7,-1.6c0,-0.4 0.1,-1.1 0.3,-2.1l1.2,-5.5l1.8,0l-1.4,6.1c-0.1,0.5 -0.2,0.9 -0.2,1.2c0,0.4 0.1,0.6 0.4,0.8c0.2,0.2 0.6,0.3 1,0.3c0.5,0 1,-0.1 1.4,-0.3c0.5,-0.2 0.9,-0.5 1.2,-0.9c0.3,-0.4 0.6,-0.8 0.8,-1.3c0.1,-0.3 0.3,-0.9 0.5,-1.7l0.9,-4.1l1.8,0l-2.2,9.5l-1.6,0l0.5,-1.7z" class="st0"/>
      <path stroke="null" id="svg_26" d="m154.90106,104.08333l2.2,-9.5l1.6,0l-0.4,1.7c0.7,-0.7 1.3,-1.1 1.9,-1.4c0.6,-0.3 1.2,-0.5 1.8,-0.5c0.8,0 1.5,0.2 2,0.6c0.5,0.4 0.7,1 0.7,1.7c0,0.4 -0.1,0.9 -0.3,1.7l-1.3,5.8l-1.8,0l1.4,-6.1c0.1,-0.6 0.2,-1 0.2,-1.3c0,-0.3 -0.1,-0.6 -0.4,-0.8c-0.2,-0.2 -0.6,-0.3 -1,-0.3c-0.9,0 -1.7,0.3 -2.4,0.9c-0.7,0.6 -1.2,1.6 -1.5,3.1l-1,4.4l-1.7,0z" class="st0"/>
      <path stroke="null" id="svg_27" d="m173.10106,100.58333l1.8,0.2c-0.4,1.2 -1.1,2.1 -1.9,2.7c-0.8,0.6 -1.7,0.9 -2.8,0.9c-1.1,0 -2,-0.3 -2.7,-1c-0.7,-0.7 -1,-1.6 -1,-2.8c0,-1 0.2,-2.1 0.7,-3.1c0.4,-1 1.1,-1.8 1.9,-2.3c0.8,-0.5 1.8,-0.8 2.8,-0.8c1.1,0 2,0.3 2.6,0.9c0.6,0.6 1,1.3 1,2.3l-1.7,0.1c0,-0.6 -0.2,-1.1 -0.6,-1.4c-0.4,-0.3 -0.9,-0.5 -1.5,-0.5c-0.7,0 -1.3,0.2 -1.8,0.6c-0.5,0.4 -0.9,1 -1.2,1.9c-0.3,0.8 -0.4,1.7 -0.4,2.4c0,0.8 0.2,1.4 0.6,1.8c0.4,0.4 0.9,0.6 1.4,0.6c0.6,0 1.1,-0.2 1.6,-0.6c0.5,-0.5 0.9,-1.1 1.2,-1.9z" class="st0"/>
      <path stroke="null" id="svg_28" d="m175.80106,104.08333l2.2,-9.5l1.8,0l-2.2,9.5l-1.8,0zm2.6,-11.4l0.4,-1.8l1.7,0l-0.4,1.8l-1.7,0z" class="st0"/>
      <path stroke="null" id="svg_29" d="m180.20106,104.08333l3,-13.2l1.8,0l-3,13.2l-1.8,0z" class="st0"/>
      <path stroke="null" id="svg_30" d="m191.40106,98.58333c0,-2.3 0.7,-4.2 2.2,-5.7c1.5,-1.5 3.2,-2.2 5.3,-2.2c1.8,0 3.2,0.5 4.3,1.6c1.1,1.1 1.7,2.5 1.7,4.3c0,1.3 -0.3,2.5 -0.8,3.6c-0.4,0.8 -1,1.5 -1.6,2.1c-0.6,0.6 -1.3,1.1 -2.1,1.4c-1,0.4 -2,0.6 -3.1,0.6c-1.1,0 -2.2,-0.3 -3.1,-0.8c-0.9,-0.5 -1.6,-1.2 -2.1,-2.1c-0.4,-0.9 -0.7,-1.8 -0.7,-2.8zm1.9,0c0,0.8 0.2,1.5 0.5,2.1c0.3,0.7 0.9,1.2 1.5,1.5c0.7,0.4 1.4,0.6 2.2,0.6c0.7,0 1.4,-0.2 2.1,-0.5c0.7,-0.3 1.3,-0.8 1.8,-1.3c0.5,-0.6 0.9,-1.3 1.2,-2.1c0.3,-0.8 0.5,-1.7 0.5,-2.5c0,-1.3 -0.4,-2.4 -1.2,-3.1c-0.8,-0.8 -1.8,-1.2 -2.9,-1.2c-1.5,0 -2.8,0.6 -3.9,1.8c-1.2,1.2 -1.8,2.8 -1.8,4.7z" class="st0"/>
      <path stroke="null" id="svg_31" d="m205.80106,104.08333l2.2,-9.5l1.6,0l-0.4,2c0.5,-0.7 1,-1.3 1.6,-1.6c0.5,-0.4 1,-0.5 1.6,-0.5c0.3,0 0.8,0.1 1.3,0.4l-0.7,1.5c-0.3,-0.2 -0.6,-0.3 -1,-0.3c-0.6,0 -1.2,0.3 -1.9,1c-0.6,0.6 -1.2,1.8 -1.5,3.4l-0.9,3.8l-1.9,0l0,-0.2z" class="st0"/>
      <path stroke="null" id="svg_32" d="m212.30106,104.88333l1.8,0.2c0,0.4 0,0.7 0.1,0.8c0.1,0.2 0.3,0.3 0.5,0.4c0.3,0.1 0.7,0.2 1.2,0.2c1.1,0 1.8,-0.3 2.3,-0.8c0.3,-0.3 0.6,-1.1 0.8,-2.2l0.2,-0.8c-0.9,0.9 -1.9,1.3 -2.9,1.3c-1,0 -1.9,-0.4 -2.6,-1.1c-0.7,-0.7 -1.1,-1.7 -1.1,-3c0,-1.1 0.3,-2.1 0.8,-3c0.6,-0.9 1.2,-1.6 2,-2c0.8,-0.5 1.5,-0.7 2.4,-0.7c1.4,0 2.4,0.6 3.1,1.8l0.4,-1.6l1.6,0l-2.1,9.2c-0.2,1 -0.5,1.8 -0.9,2.4c-0.4,0.6 -0.9,1 -1.5,1.3c-0.7,0.3 -1.4,0.5 -2.3,0.5c-0.8,0 -1.5,-0.1 -2.1,-0.3c-0.6,-0.2 -1,-0.5 -1.3,-0.9c-0.3,-0.4 -0.4,-0.8 -0.4,-1.3c-0.1,0 0,-0.2 0,-0.4zm2.2,-5c0,0.7 0.1,1.1 0.2,1.5c0.2,0.5 0.5,0.8 0.8,1.1c0.4,0.2 0.8,0.4 1.2,0.4c0.6,0 1.1,-0.2 1.7,-0.6c0.6,-0.4 1,-1 1.4,-1.7c0.4,-0.8 0.5,-1.5 0.5,-2.2c0,-0.8 -0.2,-1.4 -0.7,-1.9c-0.5,-0.5 -1,-0.7 -1.7,-0.7c-0.4,0 -0.8,0.1 -1.2,0.3c-0.4,0.2 -0.8,0.5 -1.1,1c-0.3,0.4 -0.6,1 -0.8,1.6c-0.2,0.4 -0.3,0.8 -0.3,1.2z" class="st0"/>
      <path stroke="null" id="svg_33" d="m230.40106,102.88333c-0.6,0.5 -1.2,0.8 -1.8,1.1s-1.2,0.3 -1.8,0.3c-1,0 -1.7,-0.3 -2.3,-0.8c-0.6,-0.5 -0.9,-1.2 -0.9,-2c0,-0.5 0.1,-1 0.4,-1.4c0.3,-0.4 0.6,-0.7 1,-1c0.4,-0.3 1,-0.4 1.6,-0.5c0.4,-0.1 1.1,-0.1 2.2,-0.2c1.1,0 1.9,-0.1 2.4,-0.3c0.1,-0.4 0.2,-0.8 0.2,-1.1c0,-0.4 -0.1,-0.7 -0.4,-0.9c-0.4,-0.3 -1,-0.5 -1.8,-0.5c-0.7,0 -1.3,0.2 -1.8,0.5c-0.5,0.3 -0.8,0.7 -1,1.3l-1.8,-0.1c0.4,-0.9 0.9,-1.7 1.7,-2.2c0.8,-0.5 1.8,-0.8 3,-0.8c1.3,0 2.3,0.3 3,0.8c0.6,0.4 0.9,1 0.9,1.6c0,0.5 -0.1,1.1 -0.2,1.8l-0.6,2.4c-0.2,0.8 -0.3,1.4 -0.3,1.8c0,0.3 0.1,0.7 0.2,1.3l-1.8,0c0,-0.2 -0.1,-0.6 -0.1,-1.1zm0.6,-3.7c-0.2,0.1 -0.5,0.2 -0.8,0.2c-0.3,0.1 -0.8,0.1 -1.4,0.2c-1,0.1 -1.7,0.2 -2.2,0.3c-0.4,0.1 -0.7,0.3 -1,0.6c-0.2,0.3 -0.3,0.6 -0.3,0.9c0,0.5 0.2,0.8 0.5,1.1c0.3,0.3 0.8,0.4 1.5,0.4c0.6,0 1.1,-0.1 1.7,-0.4c0.5,-0.3 1,-0.7 1.3,-1.2c0.3,-0.4 0.6,-1.1 0.7,-2.1z" class="st0"/>
      <path stroke="null" id="svg_34" d="m234.50106,104.08333l2.2,-9.5l1.6,0l-0.4,1.7c0.7,-0.7 1.3,-1.1 1.9,-1.4c0.6,-0.3 1.2,-0.5 1.8,-0.5c0.8,0 1.5,0.2 2,0.6c0.5,0.4 0.7,1 0.7,1.7c0,0.4 -0.1,0.9 -0.3,1.7l-1.3,5.8l-1.8,0l1.4,-6.1c0.1,-0.6 0.2,-1 0.2,-1.3c0,-0.3 -0.1,-0.6 -0.4,-0.8c-0.2,-0.2 -0.6,-0.3 -1,-0.3c-0.9,0 -1.7,0.3 -2.4,0.9c-0.7,0.6 -1.2,1.6 -1.5,3.1l-1,4.4l-1.7,0z" class="st0"/>
      <path stroke="null" id="svg_35" d="m245.50106,104.08333l2.2,-9.5l1.8,0l-2.2,9.5l-1.8,0zm2.5,-11.4l0.4,-1.8l1.7,0l-0.4,1.8l-1.7,0z" class="st0"/>
      <path stroke="null" id="svg_36" d="m250.10106,100.78333l1.8,-0.1c0,0.5 0.1,0.9 0.2,1.2c0.2,0.3 0.4,0.6 0.9,0.8c0.4,0.2 0.9,0.3 1.5,0.3c0.8,0 1.4,-0.1 1.7,-0.4c0.4,-0.3 0.6,-0.6 0.6,-1c0,-0.3 -0.1,-0.5 -0.3,-0.8c-0.2,-0.3 -0.8,-0.6 -1.8,-0.9c-0.9,-0.4 -1.5,-0.6 -1.8,-0.8c-0.4,-0.2 -0.8,-0.5 -1,-0.9c-0.2,-0.3 -0.3,-0.7 -0.3,-1.1c0,-0.8 0.3,-1.4 1,-1.9c0.6,-0.5 1.6,-0.8 2.7,-0.8c1.3,0 2.3,0.3 3,0.8c0.7,0.6 1,1.3 1.1,2.2l-1.7,0.1c0,-0.6 -0.2,-1 -0.7,-1.4c-0.4,-0.3 -1,-0.5 -1.8,-0.5c-0.6,0 -1.1,0.1 -1.4,0.4c-0.3,0.3 -0.5,0.5 -0.5,0.8c0,0.3 0.1,0.6 0.4,0.8c0.2,0.2 0.7,0.4 1.5,0.7c1.3,0.5 2.2,1 2.5,1.3c0.6,0.5 0.8,1.1 0.8,1.8c0,0.5 -0.2,0.9 -0.5,1.4c-0.3,0.5 -0.8,0.8 -1.4,1.1c-0.6,0.3 -1.4,0.4 -2.3,0.4c-1.2,0 -2.2,-0.3 -3,-0.8c-0.8,-0.6 -1.2,-1.5 -1.2,-2.7z" class="st0"/>
      <path stroke="null" id="svg_37" d="m266.90106,102.88333c-0.6,0.5 -1.2,0.8 -1.8,1.1c-0.6,0.2 -1.2,0.3 -1.8,0.3c-1,0 -1.7,-0.3 -2.3,-0.8c-0.6,-0.5 -0.9,-1.2 -0.9,-2c0,-0.5 0.1,-1 0.4,-1.4c0.3,-0.4 0.6,-0.7 1,-1c0.4,-0.3 1,-0.4 1.6,-0.5c0.4,-0.1 1.1,-0.1 2.2,-0.2c1.1,0 1.9,-0.1 2.4,-0.3c0.1,-0.4 0.2,-0.8 0.2,-1.1c0,-0.4 -0.1,-0.7 -0.4,-0.9c-0.4,-0.3 -1,-0.5 -1.8,-0.5c-0.7,0 -1.3,0.2 -1.8,0.5c-0.5,0.3 -0.8,0.7 -1,1.3l-1.8,-0.1c0.4,-0.9 0.9,-1.7 1.7,-2.2c0.8,-0.5 1.8,-0.8 3,-0.8c1.3,0 2.3,0.3 3,0.8c0.6,0.4 0.9,1 0.9,1.6c0,0.5 -0.1,1.1 -0.2,1.8l-0.6,2.4c-0.2,0.8 -0.3,1.4 -0.3,1.8c0,0.3 0.1,0.7 0.2,1.3l-1.8,0c0,-0.2 -0.1,-0.6 -0.1,-1.1zm0.6,-3.7c-0.2,0.1 -0.5,0.2 -0.8,0.2c-0.3,0.1 -0.8,0.1 -1.4,0.2c-1,0.1 -1.7,0.2 -2.2,0.3c-0.4,0.1 -0.7,0.3 -1,0.6c-0.2,0.3 -0.3,0.6 -0.3,0.9c0,0.5 0.2,0.8 0.5,1.1c0.3,0.3 0.8,0.4 1.5,0.4c0.6,0 1.1,-0.1 1.7,-0.4c0.5,-0.3 1,-0.7 1.3,-1.2c0.3,-0.4 0.5,-1.1 0.7,-2.1z" class="st0"/>
      <path stroke="null" id="svg_38" d="m275.10106,102.78333l-0.3,1.3c-0.4,0.1 -0.8,0.2 -1.2,0.2c-0.7,0 -1.3,-0.2 -1.7,-0.5c-0.3,-0.2 -0.5,-0.6 -0.5,-1c0,-0.2 0.1,-0.7 0.3,-1.4l1.3,-5.5l-1.4,0l0.3,-1.3l1.4,0l0.5,-2.3l2,-1.1l-0.8,3.5l1.7,0l-0.3,1.3l-1.7,0l-1.2,5.3c-0.1,0.7 -0.2,1.1 -0.2,1.2c0,0.2 0.1,0.3 0.2,0.4c0.1,0.1 0.3,0.2 0.6,0.2c0.3,-0.2 0.7,-0.3 1,-0.3z" class="st0"/>
      <path stroke="null" id="svg_39" d="m276.40106,104.08333l2.2,-9.5l1.8,0l-2.2,9.5l-1.8,0zm2.6,-11.4l0.4,-1.8l1.7,0l-0.4,1.8l-1.7,0z" class="st0"/>
      <path stroke="null" id="svg_40" d="m281.20106,100.48333c0,-1.9 0.6,-3.4 1.8,-4.6c1,-1 2.3,-1.5 3.8,-1.5c1.2,0 2.2,0.4 3,1.1c0.8,0.7 1.1,1.7 1.1,2.9c0,1.1 -0.2,2.1 -0.7,3.1c-0.5,0.9 -1.2,1.7 -2,2.2c-0.9,0.5 -1.8,0.8 -2.8,0.8c-0.8,0 -1.5,-0.2 -2.2,-0.5c-0.7,-0.3 -1.2,-0.8 -1.5,-1.3c-0.3,-0.8 -0.5,-1.5 -0.5,-2.2zm1.8,-0.2c0,0.9 0.2,1.6 0.7,2c0.5,0.5 1.1,0.7 1.8,0.7c0.4,0 0.7,-0.1 1.1,-0.2c0.4,-0.1 0.7,-0.4 1,-0.6c0.3,-0.3 0.6,-0.6 0.8,-1c0.2,-0.4 0.4,-0.8 0.5,-1.2c0.2,-0.6 0.3,-1.2 0.3,-1.7c0,-0.9 -0.2,-1.5 -0.7,-2s-1.1,-0.7 -1.8,-0.7c-0.5,0 -1.1,0.1 -1.5,0.4c-0.5,0.2 -0.9,0.6 -1.2,1.1c-0.4,0.5 -0.6,1 -0.8,1.6c-0.1,0.6 -0.2,1.1 -0.2,1.6z" class="st0"/>
      <path stroke="null" id="svg_41" d="m292.00106,104.08333l2.2,-9.5l1.6,0l-0.4,1.7c0.7,-0.7 1.3,-1.1 1.9,-1.4c0.6,-0.3 1.2,-0.5 1.8,-0.5c0.8,0 1.5,0.2 2,0.6c0.5,0.4 0.7,1 0.7,1.7c0,0.4 -0.1,0.9 -0.3,1.7l-1.3,5.8l-1.8,0l1.4,-6.1c0.1,-0.6 0.2,-1 0.2,-1.3c0,-0.3 -0.1,-0.6 -0.4,-0.8c-0.2,-0.2 -0.6,-0.3 -1,-0.3c-0.9,0 -1.7,0.3 -2.4,0.9c-0.7,0.6 -1.2,1.6 -1.5,3.1l-1,4.4l-1.7,0z" class="st0"/>
     </g>
    </g>
    <g stroke="null" id="svg_42">
     <path stroke="null" id="svg_43" d="m156.20106,64.48333c0.1,-2.2 1.5,-6 6.4,-6c3.8,0 5.4,2.1 6.1,6l-12.5,0zm20.3,4.9c0.5,-8.6 -4.1,-16.7 -13.7,-16.7c-8.5,0 -14.4,6.4 -14.4,14.9c0,8.7 5.5,14.8 14.4,14.8c6.4,0 11,-2.8 13.2,-9.5l-6.8,0c-0.5,1.7 -3,3.7 -6.1,3.7c-4.3,0 -6.7,-2.2 -6.9,-7.1l20.3,0l0,-0.1z" class="st0"/>
     <path stroke="null" id="svg_44" d="m283.50106,64.48333c0.1,-2.2 1.5,-6 6.4,-6c3.8,0 5.4,2.1 6.1,6l-12.5,0zm20.3,4.9c0.6,-8.6 -4.1,-16.7 -13.7,-16.7c-8.5,0 -14.4,6.4 -14.4,14.9c0,8.7 5.5,14.8 14.4,14.8c6.4,0 11,-2.8 13.2,-9.5l-6.8,0c-0.5,1.7 -3,3.7 -6.1,3.7c-4.3,0 -6.7,-2.2 -6.9,-7.1l20.3,0l0,-0.1z" class="st0"/>
     <path stroke="null" id="svg_45" d="m179.50106,81.58333l7.7,0l0,-12.7c0,-5 2,-9 7.6,-9c0.9,0 2.1,0.1 2.8,0.3l0,-7.2c-0.5,-0.2 -1.1,-0.3 -1.7,-0.3c-3.8,0 -7.6,2.4 -9,6l-0.1,0l0,-5.2l-7.3,0l0,28.1z" class="st0"/>
     <path stroke="null" id="svg_46" d="m257.30106,81.58333l7.7,0l0,-12.7c0,-5 2,-9 7.6,-9c0.9,0 2.1,0.1 2.8,0.3l0,-7.2c-0.5,-0.2 -1.1,-0.3 -1.7,-0.3c-3.8,0 -7.6,2.4 -9,6l-0.1,0l0,-5.2l-7.3,0l0,28.1z" class="st0"/>
     <path stroke="null" id="svg_47" d="m142.40106,72.58333c0,2.6 0.7,3.3 3.3,3.3c0.8,0 1.6,0 2.4,-0.2c0,0 -0.4,6.3 -4.5,6.3c-4.7,0 -8.9,-1.1 -8.9,-6.7l0,-30.3l7.7,0c0,8.4 0,8.4 0,8.4l5.1,0c3.6,0 0.1,1.8 -0.5,5.2l-4.6,0l0,14z" class="st0"/>
     <path stroke="null" id="svg_48" d="m114.00106,62.18333c0.3,-3 2.2,-4.2 5.1,-4.2c2.7,0 5,0.5 5,3.8c0,3.1 -4.4,3 -9.1,3.7c-4.8,0.7 -9.6,2.2 -9.6,8.5c0,5.8 4.2,8.4 9.6,8.4c3.4,0 7,-0.9 9.4,-3.5c0,3.5 8.4,2.7 8.4,2.7c-0.7,-1.1 -1,-3.7 -1,-6.2l0,-14.6c0,-6.7 -6.7,-8 -12.3,-8c-6.3,0 -12.7,2.2 -13.2,9.4l7.7,0zm10.1,8.6c0,1.7 -0.2,6.5 -6.2,6.5c-2.5,0 -4.7,-0.7 -4.7,-3.6c0,-2.8 2.2,-3.6 4.6,-4.1c2.4,-0.4 5.1,-0.5 6.4,-1.6l0,2.8l-0.1,0z" class="st0"/>
     <path stroke="null" id="svg_49" d="m226.00106,63.18333l-7.5,0c-0.5,-3.1 -2.5,-4.8 -5.7,-4.8c-4.9,0 -6.5,5 -6.5,9.1c0,4 1.6,8.8 6.4,8.8c3.6,0 5.6,-2.3 6.1,-5.7l7.4,0c-1,7.4 -6.1,11.5 -13.5,11.5c-8.4,0 -14.1,-6 -14.1,-14.4c0,-8.7 5.2,-15.2 14.3,-15.2c6.6,0.1 12.6,3.5 13.1,10.7" class="st0"/>
     <path stroke="null" id="svg_50" d="m108.60106,42.78333l-8.4,0l-6.3,26.7l-0.1,0l-6.7,-26.7l-8,0l-6.7,26.4l-0.1,0l-6.2,-26.4l-8.5,0c0,0 9.1,34.4 9.5,35.9c0.9,3.3 9.4,2.9 9.4,2.9l6.5,-26.4l0.1,0c0,0 5.5,21.9 5.9,23.6c0.8,3.3 9.2,2.9 9.2,2.9l10.4,-38.9z" class="st0"/>
     <path stroke="null" id="svg_51" d="m236.50106,62.18333c0.3,-3 2.2,-4.2 5.1,-4.2c2.7,0 5,0.5 5,3.8c0,3.1 -4.4,3 -9.1,3.7c-4.8,0.7 -9.5,2.2 -9.5,8.5c0,5.8 4.2,8.4 9.5,8.4c3.4,0 7,-0.9 9.4,-3.5c0,3.5 8.4,2.7 8.4,2.7c-0.7,-1.1 -1,-3.7 -1,-6.2l0,-14.6c0,-6.7 -6.7,-8 -12.3,-8c-6.3,0 -12.7,2.2 -13.2,9.4l7.7,0zm10.1,8.6c0,1.7 -0.2,6.5 -6.2,6.5c-2.5,0 -4.7,-0.7 -4.7,-3.6c0,-2.8 2.2,-3.6 4.6,-4.1c2.4,-0.4 5.1,-0.5 6.4,-1.6l0,2.8l-0.1,0z" class="st0"/>
    </g>
   </g>
  </g>
 </g>
</svg>